SplineFontDB: 3.0
FontName: Vazir
FullName: Vazir
FamilyName: Vazir
Weight: Regular
Copyright: Copyright (c) 2003 by Bitstream, Inc. All Rights Reserved.\nDejaVu changes are in public domain\nChanges by Saber Rastikerdar are in public domain.\nNon-Arabic(Latin) glyphs and data are imported from Roboto font under the Apache License, Version 2.0.
Version: 9-alpha
ItalicAngle: 0
UnderlinePosition: -500
UnderlineWidth: 100
Ascent: 1638
Descent: 410
InvalidEm: 0
LayerCount: 2
Layer: 0 1 "Back" 1
Layer: 1 1 "Fore" 0
PreferredKerning: 4
XUID: [1021 502 1027637223 5617848]
UniqueID: 4023731
UseUniqueID: 1
FSType: 0
OS2Version: 1
OS2_WeightWidthSlopeOnly: 0
OS2_UseTypoMetrics: 1
CreationTime: 1431850356
ModificationTime: 1489558358
PfmFamily: 33
TTFWeight: 400
TTFWidth: 5
LineGap: 0
VLineGap: 0
Panose: 2 11 6 3 3 8 4 2 2 4
OS2TypoAscent: 2350
OS2TypoAOffset: 0
OS2TypoDescent: -1100
OS2TypoDOffset: 0
OS2TypoLinegap: 0
OS2WinAscent: 2350
OS2WinAOffset: 0
OS2WinDescent: 1100
OS2WinDOffset: 0
HheadAscent: 2350
HheadAOffset: 0
HheadDescent: -1100
HheadDOffset: 0
OS2SubXSize: 1331
OS2SubYSize: 1433
OS2SubXOff: 0
OS2SubYOff: 286
OS2SupXSize: 1331
OS2SupYSize: 1433
OS2SupXOff: 0
OS2SupYOff: 983
OS2StrikeYSize: 102
OS2StrikeYPos: 530
OS2CapHeight: 1638
OS2XHeight: 1082
OS2Vendor: 'PfEd'
OS2CodePages: 00000041.20080000
OS2UnicodeRanges: 80002003.80000000.00000008.00000000
Lookup: 1 9 0 "'fina' Terminal Forms in Arabic lookup 9" { "'fina' Terminal Forms in Arabic lookup 9 subtable"  } ['fina' ('arab' <'KUR ' 'SND ' 'URD ' 'dflt' > ) ]
Lookup: 1 9 0 "'medi' Medial Forms in Arabic lookup 11" { "'medi' Medial Forms in Arabic lookup 11 subtable"  } ['medi' ('arab' <'KUR ' 'SND ' 'URD ' 'dflt' > ) ]
Lookup: 1 9 0 "'init' Initial Forms in Arabic lookup 13" { "'init' Initial Forms in Arabic lookup 13 subtable"  } ['init' ('arab' <'KUR ' 'SND ' 'URD ' 'dflt' > ) ]

StartChar: exclam
Encoding: 33 33 1
GlifName: exclam
Width: 641
VWidth: 2587
GlyphClass: 2
Flags: W
LayerCount: 2
Fore
SplineSet
178.528320312 144.180664062 m 128,-1,1
 178.528320312 173.825195312 178.528320312 173.825195312 188.747070312 198.771484375 c 128,-1,2
 198.966796875 223.717773438 198.966796875 223.717773438 219.51171875 244.264648438 c 128,-1,3
 240.048828125 264.799804688 240.048828125 264.799804688 265.344726562 275.342773438 c 128,-1,4
 290.641601562 285.88671875 290.641601562 285.88671875 320.837890625 286.489257812 c 0,5,6
 351.021484375 285.88671875 351.021484375 285.88671875 376.328125 275.338867188 c 128,-1,7
 401.634765625 264.79296875 401.634765625 264.79296875 422.163085938 244.264648438 c 0,8,9
 463.147460938 203.279296875 463.147460938 203.279296875 463.147460938 144.180664062 c 128,-1,10
 463.147460938 85.08203125 463.147460938 85.08203125 422.163085938 44.095703125 c 128,-1,11
 381.14453125 3.078125 381.14453125 3.078125 320.837890625 1.873046875 c 0,12,13
 305.744140625 2.1748046875 305.744140625 2.1748046875 291.875 4.9609375 c 128,-1,14
 278.006835938 7.7470703125 278.006835938 7.7470703125 265.346679688 13.0234375 c 128,-1,15
 252.685546875 18.298828125 252.685546875 18.298828125 241.231445312 26.0654296875 c 128,-1,16
 229.77734375 33.8310546875 229.77734375 33.8310546875 219.51171875 44.095703125 c 0,17,18
 198.965820312 64.6435546875 198.965820312 64.6435546875 188.74609375 89.58984375 c 128,-1,0
 178.528320312 114.537109375 178.528320312 114.537109375 178.528320312 144.180664062 c 128,-1,1
217.508789062 1484.13769531 m 5,19,-1
 430.313476562 1484.13769531 l 5,20,-1
 407.193359375 485.8359375 l 1,21,-1
 241.78515625 485.8359375 l 1,22,-1
 217.508789062 1484.13769531 l 5,19,-1
EndSplineSet
EndChar

StartChar: period
Encoding: 46 46 2
GlifName: period
Width: 641
VWidth: 2587
GlyphClass: 2
Flags: W
LayerCount: 2
Fore
SplineSet
178.528320312 144.180664062 m 128,-1,1
 178.528320312 173.825195312 178.528320312 173.825195312 188.747070312 198.771484375 c 128,-1,2
 198.966796875 223.717773438 198.966796875 223.717773438 219.51171875 244.264648438 c 128,-1,3
 240.048828125 264.799804688 240.048828125 264.799804688 265.344726562 275.342773438 c 128,-1,4
 290.641601562 285.88671875 290.641601562 285.88671875 320.837890625 286.489257812 c 0,5,6
 351.021484375 285.88671875 351.021484375 285.88671875 376.328125 275.338867188 c 128,-1,7
 401.634765625 264.79296875 401.634765625 264.79296875 422.163085938 244.264648438 c 0,8,9
 463.147460938 203.279296875 463.147460938 203.279296875 463.147460938 144.180664062 c 128,-1,10
 463.147460938 85.08203125 463.147460938 85.08203125 422.163085938 44.095703125 c 128,-1,11
 381.14453125 3.078125 381.14453125 3.078125 320.837890625 1.873046875 c 0,12,13
 305.744140625 2.1748046875 305.744140625 2.1748046875 291.875 4.9609375 c 128,-1,14
 278.006835938 7.7470703125 278.006835938 7.7470703125 265.346679688 13.0234375 c 128,-1,15
 252.685546875 18.298828125 252.685546875 18.298828125 241.231445312 26.0654296875 c 128,-1,16
 229.77734375 33.8310546875 229.77734375 33.8310546875 219.51171875 44.095703125 c 0,17,18
 198.965820312 64.6435546875 198.965820312 64.6435546875 188.74609375 89.58984375 c 128,-1,0
 178.528320312 114.537109375 178.528320312 114.537109375 178.528320312 144.180664062 c 128,-1,1
EndSplineSet
EndChar

StartChar: colon
Encoding: 58 58 3
GlifName: colon
Width: 640
VWidth: 2587
GlyphClass: 2
Flags: W
LayerCount: 2
Fore
SplineSet
178.528320312 958.701171875 m 0,0,1
 178.528320312 978.47265625 178.528320312 978.47265625 183.0703125 996.140625 c 128,-1,2
 187.612304688 1013.80761719 187.612304688 1013.80761719 196.711914062 1029.44628906 c 128,-1,3
 205.811523438 1045.08398438 205.811523438 1045.08398438 219.51171875 1058.78515625 c 0,4,5
 260.53125 1099.8046875 260.53125 1099.8046875 320.837890625 1101.00976562 c 0,6,7
 381.14453125 1099.8046875 381.14453125 1099.8046875 422.163085938 1058.78515625 c 128,-1,8
 463.147460938 1017.79980469 463.147460938 1017.79980469 463.147460938 958.701171875 c 128,-1,9
 463.147460938 899.602539062 463.147460938 899.602539062 422.163085938 858.616210938 c 128,-1,10
 381.14453125 817.59765625 381.14453125 817.59765625 320.837890625 816.392578125 c 0,11,12
 305.744140625 816.694335938 305.744140625 816.694335938 291.875976562 819.48046875 c 128,-1,13
 278.006835938 822.266601562 278.006835938 822.266601562 265.346679688 827.54296875 c 128,-1,14
 252.685546875 832.819335938 252.685546875 832.819335938 241.231445312 840.5859375 c 128,-1,15
 229.77734375 848.3515625 229.77734375 848.3515625 219.51171875 858.616210938 c 0,16,17
 198.965820312 879.1640625 198.965820312 879.1640625 188.74609375 904.110351562 c 128,-1,18
 178.528320312 929.057617188 178.528320312 929.057617188 178.528320312 958.701171875 c 0,0,1
178.528320312 144.180664062 m 128,-1,20
 178.528320312 173.825195312 178.528320312 173.825195312 188.747070312 198.771484375 c 128,-1,21
 198.966796875 223.717773438 198.966796875 223.717773438 219.51171875 244.264648438 c 128,-1,22
 240.048828125 264.799804688 240.048828125 264.799804688 265.344726562 275.342773438 c 128,-1,23
 290.641601562 285.88671875 290.641601562 285.88671875 320.837890625 286.489257812 c 0,24,25
 351.021484375 285.88671875 351.021484375 285.88671875 376.328125 275.338867188 c 128,-1,26
 401.634765625 264.79296875 401.634765625 264.79296875 422.163085938 244.264648438 c 0,27,28
 463.147460938 203.279296875 463.147460938 203.279296875 463.147460938 144.180664062 c 128,-1,29
 463.147460938 85.08203125 463.147460938 85.08203125 422.163085938 44.095703125 c 128,-1,30
 381.14453125 3.078125 381.14453125 3.078125 320.837890625 1.873046875 c 0,31,32
 305.744140625 2.1748046875 305.744140625 2.1748046875 291.875 4.9609375 c 128,-1,33
 278.006835938 7.7470703125 278.006835938 7.7470703125 265.346679688 13.0234375 c 128,-1,34
 252.685546875 18.298828125 252.685546875 18.298828125 241.231445312 26.0654296875 c 128,-1,35
 229.77734375 33.8310546875 229.77734375 33.8310546875 219.51171875 44.095703125 c 0,36,37
 198.965820312 64.6435546875 198.965820312 64.6435546875 188.74609375 89.58984375 c 128,-1,19
 178.528320312 114.537109375 178.528320312 114.537109375 178.528320312 144.180664062 c 128,-1,20
EndSplineSet
EndChar

StartChar: afii57388
Encoding: 1548 1548 5
GlifName: afii57388
Width: 729
VWidth: 2594
GlyphClass: 2
Flags: W
LayerCount: 2
Fore
SplineSet
372.524414062 0.021484375 m 0,0,1
 232.327148438 2.3017578125 232.327148438 2.3017578125 214.350585938 127.783203125 c 0,2,3
 204.099609375 199.3359375 204.099609375 199.3359375 225.510742188 295.745117188 c 0,4,5
 273.588867188 536.66796875 273.588867188 536.66796875 475.553710938 688.182617188 c 1,6,-1
 532.151367188 652.977539062 l 1,7,8
 369.588867188 509.856445312 369.588867188 509.856445312 354.552734375 294.904296875 c 2,9,-1
 354.23828125 290.412109375 l 1,10,-1
 358.740234375 290.483398438 l 2,11,12
 467.616210938 292.194335938 467.616210938 292.194335938 506.293945312 244.03515625 c 0,13,14
 525.919921875 220.078125 525.919921875 220.078125 533.8984375 187.178710938 c 128,-1,15
 541.87890625 154.28125 541.87890625 154.28125 538.071289062 112.247070312 c 0,16,17
 526.384765625 -2.1494140625 526.384765625 -2.1494140625 372.524414062 0.021484375 c 0,0,1
EndSplineSet
EndChar

StartChar: uni0615
Encoding: 1557 1557 6
GlifName: uni0615
Width: -29
VWidth: 2659
GlyphClass: 4
Flags: W
AnchorPoint: "Anchor-10" 644.346 1592.23 mark 0
AnchorPoint: "Anchor-9" 644.346 1592.23 mark 0
AnchorPoint: "Anchor-1" 658.215 2398.3 basemark 0
AnchorPoint: "Anchor-1" 644.346 1592.23 mark 0
LayerCount: 2
Fore
SplineSet
534.321289062 1756.24511719 m 1,0,-1
 663.439453125 1756.24511719 l 2,1,2
 764.803710938 1756.24511719 764.803710938 1756.24511719 828.856445312 1794.55664062 c 0,3,4
 893.942382812 1833.48339844 893.942382812 1833.48339844 893.942382812 1879.28808594 c 0,5,6
 893.942382812 1894.29785156 893.942382812 1894.29785156 890.555664062 1906.31152344 c 128,-1,7
 887.16796875 1918.32519531 887.16796875 1918.32519531 880.233398438 1927.35839844 c 128,-1,8
 873.298828125 1936.39160156 873.298828125 1936.39160156 862.922851562 1942.01269531 c 0,9,10
 759.193359375 1999.90527344 759.193359375 1999.90527344 540.723632812 1763.18164062 c 2,11,-1
 534.321289062 1756.24511719 l 1,0,-1
972.229492188 1890.15917969 m 0,12,13
 972.3984375 1783.86621094 972.3984375 1783.86621094 903.174804688 1730.93164062 c 128,-1,14
 833.952148438 1677.99707031 833.952148438 1677.99707031 693.474609375 1677.99707031 c 2,15,-1
 345.5078125 1677.99707031 l 1,16,-1
 345.5078125 1756.24511719 l 1,17,-1
 451.28515625 1756.24511719 l 1,18,-1
 451.28515625 2277.21582031 l 1,19,-1
 530.825195312 2276.21972656 l 1,20,-1
 529.893554688 1831.82324219 l 1,21,-1
 537.150390625 1840.05273438 l 2,22,23
 739.078125 2069.05566406 739.078125 2069.05566406 883.095703125 2017.20019531 c 0,24,25
 972.559570312 1984.06542969 972.559570312 1984.06542969 972.229492188 1890.15917969 c 0,12,13
EndSplineSet
EndChar

StartChar: uni061B
Encoding: 1563 1563 7
GlifName: uni061B_
Width: 729
VWidth: 2594
GlyphClass: 2
Flags: W
LayerCount: 2
Fore
SplineSet
233.5625 144.180664062 m 128,-1,1
 233.5625 203.279296875 233.5625 203.279296875 274.547851562 244.264648438 c 128,-1,2
 315.56640625 285.284179688 315.56640625 285.284179688 375.873046875 286.489257812 c 0,3,4
 436.1796875 285.284179688 436.1796875 285.284179688 477.197265625 244.264648438 c 128,-1,5
 518.18359375 203.279296875 518.18359375 203.279296875 518.18359375 144.180664062 c 128,-1,6
 518.18359375 85.08203125 518.18359375 85.08203125 477.197265625 44.095703125 c 128,-1,7
 436.1796875 3.078125 436.1796875 3.078125 375.873046875 1.873046875 c 0,8,9
 315.56640625 3.078125 315.56640625 3.078125 274.547851562 44.095703125 c 128,-1,0
 233.5625 85.08203125 233.5625 85.08203125 233.5625 144.180664062 c 128,-1,1
372.522460938 484.331054688 m 0,10,11
 232.1171875 486.456054688 232.1171875 486.456054688 214.353515625 612.064453125 c 0,12,13
 209.77734375 645.41796875 209.77734375 645.41796875 212.5625 687.533203125 c 128,-1,14
 215.348632812 729.649414062 215.348632812 729.649414062 225.516601562 780.08203125 c 0,15,16
 274.872070312 1022.23242188 274.872070312 1022.23242188 475.551757812 1172.49316406 c 1,17,-1
 532.151367188 1137.28710938 l 1,18,19
 504.905273438 1113.29882812 504.905273438 1113.29882812 481.848632812 1087.40527344 c 128,-1,20
 458.791015625 1061.51171875 458.791015625 1061.51171875 439.89453125 1033.66699219 c 128,-1,21
 420.998046875 1005.82324219 420.998046875 1005.82324219 406.2421875 976.041992188 c 128,-1,22
 391.484375 946.259765625 391.484375 946.259765625 380.833984375 914.451171875 c 128,-1,23
 370.182617188 882.643554688 370.182617188 882.643554688 363.622070312 848.8671875 c 128,-1,24
 357.061523438 815.090820312 357.061523438 815.090820312 354.552734375 779.21484375 c 2,25,-1
 354.23828125 774.721679688 l 1,26,-1
 358.740234375 774.793945312 l 2,27,28
 467.616210938 776.502929688 467.616210938 776.502929688 506.293945312 728.344726562 c 0,29,30
 545.655273438 680.29296875 545.655273438 680.29296875 538.071289062 596.557617188 c 0,31,32
 526.384765625 482.16015625 526.384765625 482.16015625 372.522460938 484.331054688 c 0,10,11
EndSplineSet
EndChar

StartChar: uni061F
Encoding: 1567 1567 8
GlifName: uni061F_
Width: 1068
VWidth: 2587
GlyphClass: 2
Flags: W
LayerCount: 2
Fore
SplineSet
504.762695312 144.180664062 m 128,-1,1
 504.762695312 203.279296875 504.762695312 203.279296875 545.748046875 244.264648438 c 128,-1,2
 586.765625 285.284179688 586.765625 285.284179688 647.072265625 286.489257812 c 0,3,4
 707.37890625 285.284179688 707.37890625 285.284179688 748.397460938 244.264648438 c 128,-1,5
 789.383789062 203.279296875 789.383789062 203.279296875 789.383789062 144.180664062 c 128,-1,6
 789.383789062 85.08203125 789.383789062 85.08203125 748.397460938 44.095703125 c 0,7,8
 734.705078125 30.404296875 734.705078125 30.404296875 718.904296875 21.1591796875 c 128,-1,9
 703.104492188 11.9130859375 703.104492188 11.9130859375 685.155273438 7.09375 c 128,-1,10
 667.20703125 2.275390625 667.20703125 2.275390625 647.072265625 1.873046875 c 0,11,12
 586.765625 3.078125 586.765625 3.078125 545.748046875 44.095703125 c 128,-1,0
 504.762695312 85.08203125 504.762695312 85.08203125 504.762695312 144.180664062 c 128,-1,1
548.896484375 483.04296875 m 1,13,-1
 548.896484375 499.385742188 l 2,14,15
 549.000210982 536.074625789 549.000210982 536.074625789 468.02734375 615.206054688 c 2,16,-1
 362.948242188 717.895507812 l 2,17,18
 183 894 183 894 184.106445312 1075.70800781 c 0,19,20
 185 1258 185 1258 319.134765625 1379.72753906 c 4,21,22
 433 1483 433 1483 625.5703125 1482.92773438 c 0,23,24
 847 1482 847 1482 992.040039062 1310.76269531 c 1,25,-1
 892.3984375 1179.75292969 l 1,26,27
 777 1292 777 1292 624.3125 1292.609375 c 0,28,29
 536.769347169 1292.29975915 536.769347169 1292.29975915 464.958984375 1232.66601562 c 0,30,31
 387 1167 387 1167 387.129882812 1048.08496094 c 0,32,33
 387 932 387 932 520.490234375 807.774414062 c 1,34,-1
 627.795898438 701.662109375 l 2,35,36
 747.563476562 583.430923665 747.563476562 583.430923665 747.563476562 501.73046875 c 2,37,-1
 747.563476562 483.04296875 l 1,38,-1
 548.896484375 483.04296875 l 1,13,-1
EndSplineSet
EndChar

StartChar: uni0621
Encoding: 1569 1569 9
GlifName: uni0621
Width: 895
VWidth: 2762
GlyphClass: 2
Flags: W
AnchorPoint: "Anchor-7" 453.186 -237.864 basechar 0
AnchorPoint: "Anchor-10" 405.117 1313.97 basechar 0
LayerCount: 2
Fore
SplineSet
114.548828125 7.7158203125 m 1,0,-1
 114.548828125 203.268554688 l 1,1,2
 236 281 236 281 331.471679688 310.8046875 c 1,3,4
 128 416 128 416 123.329101562 588.659179688 c 4,5,6
 121 674 121 674 153.764648438 743.833984375 c 0,7,8
 233 917 233 917 446.259765625 920.62109375 c 0,9,10
 613 924 613 924 728.461914062 822.512695312 c 1,11,-1
 672.103515625 695.184570312 l 1,12,13
 578 748 578 748 490.80859375 747.973632812 c 0,14,15
 404 747 404 747 362.981445312 720.71484375 c 0,16,17
 289 673 289 673 285.416992188 593.745117188 c 0,18,19
 280 484 280 484 493.8984375 392.374023438 c 1,20,-1
 760.815429688 446.635742188 l 1,21,-1
 788.194335938 257.087890625 l 1,22,23
 504 226 504 226 114.548828125 7.7158203125 c 1,0,-1
EndSplineSet
EndChar

StartChar: uni0627
Encoding: 1575 1575 15
GlifName: uni0627
Width: 492
VWidth: 2762
GlyphClass: 2
Flags: W
AnchorPoint: "Anchor-10" 239.197 1636.59 basechar 0
AnchorPoint: "Anchor-7" 252.005 -221.728 basechar 0
LayerCount: 2
Fore
SplineSet
164.422851562 1476.2890625 m 5,0,-1
 341.380859375 1476.2890625 l 5,1,-1
 341.380859375 0.7021484375 l 1,2,-1
 164.422851562 0.7021484375 l 1,3,-1
 164.422851562 1476.2890625 l 5,0,-1
EndSplineSet
Substitution2: "'fina' Terminal Forms in Arabic lookup 9 subtable" uniFE8E
EndChar

StartChar: uni062D
Encoding: 1581 1581 21
GlifName: uni062D_
Width: 1333
VWidth: 2762
GlyphClass: 2
Flags: W
AnchorPoint: "Anchor-10" 639.119 1280.36 basechar 0
AnchorPoint: "Anchor-7" 513.391 -897.848 basechar 0
LayerCount: 2
Fore
SplineSet
774 554.037109375 m 1,0,1
 752 560 752 560 728.823242188 565.602539062 c 0,2,3
 497 622 497 622 409.278320312 610.802734375 c 0,4,5
 335.102574527 602.012156122 335.102574527 602.012156122 264.125976562 510.58984375 c 2,6,-1
 235.493164062 473.708984375 l 1,7,-1
 90.302734375 559.48828125 l 1,8,-1
 108.502929688 589.541992188 l 2,9,10
 228 787 228 787 387.71484375 800.12109375 c 0,11,12
 500 809 500 809 777.991210938 726.280273438 c 0,13,14
 1056 643 1056 643 1227.28710938 631.7109375 c 1,15,-1
 1214.515625 454.961914062 l 1,16,17
 1054.2564084 442.548106328 1054.2564084 442.548106328 999.530273438 432.672851562 c 0,18,19
 292 295 292 295 290.69921875 -133.299804688 c 0,20,21
 290 -492 290 -492 816.392578125 -492.64453125 c 0,22,23
 1010 -493 1010 -493 1193.40722656 -430.958007812 c 1,24,-1
 1228.99511719 -607.452148438 l 1,25,26
 1037 -673 1037 -673 811.98828125 -673.477539062 c 0,27,28
 117 -675 117 -675 117.524414062 -131.905273438 c 0,29,30
 118 389 118 389 774 554.037109375 c 1,0,1
EndSplineSet
Substitution2: "'fina' Terminal Forms in Arabic lookup 9 subtable" uniFEA2
Substitution2: "'medi' Medial Forms in Arabic lookup 11 subtable" uniFEA4
Substitution2: "'init' Initial Forms in Arabic lookup 13 subtable" uniFEA3
EndChar

StartChar: uni062F
Encoding: 1583 1583 23
GlifName: uni062F_
Width: 992
VWidth: 2762
GlyphClass: 2
Flags: W
AnchorPoint: "Anchor-10" 391.35 1328.88 basechar 0
AnchorPoint: "Anchor-7" 440.033 -231.02 basechar 0
LayerCount: 2
Fore
SplineSet
98.873046875 211.5703125 m 5,0,1
 215 187 215 187 348.90234375 187.036132812 c 4,2,3
 699 187 699 187 698.30078125 365.54296875 c 4,4,5
 698 484 698 484 561.420898438 614.126953125 c 4,6,7
 462 709 462 709 299 827 c 5,8,-1
 407.244140625 986.14453125 l 5,9,10
 877.016671635 667.046565099 877.016671635 667.046565099 880.826849422 370 c 4,11,12
 882.238347714 259.957702017 882.238347714 259.957702017 825.26171875 174.283203125 c 4,13,14
 708 2 708 2 363.260742188 2.1123046875 c 4,15,16
 201 2 201 2 98.873046875 25.08984375 c 5,17,-1
 98.873046875 211.5703125 l 5,0,1
EndSplineSet
Substitution2: "'fina' Terminal Forms in Arabic lookup 9 subtable" uniFEAA
EndChar

StartChar: uni0631
Encoding: 1585 1585 25
GlifName: uni0631
Width: 829
VWidth: 2762
GlyphClass: 2
Flags: W
AnchorPoint: "Anchor-10" 452.58 1296.55 basechar 0
AnchorPoint: "Anchor-7" 353.872 -727.41 basechar 0
LayerCount: 2
Fore
SplineSet
436 490.30078125 m 1,0,-1
 605 569 l 1,1,2
 736 333 736 333 734.037109375 118.8828125 c 0,3,4
 732 -81 732 -81 626.641601562 -238.590820312 c 0,5,6
 472 -473 472 -473 33 -515.091796875 c 1,7,-1
 0.9208984375 -337.087890625 l 1,8,9
 354 -302 354 -302 479.879882812 -122.063476562 c 0,10,11
 550 -23 550 -23 549.606445312 102.358398438 c 0,12,13
 549 294 549 294 436 490.30078125 c 1,0,-1
EndSplineSet
PairPos2: "'kern' Horizontal Kerning lookup 15-2" uniFBFE dx=57 dy=0 dh=57 dv=0 dx=0 dy=0 dh=0 dv=0
PairPos2: "'kern' Horizontal Kerning lookup 15-1" uniFEE7 dx=-170 dy=0 dh=-170 dv=0 dx=0 dy=0 dh=0 dv=0
PairPos2: "'kern' Horizontal Kerning lookup 15-2" uniFB90 dx=-216 dy=0 dh=-216 dv=0 dx=0 dy=0 dh=0 dv=0
PairPos2: "'kern' Horizontal Kerning lookup 15-2" uniFB8E dx=-216 dy=0 dh=-216 dv=0 dx=0 dy=0 dh=0 dv=0
PairPos2: "'kern' Horizontal Kerning lookup 15-2" uni06A9 dx=-216 dy=0 dh=-216 dv=0 dx=0 dy=0 dh=0 dv=0
PairPos2: "'kern' Horizontal Kerning lookup 15-2" uni064A dx=-57 dy=0 dh=-57 dv=0 dx=0 dy=0 dh=0 dv=0
PairPos2: "'kern' Horizontal Kerning lookup 15-2" afii57414 dx=-57 dy=0 dh=-57 dv=0 dx=0 dy=0 dh=0 dv=0
PairPos2: "'kern' Horizontal Kerning lookup 15-2" uni0649 dx=-57 dy=0 dh=-57 dv=0 dx=0 dy=0 dh=0 dv=0
PairPos2: "'kern' Horizontal Kerning lookup 15-2" uniFEEB dx=-170 dy=0 dh=-170 dv=0 dx=0 dy=0 dh=0 dv=0
PairPos2: "'kern' Horizontal Kerning lookup 15-2" uni0647 dx=-170 dy=0 dh=-170 dv=0 dx=0 dy=0 dh=0 dv=0
PairPos2: "'kern' Horizontal Kerning lookup 15-2" uni0646 dx=-57 dy=0 dh=-57 dv=0 dx=0 dy=0 dh=0 dv=0
PairPos2: "'kern' Horizontal Kerning lookup 15-2" uniFEE3 dx=-170 dy=0 dh=-170 dv=0 dx=0 dy=0 dh=0 dv=0
PairPos2: "'kern' Horizontal Kerning lookup 15-2" uni0645 dx=-170 dy=0 dh=-170 dv=0 dx=0 dy=0 dh=0 dv=0
PairPos2: "'kern' Horizontal Kerning lookup 15-2" uniFEFB dx=-136 dy=0 dh=-136 dv=0 dx=0 dy=0 dh=0 dv=0
PairPos2: "'kern' Horizontal Kerning lookup 15-2" uniFEDF dx=-136 dy=0 dh=-136 dv=0 dx=0 dy=0 dh=0 dv=0
PairPos2: "'kern' Horizontal Kerning lookup 15-2" uni0644 dx=-57 dy=0 dh=-57 dv=0 dx=0 dy=0 dh=0 dv=0
PairPos2: "'kern' Horizontal Kerning lookup 15-2" uniFEDB dx=-216 dy=0 dh=-216 dv=0 dx=0 dy=0 dh=0 dv=0
PairPos2: "'kern' Horizontal Kerning lookup 15-2" uni0643 dx=-136 dy=0 dh=-136 dv=0 dx=0 dy=0 dh=0 dv=0
PairPos2: "'kern' Horizontal Kerning lookup 15-2" uniFED7 dx=-170 dy=0 dh=-170 dv=0 dx=0 dy=0 dh=0 dv=0
PairPos2: "'kern' Horizontal Kerning lookup 15-2" uni0642 dx=-57 dy=0 dh=-57 dv=0 dx=0 dy=0 dh=0 dv=0
PairPos2: "'kern' Horizontal Kerning lookup 15-2" uniFED3 dx=-170 dy=0 dh=-170 dv=0 dx=0 dy=0 dh=0 dv=0
PairPos2: "'kern' Horizontal Kerning lookup 15-2" uni0641 dx=-170 dy=0 dh=-170 dv=0 dx=0 dy=0 dh=0 dv=0
PairPos2: "'kern' Horizontal Kerning lookup 15-2" uniFECF dx=-170 dy=0 dh=-170 dv=0 dx=0 dy=0 dh=0 dv=0
PairPos2: "'kern' Horizontal Kerning lookup 15-2" uniFECB dx=-170 dy=0 dh=-170 dv=0 dx=0 dy=0 dh=0 dv=0
PairPos2: "'kern' Horizontal Kerning lookup 15-2" uniFEC7 dx=-170 dy=0 dh=-170 dv=0 dx=0 dy=0 dh=0 dv=0
PairPos2: "'kern' Horizontal Kerning lookup 15-2" uni0638 dx=-170 dy=0 dh=-170 dv=0 dx=0 dy=0 dh=0 dv=0
PairPos2: "'kern' Horizontal Kerning lookup 15-2" uniFEC3 dx=-170 dy=0 dh=-170 dv=0 dx=0 dy=0 dh=0 dv=0
PairPos2: "'kern' Horizontal Kerning lookup 15-2" uni0637 dx=-170 dy=0 dh=-170 dv=0 dx=0 dy=0 dh=0 dv=0
PairPos2: "'kern' Horizontal Kerning lookup 15-2" uniFEBF dx=-170 dy=0 dh=-170 dv=0 dx=0 dy=0 dh=0 dv=0
PairPos2: "'kern' Horizontal Kerning lookup 15-2" uni0636 dx=-170 dy=0 dh=-170 dv=0 dx=0 dy=0 dh=0 dv=0
PairPos2: "'kern' Horizontal Kerning lookup 15-2" uniFEBB dx=-170 dy=0 dh=-170 dv=0 dx=0 dy=0 dh=0 dv=0
PairPos2: "'kern' Horizontal Kerning lookup 15-2" uni0635 dx=-170 dy=0 dh=-170 dv=0 dx=0 dy=0 dh=0 dv=0
PairPos2: "'kern' Horizontal Kerning lookup 15-2" uniFEB7 dx=-170 dy=0 dh=-170 dv=0 dx=0 dy=0 dh=0 dv=0
PairPos2: "'kern' Horizontal Kerning lookup 15-2" uni0634 dx=-170 dy=0 dh=-170 dv=0 dx=0 dy=0 dh=0 dv=0
PairPos2: "'kern' Horizontal Kerning lookup 15-2" uniFEB3 dx=-170 dy=0 dh=-170 dv=0 dx=0 dy=0 dh=0 dv=0
PairPos2: "'kern' Horizontal Kerning lookup 15-2" uni0633 dx=-170 dy=0 dh=-170 dv=0 dx=0 dy=0 dh=0 dv=0
PairPos2: "'kern' Horizontal Kerning lookup 15-2" uni0630 dx=-170 dy=0 dh=-170 dv=0 dx=0 dy=0 dh=0 dv=0
PairPos2: "'kern' Horizontal Kerning lookup 15-2" uni062F dx=-170 dy=0 dh=-170 dv=0 dx=0 dy=0 dh=0 dv=0
PairPos2: "'kern' Horizontal Kerning lookup 15-2" uniFEA7 dx=-170 dy=0 dh=-170 dv=0 dx=0 dy=0 dh=0 dv=0
PairPos2: "'kern' Horizontal Kerning lookup 15-2" uniFEA3 dx=-170 dy=0 dh=-170 dv=0 dx=0 dy=0 dh=0 dv=0
PairPos2: "'kern' Horizontal Kerning lookup 15-2" uniFE9F dx=-170 dy=0 dh=-170 dv=0 dx=0 dy=0 dh=0 dv=0
PairPos2: "'kern' Horizontal Kerning lookup 15-2" uniFE9B dx=-170 dy=0 dh=-170 dv=0 dx=0 dy=0 dh=0 dv=0
PairPos2: "'kern' Horizontal Kerning lookup 15-2" uni062B dx=-170 dy=0 dh=-170 dv=0 dx=0 dy=0 dh=0 dv=0
PairPos2: "'kern' Horizontal Kerning lookup 15-2" uniFE97 dx=-170 dy=0 dh=-170 dv=0 dx=0 dy=0 dh=0 dv=0
PairPos2: "'kern' Horizontal Kerning lookup 15-2" uni062A dx=-170 dy=0 dh=-170 dv=0 dx=0 dy=0 dh=0 dv=0
PairPos2: "'kern' Horizontal Kerning lookup 15-2" uni0629 dx=-170 dy=0 dh=-170 dv=0 dx=0 dy=0 dh=0 dv=0
PairPos2: "'kern' Horizontal Kerning lookup 15-2" uni0628 dx=-170 dy=0 dh=-170 dv=0 dx=0 dy=0 dh=0 dv=0
PairPos2: "'kern' Horizontal Kerning lookup 15-2" uni0627 dx=-136 dy=0 dh=-136 dv=0 dx=0 dy=0 dh=0 dv=0
PairPos2: "'kern' Horizontal Kerning lookup 15-2" uni0623 dx=-136 dy=0 dh=-136 dv=0 dx=0 dy=0 dh=0 dv=0
PairPos2: "'kern' Horizontal Kerning lookup 15-2" uni0622 dx=-136 dy=0 dh=-136 dv=0 dx=0 dy=0 dh=0 dv=0
PairPos2: "'kern' Horizontal Kerning lookup 15-2" uni0621 dx=-170 dy=0 dh=-170 dv=0 dx=0 dy=0 dh=0 dv=0
PairPos2: "'kern' Horizontal Kerning lookup 15-2" uniFB94 dx=-216 dy=0 dh=-216 dv=0 dx=0 dy=0 dh=0 dv=0
PairPos2: "'kern' Horizontal Kerning lookup 15-2" uniFB92 dx=-216 dy=0 dh=-216 dv=0 dx=0 dy=0 dh=0 dv=0
PairPos2: "'kern' Horizontal Kerning lookup 15-2" uni06AF dx=-216 dy=0 dh=-216 dv=0 dx=0 dy=0 dh=0 dv=0
PairPos2: "'kern' Horizontal Kerning lookup 15-2" afii57506 dx=-170 dy=0 dh=-170 dv=0 dx=0 dy=0 dh=0 dv=0
PairPos2: "'kern' Horizontal Kerning lookup 15-2" afii57440 dx=-170 dy=0 dh=-170 dv=0 dx=0 dy=0 dh=0 dv=0
PairPos2: "'kern' Horizontal Kerning lookup 15-2" uniFE8B dx=-170 dy=0 dh=-170 dv=0 dx=0 dy=0 dh=0 dv=0
Substitution2: "'fina' Terminal Forms in Arabic lookup 9 subtable" uniFEAE
EndChar

StartChar: uni0633
Encoding: 1587 1587 27
GlifName: uni0633
Width: 2447
VWidth: 2762
GlyphClass: 2
Flags: W
AnchorPoint: "Anchor-10" 720.104 1125.38 basechar 0
AnchorPoint: "Anchor-7" 543.969 -773.127 basechar 0
LayerCount: 2
Fore
SplineSet
2033.21875 0 m 0,0,1
 1867 0 1867 0 1780.796875 151.263671875 c 1,2,3
 1697 0 1697 0 1531.96191406 0 c 0,4,5
 1420 0 1420 0 1345.2421875 75.4814453125 c 1,6,7
 1345 -90 1345 -90 1280.31347656 -224.483398438 c 0,8,9
 1141 -516 1141 -516 728.239257812 -516.422851562 c 0,10,11
 117 -517 117 -517 115.329101562 45.630859375 c 0,12,13
 115 263 115 263 225.908203125 497.967773438 c 1,14,-1
 386.430664062 433.432617188 l 1,15,16
 297 209 297 209 297.462890625 53.1259765625 c 0,17,18
 300 -329 300 -329 737.030273438 -330.336914062 c 0,19,20
 1169 -332 1169 -332 1165.44726562 98.251953125 c 0,21,22
 1164 280 1164 280 1083.02441406 508.853515625 c 1,23,-1
 1253.52734375 568.422851562 l 1,24,-1
 1319.90527344 355.416992188 l 2,25,26
 1373 186 1373 186 1535.33203125 186.145507812 c 16,27,28
 1655.03367489 185.999959054 1655.03367489 185.999959054 1672.45214844 345.454101562 c 2,29,-1
 1697.44335938 574.231445312 l 1,30,-1
 1850.62402344 574.231445312 l 1,31,-1
 1875.47265625 344.56640625 l 2,32,33
 1893 185 1893 185 2032.6015625 186.3203125 c 0,34,35
 2166 188 2166 188 2165.33398438 411.15234375 c 0,36,37
 2165 564 2165 564 2124.41308594 691.844726562 c 1,38,-1
 2298.57324219 722.809570312 l 1,39,40
 2343 582 2343 582 2341.99121094 418.848632812 c 0,41,42
 2341 0 2341 0 2033.21875 0 c 0,0,1
EndSplineSet
Substitution2: "'fina' Terminal Forms in Arabic lookup 9 subtable" uniFEB2
Substitution2: "'medi' Medial Forms in Arabic lookup 11 subtable" uniFEB4
Substitution2: "'init' Initial Forms in Arabic lookup 13 subtable" uniFEB3
EndChar

StartChar: uni0635
Encoding: 1589 1589 29
GlifName: uni0635
Width: 2567
VWidth: 2762
GlyphClass: 2
Flags: W
AnchorPoint: "Anchor-7" 543.969 -773.127 basechar 0
AnchorPoint: "Anchor-10" 720.104 1125.38 basechar 0
LayerCount: 2
Fore
SplineSet
1622.74414062 0 m 2,0,1
 1438 0 1438 0 1345.23535156 73.998046875 c 1,2,3
 1345 -90 1345 -90 1280.32128906 -224.466796875 c 0,4,5
 1141 -516 1141 -516 728.239257812 -516.422851562 c 0,6,7
 117 -517 117 -517 115.329101562 45.630859375 c 0,8,9
 115 263 115 263 225.908203125 497.967773438 c 1,10,-1
 386.430664062 433.432617188 l 1,11,12
 297 209 297 209 297.462890625 53.1259765625 c 0,13,14
 300 -329 300 -329 737.030273438 -330.336914062 c 0,15,16
 1174 -332 1174 -332 1165.44726562 98.251953125 c 0,17,18
 1162 285 1162 285 1083.02441406 508.853515625 c 1,19,-1
 1253.52734375 568.422851562 l 1,20,-1
 1319.90234375 355.42578125 l 2,21,22
 1357 237 1357 237 1419.15625 232.921875 c 1,23,-1
 1419.15625 232.921875 l 1,24,-1
 1419.93847656 234.362304688 l 1,25,26
 1763 829 1763 829 2100.19433594 823.201171875 c 0,27,28
 2305 820 2305 820 2405.921875 672.3046875 c 0,29,30
 2463 589 2463 589 2462.92871094 481.360351562 c 0,31,32
 2463 0 2463 0 1719.13769531 0 c 2,33,-1
 1622.74414062 0 l 2,0,1
1589.11425781 186.391601562 m 1,34,-1
 1724.37109375 186.391601562 l 2,35,36
 2013 186 2013 186 2149.79785156 263.658203125 c 0,37,38
 2283 339 2283 339 2283.52441406 462.627929688 c 0,39,40
 2284 538 2284 538 2230.15722656 586.038085938 c 0,41,42
 2176 635 2176 635 2078.96679688 634.525390625 c 0,43,44
 1870 632 1870 632 1589.11425781 186.391601562 c 1,34,-1
EndSplineSet
Substitution2: "'fina' Terminal Forms in Arabic lookup 9 subtable" uniFEBA
Substitution2: "'medi' Medial Forms in Arabic lookup 11 subtable" uniFEBC
Substitution2: "'init' Initial Forms in Arabic lookup 13 subtable" uniFEBB
EndChar

StartChar: uni0637
Encoding: 1591 1591 31
GlifName: uni0637
Width: 1481
VWidth: 2762
GlyphClass: 2
Flags: W
AnchorPoint: "Anchor-10" 463.007 1637.04 basechar 0
AnchorPoint: "Anchor-7" 646.253 -221.983 basechar 0
LayerCount: 2
Fore
SplineSet
633.765625 0 m 2,0,-1
 108.961914062 0 l 1,1,-1
 108.961914062 186.206054688 l 1,2,-1
 308.737304688 186.352539062 l 1,3,4
 330 222 330 222 378.198242188 288.044921875 c 5,5,-1
 378.198242188 1476.96484375 l 5,6,-1
 555.155273438 1476.96484375 l 1,7,-1
 555.155273438 559.151367188 l 1,8,9
 766 823 766 823 1014.82226562 823.201171875 c 24,10,11
 1218 823 1218 823 1320.54980469 672.3046875 c 0,12,13
 1378 589 1378 589 1377.55664062 481.360351562 c 0,14,15
 1378 0 1378 0 633.765625 0 c 2,0,-1
503.7421875 188.458984375 m 1,16,-1
 638.997070312 188.458984375 l 2,17,18
 932.84036027 188.004882865 932.84036027 188.004882865 1063.44628906 264.348632812 c 0,19,20
 1198 343 1198 343 1198.15136719 462.627929688 c 0,21,22
 1198 536 1198 536 1144.78515625 586.038085938 c 0,23,24
 1091 635 1091 635 993.594726562 634.525390625 c 0,25,26
 782 632 782 632 503.7421875 188.458984375 c 1,16,-1
EndSplineSet
Substitution2: "'fina' Terminal Forms in Arabic lookup 9 subtable" uniFEC2
Substitution2: "'medi' Medial Forms in Arabic lookup 11 subtable" uniFEC4
Substitution2: "'init' Initial Forms in Arabic lookup 13 subtable" uniFEC3
EndChar

StartChar: uni0639
Encoding: 1593 1593 33
GlifName: uni0639
Width: 1319
VWidth: 2762
GlyphClass: 2
Flags: W
AnchorPoint: "Anchor-7" 513.391 -897.848 basechar 0
AnchorPoint: "Anchor-10" 674.171 1349.34 basechar 0
LayerCount: 2
Fore
SplineSet
106.857421875 -143.23828125 m 0,0,1
 106 212 106 212 433.34765625 379.71875 c 1,2,3
 388.822962778 430.710859015 388.822962778 430.710859015 359.411257184 477 c 0,4,5
 274.590977158 610.49303691 274.590977158 610.49303691 318.060466626 765 c 0,6,7
 341.630168883 848.775612763 341.630168883 848.775612763 400.146484375 910.381835938 c 0,8,9
 504 1021 504 1021 702.125 1018.04003906 c 0,10,11
 892 1015 892 1015 1057.49121094 900.719726562 c 1,12,-1
 990.89453125 747.079101562 l 1,13,14
 849 832 849 832 704.168945312 831.805664062 c 0,15,16
 564 831 564 831 509.328125 736.8203125 c 0,17,18
 461 654 461 654 507.833984375 574.109375 c 0,19,20
 563 482 563 482 603.537109375 451.75 c 1,21,22
 891 500 891 500 1129.7734375 470.999023438 c 1,23,-1
 1107.80273438 288.999023438 l 1,24,25
 829 301 829 301 643.4609375 255.404296875 c 0,26,27
 279 165 279 165 280.032226562 -143.6328125 c 24,28,29
 281 -492 281 -492 836.725585938 -492.64453125 c 0,30,31
 999 -493 999 -493 1182.74121094 -430.958007812 c 1,32,-1
 1218.328125 -607.452148438 l 1,33,34
 1023 -674 1023 -674 832.322265625 -673.477539062 c 0,35,36
 108 -675 108 -675 106.857421875 -143.23828125 c 0,0,1
EndSplineSet
Substitution2: "'fina' Terminal Forms in Arabic lookup 9 subtable" uniFECA
Substitution2: "'medi' Medial Forms in Arabic lookup 11 subtable" uniFECC
Substitution2: "'init' Initial Forms in Arabic lookup 13 subtable" uniFECB
EndChar

StartChar: afii57440
Encoding: 1600 1600 35
GlifName: afii57440
Width: 268
VWidth: 2762
GlyphClass: 2
Flags: W
AnchorPoint: "Anchor-10" 125.849 1483.96 basechar 0
AnchorPoint: "Anchor-7" 119.243 -195.759 basechar 0
LayerCount: 2
Fore
SplineSet
-6.478515625 0 m 2,0,1
 -83.9228515625 0 -83.9228515625 0 -83.9228515625 87.224609375 c 2,2,-1
 -83.9228515625 104.836914062 l 2,3,4
 -83.9228515625 194.262695312 -83.9228515625 194.262695312 -6.478515625 194.262695312 c 2,5,-1
 275.17578125 194.262695312 l 2,6,7
 298.685546875 194.262695312 298.685546875 194.262695312 298.685546875 104.836914062 c 2,8,-1
 298.685546875 87.23046875 l 2,9,10
 298.565429688 0 298.565429688 0 275.17578125 0 c 2,11,-1
 -6.478515625 0 l 2,0,1
EndSplineSet
EndChar

StartChar: uni0643
Encoding: 1603 1603 38
GlifName: uni0643
Width: 1898
VWidth: 2762
GlyphClass: 2
Flags: W
AnchorPoint: "Anchor-10" 974.03 1588.49 basechar 0
AnchorPoint: "Anchor-7" 659.919 -229.038 basechar 0
LayerCount: 2
Fore
SplineSet
901.221679688 186.162109375 m 0,0,1
 1012 186 1012 186 1129.1953125 196.078125 c 0,2,3
 1576 235 1576 235 1570.36230469 538.80078125 c 1,4,-1
 1570.36230469 1472.49121094 l 1,5,-1
 1750.65039062 1472.49121094 l 1,6,-1
 1750.65039062 541.0625 l 2,7,8
 1751 166 1751 166 1395.15332031 54.5029296875 c 0,9,10
 1226 1 1226 1 897.32421875 0.384765625 c 0,11,12
 107 -2 107 -2 106.961914062 516.837890625 c 0,13,14
 107 649 107 649 146.125 762.041015625 c 1,15,-1
 300.875 721.403320312 l 1,16,17
 277 602 277 602 277.845703125 518.591796875 c 0,18,19
 282 187 282 187 901.221679688 186.162109375 c 0,0,1
720 787 m 5,20,21
 1071 747 1071 747 1071.64941406 856.05078125 c 4,22,23
 1072 932 1072 932 962.100585938 948.255859375 c 4,24,25
 758 979 758 979 761.80859375 1152.01953125 c 4,26,27
 766.989701992 1350.60528954 766.989701992 1350.60528954 1124.76171875 1375.57226562 c 6,28,-1
 1138 1376.49609375 l 5,29,-1
 1138 1247 l 5,30,31
 895 1225 895 1225 895.711914062 1144.40332031 c 4,32,33
 896 1079 896 1079 1021.27441406 1059.73242188 c 4,34,35
 1205 1031 1205 1031 1205.03808594 886.8984375 c 4,36,37
 1205 746 1205 746 1087.19140625 679.7890625 c 4,38,39
 978 619 978 619 720 658.38671875 c 5,40,-1
 720 787 l 5,20,21
EndSplineSet
Substitution2: "'fina' Terminal Forms in Arabic lookup 9 subtable" uniFEDA
Substitution2: "'medi' Medial Forms in Arabic lookup 11 subtable" uniFEDC
Substitution2: "'init' Initial Forms in Arabic lookup 13 subtable" uniFEDB
EndChar

StartChar: uni0644
Encoding: 1604 1604 39
GlifName: uni0644
Width: 1404
VWidth: 2762
GlyphClass: 2
Flags: W
AnchorPoint: "Anchor-7" 543.969 -773.127 basechar 0
AnchorPoint: "Anchor-10" 575.06 1221.58 basechar 0
LayerCount: 2
Fore
SplineSet
1255.85546875 1476.14257812 m 1,0,-1
 1255.19921875 284.251953125 l 2,1,2
 1255 147 1255 147 1246.4765625 31 c 0,3,4
 1226 -229 1226 -229 1104.89648438 -355.258789062 c 0,5,6
 952 -515 952 -515 688.239257812 -516.422851562 c 24,7,8
 107 -521 107 -521 105.329101562 25.630859375 c 0,9,10
 105 245 105 245 195.908203125 437.967773438 c 1,11,-1
 356.430664062 373.432617188 l 1,12,13
 287 199 287 199 287.462890625 33.1259765625 c 0,14,15
 290 -334 290 -334 697.030273438 -330.336914062 c 24,16,17
 1076.10034059 -326.999116478 1076.10034059 -326.999116478 1077.05761719 97.96484375 c 6,18,-1
 1080.16210938 1476.14257812 l 5,19,-1
 1255.85546875 1476.14257812 l 1,0,-1
EndSplineSet
Substitution2: "'fina' Terminal Forms in Arabic lookup 9 subtable" uniFEDE
Substitution2: "'medi' Medial Forms in Arabic lookup 11 subtable" uniFEE0
Substitution2: "'init' Initial Forms in Arabic lookup 13 subtable" uniFEDF
EndChar

StartChar: uni0645
Encoding: 1605 1605 40
GlifName: uni0645
Width: 1237
VWidth: 2454
GlyphClass: 2
Flags: W
AnchorPoint: "Anchor-7" 753.994 -315.441 basechar 0
AnchorPoint: "Anchor-10" 735.558 1325.57 basechar 0
LayerCount: 2
Fore
SplineSet
854.047851562 -19.96484375 m 0,0,1
 729 -19 729 -19 592.131835938 56.0126953125 c 0,2,3
 552 78 552 78 511.3515625 100.84765625 c 0,4,5
 455 132 455 132 416.395507812 131.426757812 c 0,6,7
 288.904296875 129.998928179 288.904296875 129.998928179 288.904296875 -192.80859375 c 2,8,-1
 288.904296875 -676.813476562 l 5,9,-1
 107.961914062 -676.813476562 l 5,10,-1
 107.961914062 -187.211914062 l 2,11,12
 108 281 108 281 382.358398438 323.453125 c 1,13,14
 441 472 441 472 530.7265625 585.606445312 c 0,15,16
 633 714 633 714 784.258789062 713.462890625 c 0,17,18
 945 713 945 713 1033.20996094 584.416015625 c 0,19,20
 1126 448 1126 448 1126.4921875 304.931640625 c 0,21,22
 1127 155 1127 155 1056.92578125 71.166015625 c 0,23,24
 980 -21 980 -21 854.047851562 -19.96484375 c 0,0,1
567.567382812 298.115234375 m 1,25,26
 669 210 669 210 758.293945312 180.88671875 c 0,27,28
 978 107 978 107 963.489257812 297.40625 c 0,29,30
 957 381 957 381 907.194335938 454.319335938 c 24,31,32
 858 527 858 527 785.970703125 527.109375 c 0,33,34
 650 529 650 529 567.567382812 298.115234375 c 1,25,26
EndSplineSet
Substitution2: "'init' Initial Forms in Arabic lookup 13 subtable" uniFEE3
Substitution2: "'medi' Medial Forms in Arabic lookup 11 subtable" uniFEE4
Substitution2: "'fina' Terminal Forms in Arabic lookup 9 subtable" uniFEE2
EndChar

StartChar: uni0647
Encoding: 1607 1607 42
GlifName: uni0647
Width: 961
VWidth: 2762
GlyphClass: 2
Flags: W
AnchorPoint: "Anchor-10" 425.501 1327.31 basechar 0
AnchorPoint: "Anchor-7" 462.717 -213.033 basechar 0
LayerCount: 2
Fore
SplineSet
473.810546875 649.609375 m 1,0,1
 281 480 281 480 281.896484375 352.5234375 c 0,2,3
 283 195 283 195 482.71484375 195.299804688 c 0,4,5
 689 195 689 195 692.084960938 352.165039062 c 0,6,7
 694 474 694 474 473.810546875 649.609375 c 1,0,1
389.22265625 967.423828125 m 1,8,9
 853 631 853 631 860.560546875 351.134765625 c 0,10,11
 866 161 866 161 704.815429688 64.0537109375 c 0,12,13
 607 5 607 5 484.736328125 5.19140625 c 0,14,15
 377 5 377 5 280.215820312 52.916015625 c 0,16,17
 113 136 113 136 113.149902344 340.266113281 c 0,18,19
 114 554 114 554 350.830078125 784.756835938 c 1,20,-1
 290.66796875 835.48046875 l 1,21,-1
 389.22265625 967.423828125 l 1,8,9
EndSplineSet
Substitution2: "'fina' Terminal Forms in Arabic lookup 9 subtable" uniFEEA
Substitution2: "'medi' Medial Forms in Arabic lookup 11 subtable" uniFEEC
Substitution2: "'init' Initial Forms in Arabic lookup 13 subtable" uniFEEB
EndChar

StartChar: uni0648
Encoding: 1608 1608 43
GlifName: uni0648
Width: 899
VWidth: 2762
GlyphClass: 2
Flags: W
AnchorPoint: "Anchor-7" 433.872 -727.41 basechar 0
AnchorPoint: "Anchor-10" 422.58 1284.55 basechar 0
LayerCount: 2
Fore
SplineSet
489.8125 176.9921875 m 4,0,1
 550 178 550 178 623.009765625 198.650390625 c 5,2,3
 588.115234375 553.826171875 588.115234375 553.826171875 417.263671875 547.69921875 c 4,4,5
 342 545 342 545 300.814453125 425 c 4,6,7
 280 362 280 362 276.818359375 311.333007812 c 4,8,9
 269 173 269 173 489.8125 176.9921875 c 4,0,1
746.736328125 -144 m 4,10,11
 695 -266 695 -266 587.0546875 -355.055664062 c 4,12,13
 434 -482 434 -482 118 -515.091796875 c 5,14,-1
 85.37890625 -337.720703125 l 5,15,16
 549 -298 549 -298 623.499023438 11.28515625 c 5,17,-1
 589 7 l 6,18,19
 100 -54 100 -54 105.950195312 301.83203125 c 4,20,21
 108 417 108 417 156.859375 533.122070312 c 4,22,23
 242 733 242 733 419.556640625 738.916015625 c 4,24,25
 636 746 636 746 734.973632812 488 c 4,26,27
 797 326 797 326 796.446289062 126 c 4,28,29
 796 -28 796 -28 746.736328125 -144 c 4,10,11
EndSplineSet
Substitution2: "'fina' Terminal Forms in Arabic lookup 9 subtable" uniFEEE
EndChar

StartChar: uni0649
Encoding: 1609 1609 44
GlifName: uni0649
Width: 1491
VWidth: 2762
GlyphClass: 2
Flags: W
AnchorPoint: "Anchor-7" 555.969 -779.127 basechar 0
AnchorPoint: "Anchor-10" 685.23 1276.72 basechar 0
LayerCount: 2
Fore
SplineSet
737.030273438 -330.336914062 m 24,0,1
 971 -327 971 -327 1106.69628906 -222.877929688 c 0,2,3
 1216 -139 1216 -139 1221.59667969 -36.2998046875 c 0,4,5
 1224 6 1224 6 1185.53417969 22.5048828125 c 0,6,7
 1157.76415125 34.6653781694 1157.76415125 34.6653781694 1128.31738281 34.8330078125 c 2,8,-1
 1016.98242188 35.466796875 l 2,9,10
 818 37 818 37 819.217773438 218.78515625 c 0,11,12
 820 394 820 394 952.596679688 541.631835938 c 0,13,14
 1117 726 1117 726 1390.87207031 727.579101562 c 1,15,-1
 1376.58984375 538.262695312 l 1,16,17
 1066 516 1066 516 999.454101562 222.982421875 c 1,18,-1
 1152.44433594 223.255859375 l 1,19,20
 1391.10502754 222.596109634 1391.10502754 222.596109634 1390.86914062 10.1376953125 c 0,21,22
 1391 -232 1391 -232 1205.89648438 -378.864257812 c 0,23,24
 1039 -512 1039 -512 728.239257812 -516.422851562 c 24,25,26
 117 -525 117 -525 115.329101562 45.630859375 c 0,27,28
 115 266 115 266 236.275390625 521.267578125 c 1,29,-1
 396.798828125 456.731445312 l 1,30,31
 297 206 297 206 297.462890625 53.1259765625 c 0,32,33
 300 -337 300 -337 737.030273438 -330.336914062 c 24,0,1
EndSplineSet
Substitution2: "'fina' Terminal Forms in Arabic lookup 9 subtable" uniFEF0
Substitution2: "'medi' Medial Forms in Arabic lookup 11 subtable" uniFBE9
Substitution2: "'init' Initial Forms in Arabic lookup 13 subtable" uniFBE8
EndChar

StartChar: uni064B
Encoding: 1611 1611 46
GlifName: uni064B_
Width: -29
VWidth: 2574
GlyphClass: 4
Flags: W
AnchorPoint: "Anchor-10" 681.723 1237.39 mark 0
AnchorPoint: "Anchor-9" 681.723 1237.39 mark 0
AnchorPoint: "Anchor-1" 636.984 1851.39 basemark 0
AnchorPoint: "Anchor-1" 681.723 1237.39 mark 0
LayerCount: 2
Fore
SplineSet
363 1196 m 1,0,-1
 363 1311.0859375 l 1,1,-1
 869 1518.08691406 l 1,2,-1
 869 1403 l 1,3,-1
 363 1196 l 1,0,-1
363 1476 m 1,4,-1
 363 1591.0859375 l 1,5,-1
 869 1798.08691406 l 1,6,-1
 869 1683 l 1,7,-1
 363 1476 l 1,4,-1
EndSplineSet
EndChar

StartChar: uni064C
Encoding: 1612 1612 47
GlifName: uni064C_
Width: -29
VWidth: 2574
GlyphClass: 4
Flags: W
AnchorPoint: "Anchor-10" 756.562 1354.08 mark 0
AnchorPoint: "Anchor-9" 756.562 1354.08 mark 0
AnchorPoint: "Anchor-1" 635.266 2128.29 basemark 0
AnchorPoint: "Anchor-1" 756.562 1354.08 mark 0
LayerCount: 2
Fore
SplineSet
729.96875 1938.13964844 m 0,0,1
 630.79296875 1938.13964844 630.79296875 1938.13964844 630.79296875 1848.9921875 c 0,2,3
 630.79296875 1784.66113281 630.79296875 1784.66113281 703.98046875 1755.38378906 c 0,4,5
 730.125 1744.92773438 730.125 1744.92773438 782.985351562 1728.64941406 c 2,6,-1
 786.421875 1727.59179688 l 1,7,-1
 803.198242188 1766.73339844 l 2,8,9
 809.958007812 1782.50585938 809.958007812 1782.50585938 813.313476562 1801.58984375 c 128,-1,10
 816.668945312 1820.67382812 816.668945312 1820.67382812 816.668945312 1843.07617188 c 0,11,12
 816.668945312 1865.88085938 816.668945312 1865.88085938 809.151367188 1883.65722656 c 128,-1,13
 801.633789062 1901.43457031 801.633789062 1901.43457031 786.594726562 1913.81738281 c 0,14,15
 776.850585938 1921.84082031 776.850585938 1921.84082031 767.379882812 1927.22265625 c 128,-1,16
 757.909179688 1932.60449219 757.909179688 1932.60449219 748.504882812 1935.37207031 c 128,-1,17
 739.100585938 1938.13964844 739.100585938 1938.13964844 729.96875 1938.13964844 c 0,0,1
354.217773438 1682.75488281 m 1,18,19
 358.578125 1431.15625 358.578125 1431.15625 502.819335938 1432.52832031 c 0,20,21
 581.858398438 1432.79785156 581.858398438 1432.79785156 667.229492188 1515.66796875 c 0,22,23
 716.48046875 1562.86035156 716.48046875 1562.86035156 745.6875 1621.28417969 c 2,24,-1
 760.69921875 1651.31542969 l 1,25,-1
 727.822265625 1658.29199219 l 2,26,27
 615.352539062 1681.55859375 615.352539062 1681.55859375 575.893554688 1735.61230469 c 128,-1,28
 536.313476562 1789.83398438 536.313476562 1789.83398438 536.846679688 1828.31347656 c 0,29,30
 538.022460938 1913.203125 538.022460938 1913.203125 571.094726562 1961.1953125 c 128,-1,31
 604.166015625 2009.18652344 604.166015625 2009.18652344 669.393554688 2021.52050781 c 0,32,33
 679.442382812 2023.42089844 679.442382812 2023.42089844 690.173828125 2024.34960938 c 128,-1,34
 700.905273438 2025.27832031 700.905273438 2025.27832031 712.416015625 2025.23730469 c 0,35,36
 756.076171875 2025.40039062 756.076171875 2025.40039062 790.73046875 2012.77832031 c 128,-1,37
 825.384765625 2000.15527344 825.384765625 2000.15527344 851.32421875 1974.75585938 c 0,38,39
 903.1953125 1923.96679688 903.1953125 1923.96679688 903.767578125 1833.75488281 c 0,40,41
 904.282226562 1790.15136719 904.282226562 1790.15136719 889.806640625 1744.33007812 c 2,42,-1
 879.706054688 1712.35449219 l 1,43,-1
 913.185546875 1710.59667969 l 2,44,45
 926.118164062 1709.89160156 926.118164062 1709.89160156 942.592773438 1709.32714844 c 128,-1,46
 959.06640625 1708.76269531 959.06640625 1708.76269531 978.330078125 1708.35546875 c 1,47,-1
 978.330078125 1621.12109375 l 1,48,49
 937.127929688 1621.89648438 937.127929688 1621.89648438 922.100585938 1623.34082031 c 2,50,-1
 837.465820312 1631.47851562 l 1,51,-1
 836.3203125 1628.77734375 l 2,52,53
 789.852539062 1519.18945312 789.852539062 1519.18945312 690.935546875 1432.17773438 c 0,54,55
 592.465820312 1345.56152344 592.465820312 1345.56152344 515.200195312 1345.515625 c 0,56,57
 298.265625 1345.38769531 298.265625 1345.38769531 292.385742188 1682.75488281 c 1,58,-1
 354.217773438 1682.75488281 l 1,18,19
EndSplineSet
EndChar

StartChar: uni064D
Encoding: 1613 1613 48
GlifName: uni064D_
Width: -29
VWidth: 2574
GlyphClass: 4
Flags: W
AnchorPoint: "Anchor-7" 618.087 68.5674 mark 0
AnchorPoint: "Anchor-6" 618.087 68.5674 mark 0
AnchorPoint: "Anchor-0" 657.803 -496.695 basemark 0
AnchorPoint: "Anchor-0" 618.087 68.5674 mark 0
LayerCount: 2
Fore
SplineSet
369 -540 m 5,0,-1
 369 -424.9140625 l 5,1,-1
 875 -217.913085938 l 5,2,-1
 875 -333 l 5,3,-1
 369 -540 l 5,0,-1
369 -260 m 5,4,-1
 369 -144.9140625 l 5,5,-1
 875 62.0869140625 l 5,6,-1
 875 -53 l 5,7,-1
 369 -260 l 5,4,-1
EndSplineSet
EndChar

StartChar: uni064E
Encoding: 1614 1614 49
GlifName: uni064E_
Width: -29
VWidth: 2574
GlyphClass: 4
Flags: W
AnchorPoint: "Anchor-10" 646.289 1516.26 mark 0
AnchorPoint: "Anchor-9" 646.289 1516.26 mark 0
AnchorPoint: "Anchor-1" 601.551 1879.74 basemark 0
AnchorPoint: "Anchor-1" 646.289 1516.26 mark 0
LayerCount: 2
Fore
SplineSet
329 1499 m 5,0,-1
 329 1614.0859375 l 5,1,-1
 835 1821.08691406 l 5,2,-1
 835 1706 l 5,3,-1
 329 1499 l 5,0,-1
EndSplineSet
EndChar

StartChar: uni064F
Encoding: 1615 1615 50
GlifName: uni064F_
Width: -29
VWidth: 2574
GlyphClass: 4
Flags: W
AnchorPoint: "Anchor-10" 688.55 1426.63 mark 0
AnchorPoint: "Anchor-9" 688.55 1426.63 mark 0
AnchorPoint: "Anchor-1" 611.26 2144.89 basemark 0
AnchorPoint: "Anchor-1" 688.55 1426.63 mark 0
LayerCount: 2
Fore
SplineSet
914.057617188 1637.78027344 m 1,0,1
 883 1638 883 1638 847.732421875 1640.84863281 c 0,2,3
 781 1647 781 1647 771.97265625 1647.61132812 c 2,4,-1
 769.647460938 1647.859375 l 1,5,-1
 768.291015625 1645.95605469 l 2,6,7
 668 1505 668 1505 492.578125 1449.90234375 c 0,8,9
 426 1429 426 1429 353.971679688 1425.19042969 c 1,10,-1
 353.971679688 1512.13964844 l 1,11,12
 526.078274852 1520.00357655 526.078274852 1520.00357655 641.672851562 1641.76171875 c 2,13,-1
 673.229492188 1675.00097656 l 1,14,15
 622 1686 622 1686 579.48046875 1708.26855469 c 0,16,17
 528 1735 528 1735 502.55859375 1773.26855469 c 0,18,19
 474 1817 474 1817 478.055664062 1872.83691406 c 0,20,21
 483 1937 483 1937 518 1980.90039062 c 0,22,23
 567 2040 567 2040 658.856445312 2042.17773438 c 0,24,25
 694 2043 694 2043 728.987304688 2029.27636719 c 0,26,27
 800 2000 800 2000 826.376953125 1930.22070312 c 0,28,29
 841 1891 841 1891 839.495117188 1850.4453125 c 0,30,31
 839 1832 839 1832 835.334960938 1809.72753906 c 0,32,33
 830.236583673 1784.17363148 830.236583673 1784.17363148 822.973632812 1760.83300781 c 2,34,-1
 813.119140625 1729.1640625 l 1,35,-1
 846.240234375 1727.20605469 l 2,36,37
 884 1725 884 1725 914.057617188 1724.7578125 c 1,38,-1
 914.057617188 1637.78027344 l 1,0,1
722.1484375 1744.20019531 m 1,39,-1
 729 1760 l 2,40,41
 752 1813 752 1813 752.397460938 1859.68554688 c 0,42,43
 752 1906 752 1906 722.318359375 1930.42382812 c 0,44,45
 695 1953 695 1953 655.490234375 1952.74609375 c 0,46,47
 610 1953 610 1953 586 1921 c 4,48,49
 566 1894 566 1894 566.520507812 1857.80761719 c 0,50,51
 567 1801 567 1801 639.708984375 1771.98925781 c 0,52,53
 665.234294876 1761.71099548 665.234294876 1761.71099548 718.7109375 1745.2578125 c 2,54,-1
 722.1484375 1744.20019531 l 1,39,-1
EndSplineSet
EndChar

StartChar: uni0650
Encoding: 1616 1616 51
GlifName: uni0650
Width: -29
VWidth: 2574
GlyphClass: 4
Flags: W
AnchorPoint: "Anchor-7" 634.604 -24.249 mark 0
AnchorPoint: "Anchor-6" 634.604 -24.249 mark 0
AnchorPoint: "Anchor-0" 687.879 -371.804 basemark 0
AnchorPoint: "Anchor-0" 634.604 -24.249 mark 0
LayerCount: 2
Fore
SplineSet
381 -384 m 1,0,-1
 381 -268.9140625 l 1,1,-1
 887 -61.9130859375 l 1,2,-1
 887 -177 l 1,3,-1
 381 -384 l 1,0,-1
EndSplineSet
EndChar

StartChar: uni0651
Encoding: 1617 1617 52
GlifName: uni0651
Width: -29
VWidth: 2659
GlyphClass: 4
Flags: W
AnchorPoint: "Anchor-10" 665.334 1626.35 mark 0
AnchorPoint: "Anchor-9" 665.334 1626.35 mark 0
AnchorPoint: "Anchor-1" 633.43 2074.56 basemark 0
AnchorPoint: "Anchor-1" 665.334 1626.35 mark 0
LayerCount: 2
Fore
SplineSet
676.024414062 1984.95898438 m 1,0,1
 678 1939 678 1939 678.469726562 1893.22460938 c 0,2,3
 678 1771 678 1771 771.876953125 1771.390625 c 0,4,5
 860 1772 860 1772 860.696289062 1883.52148438 c 0,6,7
 861 1946 861 1946 842.325195312 2034.34375 c 1,8,-1
 940.1875 2049.84375 l 1,9,10
 960 1981 960 1981 959.474609375 1894.48925781 c 0,11,12
 960 1670 960 1670 777.108398438 1668.51757812 c 0,13,14
 684 1668 684 1668 652.75390625 1739.07421875 c 1,15,16
 616 1598 616 1598 479.983398438 1597.65527344 c 0,17,18
 305 1598 305 1598 328.4140625 1831.70996094 c 0,19,20
 332 1868 332 1868 341.198242188 1926.37890625 c 1,21,-1
 428.213867188 1911.91210938 l 1,22,23
 417 1860 417 1860 417.307617188 1799.59277344 c 0,24,25
 418 1706 418 1706 492.954101562 1706.55761719 c 0,26,27
 584 1706 584 1706 588.833984375 1832.46191406 c 0,28,29
 591 1893 591 1893 590.106445312 1984.95898438 c 1,30,-1
 676.024414062 1984.95898438 l 1,0,1
EndSplineSet
EndChar

StartChar: uni0652
Encoding: 1618 1618 53
GlifName: uni0652
Width: -29
VWidth: 2574
GlyphClass: 4
Flags: W
AnchorPoint: "Anchor-10" 670.243 1358.26 mark 0
AnchorPoint: "Anchor-9" 670.243 1358.26 mark 0
AnchorPoint: "Anchor-1" 641.708 1999.62 basemark 0
AnchorPoint: "Anchor-1" 670.243 1358.26 mark 0
LayerCount: 2
Fore
SplineSet
442.376953125 1624.08007812 m 132,-1,1
 442.376953125 1715.08007812 442.376953125 1715.08007812 505.376953125 1778.08007812 c 132,-1,2
 568.376953125 1841.08007812 568.376953125 1841.08007812 659.376953125 1841.08007812 c 132,-1,3
 750.376953125 1841.08007812 750.376953125 1841.08007812 813.376953125 1778.08007812 c 132,-1,4
 876.376953125 1715.08007812 876.376953125 1715.08007812 876.376953125 1624.08007812 c 132,-1,5
 876.376953125 1533.08007812 876.376953125 1533.08007812 813.376953125 1470.08007812 c 132,-1,6
 750.376953125 1407.08007812 750.376953125 1407.08007812 659.376953125 1407.08007812 c 132,-1,7
 568.376953125 1407.08007812 568.376953125 1407.08007812 505.376953125 1470.08007812 c 132,-1,0
 442.376953125 1533.08007812 442.376953125 1533.08007812 442.376953125 1624.08007812 c 132,-1,1
535.376953125 1624.08007812 m 128,-1,9
 535.376953125 1572.08007812 535.376953125 1572.08007812 571.376953125 1536.08007812 c 128,-1,10
 607.376953125 1500.08007812 607.376953125 1500.08007812 659.376953125 1500.08007812 c 128,-1,11
 711.376953125 1500.08007812 711.376953125 1500.08007812 747.376953125 1536.08007812 c 128,-1,12
 783.376953125 1572.08007812 783.376953125 1572.08007812 783.376953125 1624.08007812 c 128,-1,13
 783.376953125 1676.08007812 783.376953125 1676.08007812 747.376953125 1712.08007812 c 128,-1,14
 711.376953125 1748.08007812 711.376953125 1748.08007812 659.376953125 1748.08007812 c 128,-1,15
 607.376953125 1748.08007812 607.376953125 1748.08007812 571.376953125 1712.08007812 c 128,-1,8
 535.376953125 1676.08007812 535.376953125 1676.08007812 535.376953125 1624.08007812 c 128,-1,9
EndSplineSet
EndChar

StartChar: uni0653
Encoding: 1619 1619 54
GlifName: uni0653
Width: -30
VWidth: 2673
GlyphClass: 4
Flags: W
AnchorPoint: "Anchor-10" 461.017 1539.11 mark 0
AnchorPoint: "Anchor-9" 461.017 1539.11 mark 0
AnchorPoint: "Anchor-1" 461.017 1975.25 basemark 0
AnchorPoint: "Anchor-1" 461.017 1539.11 mark 0
LayerCount: 2
Fore
SplineSet
400.348632812 1636.8046875 m 6,0,1
 289.097070302 1652.11547185 289.097070302 1652.11547185 197.061523438 1542.6328125 c 5,2,-1
 95.6953125 1649.29980469 l 5,3,4
 214.313143403 1819.44918336 214.313143403 1819.44918336 383.756835938 1792.15820312 c 6,5,-1
 532.506835938 1768.20019531 l 2,6,7
 630 1752 630 1752 752.004882812 1813.74121094 c 1,8,-1
 817.659179688 1677.28320312 l 1,9,10
 689.104504566 1597.06521075 689.104504566 1597.06521075 540.869140625 1617.46582031 c 2,11,-1
 400.348632812 1636.8046875 l 6,0,1
EndSplineSet
EndChar

StartChar: uni0657
Encoding: 1623 1623 57
GlifName: uni0657
Width: -29
VWidth: 2574
GlyphClass: 4
Flags: W
AnchorPoint: "Anchor-10" 636.984 1500.61 mark 0
AnchorPoint: "Anchor-9" 636.984 1500.61 mark 0
AnchorPoint: "Anchor-1" 636.984 2322.06 basemark 0
AnchorPoint: "Anchor-1" 636.984 1500.61 mark 0
LayerCount: 2
Fore
SplineSet
293.921875 2005.17871094 m 1,0,1
 355.286132812 2003.85742188 355.286132812 2003.85742188 436.0234375 1995.36035156 c 2,2,-1
 438.36328125 1995.11328125 l 1,3,-1
 439.715820312 1997.03808594 l 2,4,5
 498.521484375 2080.7421875 498.521484375 2080.7421875 581.063476562 2130.59570312 c 0,6,7
 775.193359375 2249.32519531 775.193359375 2249.32519531 871.860351562 2258.5703125 c 1,8,-1
 871.860351562 2171.76855469 l 1,9,10
 854.09375 2170.62792969 854.09375 2170.62792969 835.380859375 2166.53613281 c 128,-1,11
 816.66796875 2162.44335938 816.66796875 2162.44335938 796.9609375 2155.38085938 c 128,-1,12
 777.25390625 2148.31738281 777.25390625 2148.31738281 756.5625 2138.34570312 c 128,-1,13
 735.87109375 2128.375 735.87109375 2128.375 714.022460938 2115.39453125 c 128,-1,14
 692.174804688 2102.41503906 692.174804688 2102.41503906 669.3125 2086.57519531 c 128,-1,15
 646.44921875 2070.73535156 646.44921875 2070.73535156 622.276367188 2051.85449219 c 0,16,17
 612.19140625 2044.04980469 612.19140625 2044.04980469 602.612304688 2035.82226562 c 128,-1,18
 593.033203125 2027.59570312 593.033203125 2027.59570312 583.965820312 2018.95117188 c 128,-1,19
 574.897460938 2010.30664062 574.897460938 2010.30664062 566.34765625 2001.25097656 c 2,20,-1
 534.754882812 1967.99023438 l 1,21,-1
 579.684570312 1957.9921875 l 2,22,23
 594.239257812 1955.51171875 594.239257812 1955.51171875 610.462890625 1947.55175781 c 128,-1,24
 626.6875 1939.59082031 626.6875 1939.59082031 644.567382812 1926.0859375 c 0,25,26
 730.833984375 1860.92675781 730.833984375 1860.92675781 731.084960938 1787.63476562 c 0,27,28
 731.012695312 1692.8984375 731.012695312 1692.8984375 685.842773438 1646.59179688 c 128,-1,29
 640.672851562 1600.28515625 640.672851562 1600.28515625 549.287109375 1601.12597656 c 0,30,31
 473.365234375 1601.61816406 473.365234375 1601.61816406 420.776367188 1652.3984375 c 0,32,33
 368.510742188 1703.22949219 368.510742188 1703.22949219 368.484375 1792.53222656 c 0,34,35
 368.51171875 1829.12207031 368.51171875 1829.12207031 385.004882812 1882.13671875 c 2,36,-1
 394.858398438 1913.80566406 l 1,37,-1
 361.743164062 1915.76269531 l 2,38,39
 325.485351562 1917.90429688 325.485351562 1917.90429688 293.921875 1918.19628906 c 1,40,-1
 293.921875 2005.17871094 l 1,0,1
537.047851562 1688.22460938 m 0,41,42
 641.458984375 1688.22460938 641.458984375 1688.22460938 641.458984375 1777.37109375 c 0,43,44
 641.458984375 1809.46679688 641.458984375 1809.46679688 622.973632812 1832.97949219 c 128,-1,45
 604.487304688 1856.4921875 604.487304688 1856.4921875 568.2734375 1870.97851562 c 0,46,47
 542.20703125 1881.41113281 542.20703125 1881.41113281 489.268554688 1897.71386719 c 2,48,-1
 485.83203125 1898.77148438 l 1,49,-1
 469.0546875 1859.63183594 l 2,50,51
 455.58203125 1828.19726562 455.58203125 1828.19726562 455.58203125 1783.29394531 c 0,52,53
 455.58203125 1760.49316406 455.58203125 1760.49316406 463.099609375 1742.71679688 c 128,-1,54
 470.6171875 1724.94042969 470.6171875 1724.94042969 485.655273438 1712.55371094 c 0,55,56
 500.321289062 1700.47460938 500.321289062 1700.47460938 513.091796875 1694.34960938 c 128,-1,57
 525.86328125 1688.22460938 525.86328125 1688.22460938 537.047851562 1688.22460938 c 0,41,42
EndSplineSet
EndChar

StartChar: uni065A
Encoding: 1626 1626 58
GlifName: uni065A_
Width: 1262
VWidth: 2574
GlyphClass: 4
Flags: W
AnchorPoint: "Anchor-10" 636.984 1500.61 mark 0
AnchorPoint: "Anchor-9" 636.984 1500.61 mark 0
AnchorPoint: "Anchor-1" 634.457 2069.31 basemark 0
AnchorPoint: "Anchor-1" 636.984 1500.61 mark 0
LayerCount: 2
Fore
SplineSet
558.185546875 1604.91699219 m 1,0,-1
 342.8046875 1964.98925781 l 1,1,-1
 458.802734375 1964.98925781 l 1,2,-1
 636.983398438 1697.7109375 l 1,3,-1
 815.165039062 1964.98925781 l 1,4,-1
 931.1640625 1964.98925781 l 1,5,-1
 715.780273438 1604.91699219 l 1,6,-1
 558.185546875 1604.91699219 l 1,0,-1
EndSplineSet
EndChar

StartChar: afii57392
Encoding: 1632 1632 59
GlifName: afii57392
Width: 1104
VWidth: 2762
GlyphClass: 2
Flags: W
LayerCount: 2
Fore
SplineSet
469.27734375 708.346679688 m 132,-1,1
 431.41796875 670.489257812 431.41796875 670.489257812 431.41796875 617.55859375 c 4,2,3
 431.41796875 591.176757812 431.41796875 591.176757812 440.916015625 568.405273438 c 132,-1,4
 450.4140625 545.634765625 450.4140625 545.634765625 469.27734375 526.771484375 c 4,5,6
 507.143554688 488.90234375 507.143554688 488.90234375 560.041015625 489.146484375 c 4,7,8
 573.23046875 489.0859375 573.23046875 489.0859375 585.5390625 491.419921875 c 132,-1,9
 597.846679688 493.754882812 597.846679688 493.754882812 609.211914062 498.465820312 c 132,-1,10
 620.577148438 503.17578125 620.577148438 503.17578125 631 510.258789062 c 132,-1,11
 641.423828125 517.341796875 641.423828125 517.341796875 650.8515625 526.771484375 c 4,12,13
 688.7109375 564.629882812 688.7109375 564.629882812 688.7109375 617.557617188 c 132,-1,14
 688.7109375 670.487304688 688.7109375 670.487304688 650.8515625 708.346679688 c 132,-1,15
 612.9921875 746.20703125 612.9921875 746.20703125 560.064453125 746.20703125 c 132,-1,0
 507.135742188 746.20703125 507.135742188 746.20703125 469.27734375 708.346679688 c 132,-1,1
343.111328125 830.190429688 m 132,-1,17
 431.399414062 918.477539062 431.399414062 918.477539062 554.754882812 918.477539062 c 132,-1,18
 678.110351562 918.477539062 678.110351562 918.477539062 766.397460938 830.190429688 c 132,-1,19
 854.685546875 741.901367188 854.685546875 741.901367188 854.685546875 618.545898438 c 132,-1,20
 854.685546875 495.19140625 854.685546875 495.19140625 766.397460938 406.903320312 c 132,-1,21
 678.120117188 318.624023438 678.120117188 318.624023438 554.725585938 319.189453125 c 4,22,23
 431.390625 318.624023438 431.390625 318.624023438 343.111328125 406.903320312 c 132,-1,24
 254.827148438 495.188476562 254.827148438 495.188476562 254.827148438 618.546875 c 132,-1,16
 254.827148438 741.905273438 254.827148438 741.905273438 343.111328125 830.190429688 c 132,-1,17
EndSplineSet
EndChar

StartChar: afii57393
Encoding: 1633 1633 60
GlifName: afii57393
Width: 755
VWidth: 2762
GlyphClass: 2
Flags: W
LayerCount: 2
Fore
SplineSet
301.158203125 1449.04101562 m 1,0,1
 542 854 542 854 562.741210938 10.7880859375 c 5,2,-1
 381.106445312 10.7880859375 l 5,3,4
 363 808 363 808 133.454101562 1391.66894531 c 1,5,-1
 301.158203125 1449.04101562 l 1,0,1
EndSplineSet
EndChar

StartChar: afii57394
Encoding: 1634 1634 61
GlifName: afii57394
Width: 1204
VWidth: 2762
GlyphClass: 2
Flags: W
LayerCount: 2
Fore
SplineSet
398.106445312 1179.52441406 m 0,0,1
 471 975 471 975 670.401367188 974.78125 c 0,2,3
 896 974 896 974 903.301757812 1437.18164062 c 1,4,-1
 1080.62304688 1436.63574219 l 1,5,6
 1080 792 1080 792 666.502929688 790.536132812 c 0,7,8
 559 790 559 790 484 839 c 5,9,10
 551 526 551 526 562.743164062 10.7880859375 c 1,11,-1
 381.106445312 10.7880859375 l 1,12,13
 363 808 363 808 133.454101562 1391.66894531 c 1,14,-1
 300.96875 1448.9765625 l 1,15,16
 323 1393 323 1393 398.106445312 1179.52441406 c 0,0,1
EndSplineSet
EndChar

StartChar: afii57395
Encoding: 1635 1635 62
GlifName: afii57395
Width: 1462
VWidth: 2762
GlyphClass: 2
Flags: W
LayerCount: 2
Fore
SplineSet
481.04296875 845.336914062 m 1,0,1
 552 510 552 510 562.741210938 10.7880859375 c 1,2,-1
 381.106445312 10.7880859375 l 1,3,4
 363 808 363 808 133.454101562 1391.66894531 c 1,5,-1
 300.946289062 1448.96875 l 1,6,7
 320 1398 320 1398 405.23046875 1160.92285156 c 0,8,9
 466 990 466 990 604.157226562 989.579101562 c 0,10,11
 703.960716261 989.000227851 703.960716261 989.000227851 715.463867188 1156 c 2,12,-1
 731.756835938 1392.53710938 l 1,13,-1
 888.182617188 1392.53710938 l 1,14,-1
 903.600585938 1153.84179688 l 2,15,16
 915 984 915 984 1043.04492188 983.28515625 c 0,17,18
 1176.79239348 983.000441941 1176.79239348 983.000441941 1185.13085938 1320 c 2,19,-1
 1188.41308594 1452.65136719 l 1,20,-1
 1362.9921875 1452.81347656 l 1,21,-1
 1362.43066406 1326.00292969 l 2,22,23
 1360 789 1360 789 1048.70214844 792.981445312 c 0,24,25
 903 795 903 795 820.961914062 899.671875 c 1,26,27
 739 800 739 800 627 802.026433993 c 0,28,29
 532 804 532 804 481.04296875 845.336914062 c 1,0,1
EndSplineSet
EndChar

StartChar: afii57396
Encoding: 1636 1636 63
GlifName: afii57396
Width: 1135
VWidth: 2762
GlyphClass: 2
Flags: W
LayerCount: 2
Fore
SplineSet
129.995117188 325.158203125 m 0,0,1
 122 555 122 555 529.065429688 763.263671875 c 5,2,3
 219 804 219 804 218.185546875 1064.59375 c 4,4,5
 218 1445 218 1445 776.734375 1439.45996094 c 5,6,-1
 776.734375 1252.00195312 l 5,7,8
 417 1238 417 1238 417.4921875 1058.53710938 c 4,9,10
 417 875 417 875 814.853515625 871.309570312 c 5,11,-1
 817.063476562 693.477539062 l 5,12,13
 315 491 315 491 322.716796875 332.107421875 c 0,14,15
 329.976592854 191.453498538 329.976592854 191.453498538 662.317382812 192.588867188 c 2,16,-1
 1004.77246094 193.758789062 l 1,17,-1
 1006.95019531 0.009765625 l 1,18,-1
 616.870117188 0.4375 l 2,19,20
 140 1 140 1 129.995117188 325.158203125 c 0,0,1
EndSplineSet
EndChar

StartChar: afii57397
Encoding: 1637 1637 64
GlifName: afii57397
Width: 1288
VWidth: 2762
GlyphClass: 2
Flags: W
LayerCount: 2
Fore
SplineSet
622.137695312 1131.38769531 m 2,0,1
 318.265625 837.11328125 318.265625 837.11328125 318.217773438 553.42578125 c 0,2,3
 318.265625 220.099609375 318.265625 220.099609375 669.034179688 221.014648438 c 0,4,5
 991.997070312 222.166015625 991.997070312 222.166015625 991.495117188 544.022460938 c 0,6,7
 990.96484375 854.2578125 990.96484375 854.2578125 627.520507812 1131.70410156 c 2,8,-1
 624.693359375 1133.86230469 l 1,9,-1
 622.137695312 1131.38769531 l 2,0,1
427.848632812 1288.56152344 m 1,10,-1
 530.625976562 1444.28320312 l 1,11,12
 1158.36328125 1043.66308594 1158.36328125 1043.66308594 1158.96289062 538.52734375 c 0,13,14
 1159.39648438 315.166015625 1159.39648438 315.166015625 1052.39550781 201.884765625 c 0,15,16
 905.197265625 46.5 905.197265625 46.5 662.147460938 47.16015625 c 0,17,18
 530.098632812 47.533203125 530.098632812 47.533203125 443.298828125 78.533203125 c 128,-1,19
 356.499023438 109.533203125 356.499023438 109.533203125 284.559570312 172.379882812 c 0,20,21
 212.866210938 234.565429688 212.866210938 234.565429688 169.780273438 328.616210938 c 0,22,23
 129.166015625 417.46484375 129.166015625 417.46484375 130.26171875 527.541015625 c 0,24,25
 133.298828125 901.9921875 133.298828125 901.9921875 483.290039062 1248.19335938 c 2,26,-1
 487.017578125 1251.87988281 l 1,27,-1
 427.848632812 1288.56152344 l 1,10,-1
EndSplineSet
EndChar

StartChar: afii57398
Encoding: 1638 1638 65
GlifName: afii57398
Width: 1376
VWidth: 2762
GlyphClass: 2
Flags: W
LayerCount: 2
Fore
SplineSet
861.935546875 1216.81347656 m 2,0,1
 775.725585938 1191.4296875 775.725585938 1191.4296875 494.56640625 1191.45703125 c 0,2,3
 253.166015625 1191.4296875 253.166015625 1191.4296875 75.935546875 1241.22265625 c 1,4,-1
 75.935546875 1448.07421875 l 1,5,6
 307.932617188 1388.79589844 307.932617188 1388.79589844 542.66796875 1389.12109375 c 0,7,8
 770.864257812 1389.82910156 770.864257812 1389.82910156 1036.35742188 1449.37988281 c 1,9,10
 1060.19628906 600.364257812 1060.19628906 600.364257812 1244 10.7880859375 c 1,11,-1
 1052.95214844 10.7880859375 l 1,12,13
 873.409715936 714.920537356 873.409715936 714.920537356 867.236328125 1212.90039062 c 6,14,-1
 867.168945312 1218.35449219 l 1,15,-1
 861.935546875 1216.81347656 l 2,0,1
EndSplineSet
EndChar

StartChar: afii57399
Encoding: 1639 1639 66
GlifName: afii57399
Width: 1303
VWidth: 2762
GlyphClass: 2
Flags: W
LayerCount: 2
Fore
SplineSet
651.19921875 334.170898438 m 1,0,1
 764 888 764 888 1036.71289062 1449.26464844 c 5,2,-1
 1192.76269531 1365.02929688 l 5,3,4
 902 785 902 785 733.3203125 10.7880859375 c 1,5,-1
 569.078125 10.7880859375 l 1,6,7
 400 785 400 785 109.635742188 1365.02929688 c 1,8,-1
 265.685546875 1449.26464844 l 1,9,10
 538 889 538 889 651.19921875 334.170898438 c 1,0,1
EndSplineSet
EndChar

StartChar: afii57400
Encoding: 1640 1640 67
GlifName: afii57400
Width: 1303
VWidth: 2762
GlyphClass: 2
Flags: W
LayerCount: 2
Fore
SplineSet
651.19921875 1125.88183594 m 1,0,1
 538 571 538 571 265.685546875 10.7880859375 c 1,2,-1
 109.635742188 95.0244140625 l 1,3,4
 400 675 400 675 569.078125 1449.26464844 c 1,5,-1
 733.3203125 1449.26464844 l 1,6,7
 902 674 902 674 1192.76269531 95.0244140625 c 5,8,-1
 1036.71289062 10.7880859375 l 5,9,10
 764 572 764 572 651.19921875 1125.88183594 c 1,0,1
EndSplineSet
EndChar

StartChar: afii57401
Encoding: 1641 1641 68
GlifName: afii57401
Width: 1266
VWidth: 2762
GlyphClass: 2
Flags: W
LayerCount: 2
Fore
SplineSet
821.770507812 676.448242188 m 1,0,1
 670 651 670 651 555.198242188 651.393554688 c 0,2,3
 324 651 324 651 213.149414062 771.815429688 c 0,4,5
 134 858 134 858 133.81640625 983.26953125 c 0,6,7
 133 1202 133 1202 265.288085938 1335.65136719 c 0,8,9
 379 1450 379 1450 535 1451.82421875 c 0,10,11
 548 1452 548 1452 560 1452.4081863 c 0,12,13
 611 1452 611 1452 656.374016701 1443 c 0,14,15
 946.62853681 1380.37470642 946.62853681 1380.37470642 966.373046875 981.509765625 c 0,16,17
 1002 282 1002 282 1075.23632812 10.7880859375 c 1,18,-1
 893.185546875 10.7880859375 l 1,19,20
 845 193 845 193 821.770507812 676.448242188 c 1,0,1
804.609375 860.111328125 m 1,21,-1
 796.657226562 934.19921875 l 2,22,23
 761 1262 761 1262 563.712890625 1263.29785156 c 0,24,25
 462 1264 462 1264 390.399414062 1195.12695312 c 0,26,27
 307 1114 307 1114 306.798828125 992.40625 c 4,28,29
 307 835 307 835 550.03125 834.326171875 c 0,30,31
 657 834 657 834 804.609375 860.111328125 c 1,21,-1
EndSplineSet
EndChar

StartChar: afii57381
Encoding: 1642 1642 69
GlifName: afii57381
Width: 1269
VWidth: 3776
GlyphClass: 2
Flags: W
LayerCount: 2
Fore
SplineSet
767.8671875 325.71484375 m 0,0,1
 767.8671875 394.037109375 767.8671875 394.037109375 815.661132812 442.967773438 c 0,2,3
 865.758789062 491.926757812 865.758789062 491.926757812 934.079101562 491.926757812 c 0,4,5
 979.594726562 491.926757812 979.594726562 491.926757812 1017.13183594 469.17578125 c 0,6,7
 1024.91699219 464.596679688 1024.91699219 464.596679688 1031.98632812 459.448242188 c 128,-1,8
 1039.0546875 454.299804688 1039.0546875 454.299804688 1045.42871094 448.568359375 c 128,-1,9
 1051.80273438 442.8359375 1051.80273438 442.8359375 1057.48828125 436.508789062 c 128,-1,10
 1063.17382812 430.180664062 1063.17382812 430.180664062 1068.1796875 423.256835938 c 128,-1,11
 1073.18457031 416.33203125 1073.18457031 416.33203125 1077.53027344 408.78515625 c 0,12,13
 1088.94335938 389.953125 1088.94335938 389.953125 1094.61621094 369.247070312 c 128,-1,14
 1100.29003906 348.540039062 1100.29003906 348.540039062 1100.29003906 325.71484375 c 128,-1,15
 1100.29003906 302.90234375 1100.29003906 302.90234375 1094.86035156 282.170898438 c 128,-1,16
 1089.43164062 261.439453125 1089.43164062 261.439453125 1078.55566406 242.732421875 c 128,-1,17
 1067.6796875 224.026367188 1067.6796875 224.026367188 1051.33007812 207.296875 c 0,18,19
 1002.40039062 159.50390625 1002.40039062 159.50390625 934.079101562 159.50390625 c 0,20,21
 888.486328125 159.50390625 888.486328125 159.50390625 849.796875 181.124023438 c 0,22,23
 842.064453125 185.673828125 842.064453125 185.673828125 835.0078125 190.8203125 c 128,-1,24
 827.94921875 195.966796875 827.94921875 195.966796875 821.576171875 201.704101562 c 128,-1,25
 815.203125 207.44140625 815.203125 207.44140625 809.51171875 213.768554688 c 128,-1,26
 803.8203125 220.095703125 803.8203125 220.095703125 798.81640625 227.0078125 c 128,-1,27
 793.8125 233.920898438 793.8125 233.920898438 789.497070312 241.415039062 c 0,28,29
 767.8671875 280.122070312 767.8671875 280.122070312 767.8671875 325.71484375 c 0,0,1
169.265625 1236.28027344 m 0,30,31
 169.240234375 1305.10742188 169.240234375 1305.10742188 217.05859375 1353.53320312 c 0,32,33
 242.0703125 1378.24121094 242.0703125 1378.24121094 271.602539062 1390.45019531 c 128,-1,34
 301.133789062 1402.66015625 301.133789062 1402.66015625 335.482421875 1402.4921875 c 0,35,36
 380.793945312 1402.82617188 380.793945312 1402.82617188 418.5234375 1379.74511719 c 0,37,38
 437.84375 1368.16015625 437.84375 1368.16015625 452.91015625 1353.09277344 c 128,-1,39
 467.9765625 1338.02734375 467.9765625 1338.02734375 478.942382812 1319.32617188 c 0,40,41
 490.604492188 1300.31152344 490.604492188 1300.31152344 496.268554688 1279.63574219 c 128,-1,42
 501.93359375 1258.95996094 501.93359375 1258.95996094 501.6875 1236.28808594 c 0,43,44
 502.177734375 1167.60644531 502.177734375 1167.60644531 452.745117188 1117.87695312 c 0,45,46
 403.384765625 1069.88671875 403.384765625 1069.88671875 335.4609375 1070.06933594 c 0,47,48
 312.446289062 1069.97851562 312.446289062 1069.97851562 291.38671875 1075.38476562 c 128,-1,49
 270.329101562 1080.79003906 270.329101562 1080.79003906 251.220703125 1091.67480469 c 0,50,51
 212.177734375 1114.9765625 212.177734375 1114.9765625 190.900390625 1151.96972656 c 0,52,53
 169.240234375 1191.19433594 169.240234375 1191.19433594 169.265625 1236.28027344 c 0,30,31
912.751953125 1509.25488281 m 5,54,-1
 1064.33007812 1431.16210938 l 5,55,-1
 333.419921875 29.6865234375 l 1,56,-1
 182.352539062 112.703125 l 1,57,-1
 912.751953125 1509.25488281 l 5,54,-1
EndSplineSet
EndChar

StartChar: uni066B
Encoding: 1643 1643 70
GlifName: uni066B_
Width: 769
VWidth: 2762
GlyphClass: 2
Flags: W
LayerCount: 2
Fore
SplineSet
494.997070312 774.81640625 m 1,0,-1
 626.35546875 719.052734375 l 1,1,-1
 189.029296875 -290.100585938 l 1,2,-1
 55.703125 -232.075195312 l 1,3,-1
 494.997070312 774.81640625 l 1,0,-1
EndSplineSet
EndChar

StartChar: uni066C
Encoding: 1644 1644 71
GlifName: uni066C_
Width: 550
VWidth: 2659
GlyphClass: 2
Flags: W
LayerCount: 2
Fore
SplineSet
113.85546875 145.446289062 m 0,0,1
 115.262695312 285.6328125 115.262695312 285.6328125 271.3203125 286.086914062 c 0,2,3
 411.610351562 286.70703125 411.610351562 286.70703125 437.625 162.412109375 c 0,4,5
 451.453125 95.01953125 451.453125 95.01953125 426.466796875 -5.033203125 c 0,6,7
 370.951171875 -217.208984375 370.951171875 -217.208984375 176.494140625 -375.604492188 c 1,8,-1
 120.846679688 -340.033203125 l 1,9,10
 284.850585938 -176.561523438 284.850585938 -176.561523438 297.34765625 -4.4599609375 c 2,11,-1
 297.677734375 0.0791015625 l 1,12,-1
 293.12890625 -0.0283203125 l 2,13,14
 248.088867188 -1.08984375 248.088867188 -1.08984375 229.455078125 3.2880859375 c 0,15,16
 113.124023438 26.7626953125 113.124023438 26.7626953125 113.85546875 145.446289062 c 0,0,1
EndSplineSet
EndChar

StartChar: afii63167
Encoding: 1645 1645 72
GlifName: afii63167
Width: 1480
VWidth: 2762
GlyphClass: 2
Flags: W
LayerCount: 2
Fore
SplineSet
202.612304688 979.38671875 m 1,0,-1
 617.434570312 979.38671875 l 1,1,-1
 747.016601562 1373.92089844 l 1,2,-1
 876.600585938 979.38671875 l 1,3,-1
 1291.421875 979.38671875 l 1,4,-1
 956.27734375 734.383789062 l 1,5,-1
 1084.47460938 340.552734375 l 1,6,-1
 747.016601562 584.400390625 l 1,7,-1
 409.560546875 340.552734375 l 1,8,-1
 537.7578125 734.383789062 l 1,9,-1
 202.612304688 979.38671875 l 1,0,-1
EndSplineSet
EndChar

StartChar: uni066E
Encoding: 1646 1646 73
GlifName: uni066E_
Width: 1781
VWidth: 2762
GlyphClass: 2
Flags: W
AnchorPoint: "Anchor-10" 949.991 1326.38 basechar 0
AnchorPoint: "Anchor-7" 949.991 -235.465 basechar 0
LayerCount: 2
Fore
SplineSet
887.467773438 186.204101562 m 0,0,1
 1266 186 1266 186 1383.16015625 265 c 0,2,3
 1502 344 1502 344 1500.31542969 518.616210938 c 4,4,5
 1499 615 1499 615 1477.28515625 721.403320312 c 5,6,-1
 1632.03515625 762.041015625 l 5,7,8
 1671 649 1671 649 1671.19824219 516.837890625 c 4,9,10
 1671 237 1671 237 1494.16015625 114 c 0,11,12
 1330 0 1330 0 891.155273438 0 c 2,13,-1
 887.004882812 0 l 2,14,15
 441 0 441 0 284 114 c 0,16,17
 107 243 107 243 106.961914062 516.837890625 c 4,18,19
 107 649 107 649 146.125 762.041015625 c 5,20,-1
 300.875 721.403320312 l 5,21,22
 278 613 278 613 277.844726562 518.616210938 c 4,23,24
 278 340 278 340 395 265 c 0,25,26
 517 187 517 187 887.467773438 186.204101562 c 0,0,1
EndSplineSet
Substitution2: "'init' Initial Forms in Arabic lookup 13 subtable" uni066E.init
Substitution2: "'medi' Medial Forms in Arabic lookup 11 subtable" uni066E.medi
Substitution2: "'fina' Terminal Forms in Arabic lookup 9 subtable" uni066E.fina
EndChar

StartChar: uni066F
Encoding: 1647 1647 74
GlifName: uni066F_
Width: 1482
VWidth: 2762
GlyphClass: 2
Flags: W
AnchorPoint: "Anchor-10" 134.827 1236.1 basechar 0
AnchorPoint: "Anchor-7" 334.105 -746.838 basechar 0
LayerCount: 2
Fore
SplineSet
1364.04199219 230.791992188 m 0,0,1
 1380.24707031 89.919921875 1380.24707031 89.919921875 1362.92578125 -27 c 0,2,3
 1327.03710938 -269.243164062 1327.03710938 -269.243164062 1139 -394.356445312 c 0,4,5
 976 -503 976 -503 718.5078125 -501.374023438 c 8,6,7
 108 -497 108 -497 105.59765625 40.013671875 c 0,8,9
 105 258 105 258 216.17578125 492.350585938 c 1,10,-1
 376.69921875 427.814453125 l 1,11,12
 287 204 287 204 287.731445312 47.5078125 c 0,13,14
 290 -310 290 -310 727.298828125 -315.288085938 c 16,15,16
 1176 -320 1176 -320 1206.55566406 49.80859375 c 1,17,-1
 1142.48535156 35.9140625 l 2,18,19
 1074 21 1074 21 1018.56933594 16.3779296875 c 0,20,21
 680 -8 680 -8 680.00390625 279.57421875 c 0,22,23
 680 368 680 368 709.772460938 466.09375 c 0,24,25
 781 702 781 702 988.5703125 713.319335938 c 0,26,27
 1305 731 1305 731 1364.04199219 230.791992188 c 0,0,1
1118.22558594 212.984375 m 2,28,-1
 1191.125 229.2578125 l 1,29,30
 1153.26171875 539.57421875 1153.26171875 539.57421875 986.450195312 523.538085938 c 0,31,32
 898.26171875 514.57421875 898.26171875 514.57421875 859.563476562 383.384765625 c 0,33,34
 821.26171875 249.57421875 821.26171875 249.57421875 895.169921875 214.659179688 c 0,35,36
 941.26171875 192.57421875 941.26171875 192.57421875 1024.41992188 197.587890625 c 0,37,38
 1058.26171875 199.57421875 1058.26171875 199.57421875 1118.22558594 212.984375 c 2,28,-1
EndSplineSet
Substitution2: "'init' Initial Forms in Arabic lookup 13 subtable" uni066F.init
Substitution2: "'medi' Medial Forms in Arabic lookup 11 subtable" uni066F.medi
Substitution2: "'fina' Terminal Forms in Arabic lookup 9 subtable" uni066F.fina
EndChar

StartChar: uni0670
Encoding: 1648 1648 75
GlifName: uni0670
Width: -29
VWidth: 2574
GlyphClass: 4
Flags: W
AnchorPoint: "Anchor-10" 636.984 1500.61 mark 0
AnchorPoint: "Anchor-9" 636.984 1500.61 mark 0
AnchorPoint: "Anchor-1" 636.984 2087.18 basemark 0
AnchorPoint: "Anchor-1" 636.984 1500.61 mark 0
LayerCount: 2
Fore
SplineSet
593.435546875 1568.26757812 m 1,0,-1
 593.435546875 2019.51660156 l 1,1,-1
 680.533203125 2019.51660156 l 1,2,-1
 680.533203125 1568.26757812 l 1,3,-1
 593.435546875 1568.26757812 l 1,0,-1
EndSplineSet
EndChar

StartChar: uni0674
Encoding: 1652 1652 76
GlifName: uni0674
Width: 774
VWidth: 2762
GlyphClass: 2
Flags: W
LayerCount: 2
Fore
SplineSet
255.856445312 1953.14257812 m 2,0,1
 247.520507812 1959.15625 247.520507812 1959.15625 239.890625 1965.4296875 c 128,-1,2
 232.259765625 1971.70214844 232.259765625 1971.70214844 225.344726562 1978.22753906 c 128,-1,3
 218.427734375 1984.75097656 218.427734375 1984.75097656 212.215820312 1991.52929688 c 128,-1,4
 206.00390625 1998.30859375 206.00390625 1998.30859375 200.495117188 2005.34375 c 128,-1,5
 194.987304688 2012.37890625 194.987304688 2012.37890625 190.18359375 2019.66210938 c 128,-1,6
 185.37890625 2026.9453125 185.37890625 2026.9453125 181.268554688 2034.48925781 c 0,7,8
 156.614257812 2079.75 156.614257812 2079.75 156.614257812 2134.96191406 c 0,9,10
 156.614257812 2151.61621094 156.614257812 2151.61621094 158.16796875 2167.23242188 c 128,-1,11
 159.721679688 2182.84863281 159.721679688 2182.84863281 162.828125 2197.42773438 c 128,-1,12
 165.93359375 2212.00585938 165.93359375 2212.00585938 170.594726562 2225.56445312 c 128,-1,13
 175.255859375 2239.12304688 175.255859375 2239.12304688 181.462890625 2251.65722656 c 128,-1,14
 187.670898438 2264.19042969 187.670898438 2264.19042969 195.435546875 2275.72167969 c 128,-1,15
 203.201171875 2287.25390625 203.201171875 2287.25390625 212.506835938 2297.77246094 c 128,-1,16
 221.813476562 2308.29199219 221.813476562 2308.29199219 232.6796875 2317.82714844 c 0,17,18
 308.79296875 2384.6171875 308.79296875 2384.6171875 410.098632812 2384.96289062 c 0,19,20
 417.32421875 2384.98828125 417.32421875 2384.98828125 424.44921875 2384.77929688 c 128,-1,21
 431.573242188 2384.57128906 431.573242188 2384.57128906 438.594726562 2384.13085938 c 128,-1,22
 445.616210938 2383.68945312 445.616210938 2383.68945312 452.537109375 2383.01660156 c 128,-1,23
 459.458007812 2382.34375 459.458007812 2382.34375 466.276367188 2381.4375 c 128,-1,24
 473.094726562 2380.53222656 473.094726562 2380.53222656 479.8125 2379.39355469 c 128,-1,25
 486.53125 2378.25585938 486.53125 2378.25585938 493.146484375 2376.88476562 c 128,-1,26
 499.76171875 2375.51464844 499.76171875 2375.51464844 506.278320312 2373.91308594 c 0,27,28
 551.870117188 2362.70117188 551.870117188 2362.70117188 592.4609375 2340.10839844 c 1,29,30
 592.4609375 2317.45703125 592.4609375 2317.45703125 592.8125 2272.16699219 c 128,-1,31
 593.165039062 2226.87695312 593.165039062 2226.87695312 593.165039062 2204.50390625 c 1,32,-1
 591.229492188 2205.37988281 l 2,33,34
 430.943359375 2277.88378906 430.943359375 2277.88378906 338.578125 2224.34375 c 0,35,36
 326.642578125 2217.42480469 326.642578125 2217.42480469 317.396484375 2209.04785156 c 128,-1,37
 308.151367188 2200.66894531 308.151367188 2200.66894531 301.66015625 2190.83789062 c 0,38,39
 288.666015625 2171.16210938 288.666015625 2171.16210938 286.416015625 2145.38867188 c 0,40,41
 282.033203125 2095.20898438 282.033203125 2095.20898438 313.7734375 2059.79492188 c 0,42,43
 329.51171875 2042.234375 329.51171875 2042.234375 354.42578125 2028.35644531 c 128,-1,44
 379.33984375 2014.47753906 379.33984375 2014.47753906 413.302734375 2004.19042969 c 0,45,46
 423.232421875 2001.04980469 423.232421875 2001.04980469 440.346679688 2001.20605469 c 128,-1,47
 457.462890625 2001.36230469 457.462890625 2001.36230469 484.09375 2004.61132812 c 0,48,49
 536.345703125 2010.98730469 536.345703125 2010.98730469 620.017578125 2029.703125 c 2,50,-1
 621.686523438 2030.07714844 l 1,51,-1
 621.686523438 1889.78808594 l 1,52,-1
 153.8984375 1784.76757812 l 1,53,-1
 153.8984375 1922.58007812 l 1,54,-1
 263.244140625 1947.81152344 l 1,55,-1
 255.856445312 1953.14257812 l 2,0,1
EndSplineSet
EndChar

StartChar: uni06A1
Encoding: 1697 1697 80
GlifName: uni06A_1
Width: 1784
VWidth: 2762
GlyphClass: 2
Flags: W
AnchorPoint: "Anchor-10" 635.764 1546.97 basechar 0
AnchorPoint: "Anchor-7" 619.264 -324.161 basechar 0
LayerCount: 2
Fore
SplineSet
1673.44335938 573.217773438 m 4,0,1
 1710 243 1710 243 1536.15234375 112.393554688 c 4,2,3
 1401.76014805 11.8205056336 1401.76014805 11.8205056336 1002 2.603515625 c 6,4,5
 889.080078125 0 l 10,6,-1
 887.004882812 0 l 2,7,8
 441 0 441 0 284 114 c 0,9,10
 107 243 107 243 106.961914062 516.837890625 c 0,11,12
 107 649 107 649 146.125 762.041015625 c 1,13,-1
 300.875 721.403320312 l 1,14,15
 278 613 278 613 277.844726562 518.616210938 c 0,16,17
 278 340 278 340 395 265 c 0,18,19
 519 186 519 186 887.467773438 186.204101562 c 0,20,21
 990 186 990 186 992 186.100585938 c 4,22,23
 1523 188 1523 188 1514.95703125 392.234375 c 5,24,-1
 1450.88671875 378.33984375 l 6,25,26
 1380 363 1380 363 1326.97070312 358.803710938 c 4,27,28
 986 334 986 334 988.405273438 622 c 4,29,30
 989 710 989 710 1018.17382812 808.51953125 c 4,31,32
 1089 1044 1089 1044 1296.97167969 1055.74511719 c 4,33,34
 1618 1073 1618 1073 1673.44335938 573.217773438 c 4,0,1
1426.62695312 555.41015625 m 6,35,-1
 1499.52636719 571.68359375 l 5,36,37
 1462 883 1462 883 1294.8515625 865.963867188 c 4,38,39
 1205 857 1205 857 1167.96484375 725.810546875 c 4,40,41
 1130 592 1130 592 1203.57128906 557.084960938 c 4,42,43
 1250 535 1250 535 1332.82128906 540.013671875 c 4,44,45
 1367 542 1367 542 1426.62695312 555.41015625 c 6,35,-1
EndSplineSet
Substitution2: "'init' Initial Forms in Arabic lookup 13 subtable" uni06A1.init
Substitution2: "'medi' Medial Forms in Arabic lookup 11 subtable" uni06A1.medi
Substitution2: "'fina' Terminal Forms in Arabic lookup 9 subtable" uni06A1.fina
EndChar

StartChar: uni06A9
Encoding: 1705 1705 81
GlifName: uni06A_9
Width: 1839
VWidth: 2762
GlyphClass: 2
Flags: W
AnchorPoint: "Anchor-7" 653.893 -232.533 basechar 0
AnchorPoint: "Anchor-10" 646.06 1369.84 basechar 0
LayerCount: 2
Fore
SplineSet
1059 0 m 6,0,-1
 887.004882812 0 l 6,1,2
 441 0 441 0 284 114 c 4,3,4
 107 243 107 243 106.961914062 516.837890625 c 4,5,6
 107 649 107 649 146.125 762.041015625 c 5,7,-1
 300.875 721.403320312 l 5,8,9
 276 603 276 603 277.844726562 518.616210938 c 4,10,11
 282.049392937 333.829276179 282.049392937 333.829276179 395 265 c 4,12,13
 524.603819998 186.634899536 524.603819998 186.634899536 884.467773438 186.204101562 c 6,14,-1
 1058.22558594 185.99609375 l 6,15,16
 1430 186 1430 186 1430.65820312 355.032226562 c 4,17,18
 1431 427 1431 427 1335.23339844 539 c 4,19,20
 1177 726 1177 726 1064.89453125 834.56640625 c 4,21,22
 973 925 973 925 972.809570312 1018.66601562 c 4,23,24
 972.999692139 1146.79252686 972.999692139 1146.79252686 1106.1796875 1199.4453125 c 6,25,-1
 1778.80761719 1465.36914062 l 5,26,-1
 1778.80761719 1273.27636719 l 5,27,-1
 1135.73242188 1023.26855469 l 5,28,29
 1334 819 1334 819 1480.10546875 648.6640625 c 4,30,31
 1610 496 1610 496 1609.12890625 357.130859375 c 4,32,33
 1607 0 1607 0 1059 0 c 6,0,-1
EndSplineSet
Substitution2: "'init' Initial Forms in Arabic lookup 13 subtable" uniFB90
Substitution2: "'medi' Medial Forms in Arabic lookup 11 subtable" uniFB91
Substitution2: "'fina' Terminal Forms in Arabic lookup 9 subtable" uniFB8F
EndChar

StartChar: afii57514
Encoding: 1722 1722 83
GlifName: afii57514
Width: 1464
VWidth: 2762
GlyphClass: 2
Flags: W
AnchorPoint: "Anchor-10" 737.346 1113.85 basechar 0
AnchorPoint: "Anchor-7" 765.869 -679.737 basechar 0
LayerCount: 2
Fore
SplineSet
737.030273438 -260.9921875 m 0,0,1
 1167 -262 1167 -262 1165.44726562 167.59765625 c 0,2,3
 1165 341 1165 341 1079.87109375 580.009765625 c 1,4,-1
 1250.58105469 639.65234375 l 1,5,6
 1346 383 1346 383 1345.19921875 134.814453125 c 0,7,8
 1345 -21 1345 -21 1280.31347656 -155.139648438 c 0,9,10
 1141.66533974 -446.904929643 1141.66533974 -446.904929643 728.239257812 -447.079101562 c 4,11,12
 117 -447 117 -447 115.329101562 114.975585938 c 0,13,14
 115 333 115 333 225.908203125 567.3125 c 1,15,-1
 386.430664062 502.776367188 l 1,16,17
 297 278 297 278 297.462890625 122.469726562 c 0,18,19
 300 -260 300 -260 737.030273438 -260.9921875 c 0,0,1
EndSplineSet
Substitution2: "'init' Initial Forms in Arabic lookup 13 subtable" uni06BA.init
Substitution2: "'medi' Medial Forms in Arabic lookup 11 subtable" uni06BA.medi
Substitution2: "'fina' Terminal Forms in Arabic lookup 9 subtable" uniFB9F
EndChar

StartChar: uni06F4
Encoding: 1780 1780 90
GlifName: uni06F_4
Width: 1267
VWidth: 2762
GlyphClass: 2
Flags: W
LayerCount: 2
Fore
SplineSet
481.165039062 827.309570312 m 1,0,1
 554 488 554 488 562.750976562 10.7880859375 c 1,2,-1
 381.106445312 10.7880859375 l 1,3,4
 363 808 363 808 133.454101562 1391.66894531 c 1,5,-1
 301.0625 1449.0078125 l 1,6,7
 403 1180 403 1180 435.469726562 1053.78710938 c 1,8,9
 440.92713105 1223.61383285 440.92713105 1223.61383285 554 1341.74978995 c 4,10,11
 669.458996386 1462.37871862 669.458996386 1462.37871862 865.563476562 1460.40039062 c 0,12,13
 971 1460 971 1460 1072.68066406 1412.56542969 c 1,14,-1
 1030.24804688 1242.43164062 l 1,15,16
 957 1273 957 1273 876.217773438 1272.8828125 c 0,17,18
 779 1273 779 1273 714 1228 c 0,19,20
 615 1161 615 1161 594.58984375 1052.96289062 c 0,21,22
 578 963 578 963 675.797851562 915.319335938 c 0,23,24
 754 877 754 877 860.030273438 877.178710938 c 0,25,26
 984 878 984 878 1110.48242188 929.783203125 c 1,27,-1
 1133.58789062 756.80078125 l 1,28,29
 986 704 986 704 851.763671875 704.146484375 c 0,30,31
 583 705 583 705 481.165039062 827.309570312 c 1,0,1
EndSplineSet
EndChar

StartChar: uni06F5
Encoding: 1781 1781 91
GlifName: uni06F_5
Width: 1358
VWidth: 2762
GlyphClass: 2
Flags: W
LayerCount: 2
Fore
SplineSet
298.294921875 367.2109375 m 4,0,1
 299 194 299 194 423.790039062 194.262695312 c 4,2,3
 558 194 558 194 619.088867188 488.159179688 c 5,4,-1
 743.047851562 488.0546875 l 5,5,6
 793 191 793 191 937.204101562 190.78515625 c 4,7,8
 1063 191 1063 191 1062.16015625 363.750976562 c 4,9,10
 1061 721 1061 721 641.330078125 1122.84179688 c 5,11,12
 297 725 297 725 298.294921875 367.2109375 c 4,0,1
402.284179688 11.1904296875 m 4,13,14
 120 14 120 14 122.072265625 350.965820312 c 4,15,16
 124 771 124 771 509.819335938 1251.82421875 c 5,17,-1
 457.212890625 1301.06640625 l 5,18,-1
 579.305664062 1450.26074219 l 5,19,-1
 699.995117188 1335.77246094 l 28,20,21
 1236 832 1236 832 1236.02148438 372.791015625 c 4,22,23
 1236 12 1236 12 958.217773438 11.16796875 c 4,24,25
 756 10 756 10 681.387695312 217.70703125 c 5,26,27
 602 9 602 9 402.284179688 11.1904296875 c 4,13,14
EndSplineSet
EndChar

StartChar: uni06F6
Encoding: 1782 1782 92
GlifName: uni06F_6
Width: 1124
VWidth: 2762
GlyphClass: 2
Flags: W
LayerCount: 2
Fore
SplineSet
138.754882812 1043 m 0,0,1
 140 1126 140 1126 175.362304688 1198.15527344 c 0,2,3
 299 1449 299 1449 646.69140625 1449.04882812 c 0,4,5
 699 1449 699 1449 785.819335938 1434.60253906 c 1,6,-1
 760.333984375 1259.91210938 l 1,7,8
 710 1265 710 1265 649.05859375 1265.52050781 c 0,9,10
 497 1265 497 1265 402.552734375 1195.52148438 c 0,11,12
 320 1135 320 1135 319.967773438 1029.2265625 c 0,13,14
 320 933 320 933 422.8671875 886.641601562 c 0,15,16
 521.470231093 841.786087155 521.470231093 841.786087155 625.86328125 844.021484375 c 2,17,-1
 626.775390625 844.041015625 l 1,18,19
 888 972 888 972 967.499023438 997.854492188 c 1,20,-1
 975.05859375 814.537109375 l 1,21,22
 581 638 581 638 324.137695312 11.8828125 c 1,23,-1
 157.165039062 67.8056640625 l 1,24,25
 312 445 312 445 506.247070312 680.83984375 c 1,26,27
 134 727 134 727 138.754882812 1043 c 0,0,1
EndSplineSet
EndChar

StartChar: uniFB8F
Encoding: 64399 64399 107
GlifName: uniF_B_8F_
Width: 1894
VWidth: 2762
GlyphClass: 2
Flags: W
AnchorPoint: "Anchor-7" 653.893 -232.533 basechar 0
AnchorPoint: "Anchor-10" 612.446 1416.5 basechar 0
LayerCount: 2
Fore
SplineSet
1053.52246094 0 m 6,0,-1
 887.004882812 0 l 2,1,2
 451 0 451 0 284 114 c 0,3,4
 107 235 107 235 106.961914062 516.837890625 c 0,5,6
 107 649 107 649 146.125 762.041015625 c 1,7,-1
 300.875 721.403320312 l 1,8,9
 276 603 276 603 277.844726562 518.616210938 c 0,10,11
 282 343 282 343 395 265 c 0,12,13
 510.005686313 185.99609375 510.005686313 185.99609375 890.8515625 185.99609375 c 2,14,-1
 1052.74804688 185.99609375 l 6,15,16
 1259 186 1259 186 1334.8125 231.599609375 c 4,17,18
 1395 268 1395 268 1397.60644531 328 c 4,19,20
 1399 377 1399 377 1374.83007812 413 c 4,21,22
 1335.13090737 472.802801234 1335.13090737 472.802801234 1301.33007812 516 c 6,23,-1
 1042.33007812 847 l 6,24,25
 972 937 972 937 969.330078125 1015 c 4,26,27
 965.012211917 1147.62490632 965.012211917 1147.62490632 1102.1796875 1201.44628906 c 6,28,-1
 1774.80761719 1465.37011719 l 5,29,-1
 1774.80761719 1273.27734375 l 5,30,-1
 1130.33007812 1024 l 5,31,-1
 1666.92773438 339.201171875 l 6,32,33
 1787.00306155 185.99609375 1787.00306155 185.99609375 1876.04101562 185.99609375 c 6,34,-1
 1900.62792969 185.99609375 l 6,35,36
 1924.13671875 186.00002285 1924.13671875 186.00002285 1924.13671875 104.836914062 c 6,37,-1
 1924.13671875 87.23046875 l 6,38,39
 1924 0 1924 0 1900.62792969 0 c 6,40,-1
 1885.27832031 0 l 6,41,42
 1698 0 1698 0 1542.33007812 209 c 5,43,44
 1474 0 1474 0 1053.52246094 0 c 6,0,-1
EndSplineSet
EndChar

StartChar: uniFB9F
Encoding: 64415 64415 115
GlifName: uniF_B_9F_
Width: 1540
VWidth: 2762
GlyphClass: 2
Flags: W
AnchorPoint: "Anchor-10" 603.562 862.463 basechar 0
AnchorPoint: "Anchor-7" 502.599 -761.581 basechar 0
LayerCount: 2
Fore
SplineSet
1523.95214844 0 m 2,0,1
 1425 0 1425 0 1345.23925781 74.958984375 c 1,2,3
 1345 -90 1345 -90 1280.31347656 -224.483398438 c 0,4,5
 1142 -517 1142 -517 728.239257812 -516.422851562 c 0,6,7
 117 -517 117 -517 115.329101562 45.630859375 c 0,8,9
 115 263 115 263 225.908203125 497.967773438 c 1,10,-1
 386.430664062 433.432617188 l 1,11,12
 297 209 297 209 297.462890625 53.1259765625 c 0,13,14
 300 -329 300 -329 737.030273438 -330.336914062 c 0,15,16
 1167 -332 1167 -332 1165.44726562 98.2529296875 c 0,17,18
 1165 271 1165 271 1079.87109375 510.665039062 c 1,19,-1
 1250.41308594 570.249023438 l 1,20,-1
 1319.91699219 355.383789062 l 2,21,22
 1373.99059017 187.029296875 1373.99059017 187.029296875 1529.18261719 187.029296875 c 2,23,-1
 1547.03320312 187.029296875 l 2,24,25
 1570.54394531 187.000557479 1570.54394531 187.000557479 1570.54394531 109.239257812 c 2,26,-1
 1570.54394531 87.23046875 l 2,27,28
 1571 0 1571 0 1547.03320312 0 c 2,29,-1
 1523.95214844 0 l 2,0,1
EndSplineSet
EndChar

StartChar: uniFBE8
Encoding: 64488 64488 118
GlifName: uniF_B_E_8
Width: 647
VWidth: 2762
GlyphClass: 2
Flags: W
AnchorPoint: "Anchor-10" 290.762 1286.83 basechar 0
AnchorPoint: "Anchor-7" 250.044 -487.953 basechar 0
LayerCount: 2
Fore
SplineSet
-6.478515625 0 m 2,0,1
 -83.9228515625 0 -83.9228515625 0 -83.9228515625 87.224609375 c 2,2,-1
 -83.9228515625 104.836914062 l 2,3,4
 -83.999996287 185.99609375 -83.999996287 185.99609375 -6.478515625 185.99609375 c 2,5,-1
 91.24609375 185.99609375 l 2,6,7
 200.533707704 185.998367496 200.533707704 185.998367496 265 214.47078159 c 4,8,9
 340.44568661 247.792394394 340.44568661 247.792394394 354.364875289 332 c 4,10,11
 379.625442834 484.820107428 379.625442834 484.820107428 319.990234375 729.21875 c 5,12,-1
 495.043945312 760.203125 l 5,13,14
 556 550 556 550 536.274414062 333 c 4,15,16
 522.948846354 179.330313786 522.948846354 179.330313786 437 100.830673294 c 4,17,18
 326.601022472 0 326.601022472 0 91.2353515625 0 c 2,19,-1
 -6.478515625 0 l 2,0,1
EndSplineSet
EndChar

StartChar: uniFBE9
Encoding: 64489 64489 119
GlifName: uniF_B_E_9
Width: 708
VWidth: 2762
GlyphClass: 2
Flags: W
AnchorPoint: "Anchor-10" 275.181 1215.95 basechar 0
AnchorPoint: "Anchor-7" 307.745 -161.212 basechar 0
LayerCount: 2
Fore
SplineSet
509.505859375 344.56640625 m 2,0,1
 525.224447939 185.99609375 525.224447939 185.99609375 707.374023438 185.99609375 c 2,2,-1
 714.916015625 185.99609375 l 2,3,4
 738.426757812 186.000072216 738.426757812 186.000072216 738.426757812 96.5703125 c 2,5,-1
 738.426757812 87.23046875 l 2,6,7
 738 0 738 0 714.916015625 0 c 2,8,-1
 705.911132812 0 l 2,9,10
 493 0 493 0 416.138671875 148.946289062 c 5,11,12
 305 0 305 0 71.1953125 0 c 2,13,-1
 -7.5791015625 0 l 2,14,15
 -83.9228515625 0 -83.9228515625 0 -83.9228515625 87.224609375 c 2,16,-1
 -83.9228515625 104.836914062 l 2,17,18
 -83.999996287 185.99609375 -83.999996287 185.99609375 -7.5791015625 185.99609375 c 2,19,-1
 66.76171875 185.99609375 l 2,20,21
 290.531337354 185.999991836 290.531337354 185.999991836 306.485351562 345.454101562 c 2,22,-1
 331.4765625 595.231445312 l 1,23,-1
 484.658203125 595.231445312 l 1,24,-1
 509.505859375 344.56640625 l 2,0,1
EndSplineSet
EndChar

StartChar: uniFE73
Encoding: 65139 65139 127
GlifName: uniF_E_73
Width: 694
VWidth: 2762
GlyphClass: 2
Flags: W
AnchorPoint: "Anchor-10" 256.735 1609.43 basechar 0
AnchorPoint: "Anchor-7" 256.735 -156.134 basechar 0
LayerCount: 2
Fore
SplineSet
350.571289062 430.578125 m 2,0,1
 350.571289062 342.995117188 350.571289062 342.995117188 426.232421875 267.334960938 c 0,2,3
 460.8359375 232.728515625 460.8359375 232.728515625 515.142578125 215.540039062 c 0,4,5
 569.096679688 198.461914062 569.096679688 198.461914062 642.44140625 198.461914062 c 2,6,-1
 713.19140625 198.461914062 l 1,7,-1
 713.19140625 10.7880859375 l 1,8,-1
 567.743164062 10.7880859375 l 2,9,10
 387.778320312 10.7880859375 387.778320312 10.7880859375 271.94140625 126.624023438 c 0,11,12
 162.895507812 235.670898438 162.895507812 235.670898438 162.895507812 414.279296875 c 2,13,-1
 162.895507812 441.568359375 l 1,14,-1
 350.571289062 441.568359375 l 1,15,-1
 350.571289062 430.578125 l 2,0,1
EndSplineSet
EndChar

StartChar: uniFE8E
Encoding: 65166 65166 153
GlifName: uniF_E_8E_
Width: 579
VWidth: 2762
GlyphClass: 2
Flags: W
AnchorPoint: "Anchor-10" 252.108 1637.54 basechar 0
AnchorPoint: "Anchor-7" 301.954 -222.23 basechar 0
LayerCount: 2
Fore
SplineSet
585.286132812 0 m 6,0,-1
 565.791015625 0 l 6,1,2
 164.790039062 0 164.790039062 0 164.790039062 414.123046875 c 6,3,-1
 164.790039062 1476.30957031 l 5,4,-1
 341.749023438 1476.30957031 l 5,5,-1
 341.749023438 416.041992188 l 6,6,7
 342.000004262 185.99609375 342.000004262 185.99609375 568.642578125 185.99609375 c 6,8,-1
 585.286132812 185.99609375 l 6,9,10
 608.796875 185.99996654 608.796875 185.99996654 608.796875 104.836914062 c 6,11,-1
 608.796875 87.23046875 l 6,12,13
 609 0 609 0 585.286132812 0 c 6,0,-1
EndSplineSet
EndChar

StartChar: uniFEA2
Encoding: 65186 65186 173
GlifName: uniF_E_A_2
Width: 1352
VWidth: 2762
GlyphClass: 2
Flags: W
AnchorPoint: "Anchor-7" 513.391 -897.848 basechar 0
AnchorPoint: "Anchor-10" 639.119 1280.36 basechar 0
LayerCount: 2
Fore
SplineSet
1227.28710938 631.7109375 m 1,0,1
 1214.515625 454.961914062 l 1,2,3
 1112 447 1112 447 1032.59667969 436.071289062 c 1,4,-1
 1032.59667969 432.561523438 l 2,5,6
 1032.99963314 183.227000423 1032.99963314 183.227000423 1336.73828125 186.059570312 c 2,7,-1
 1358.51953125 186.262695312 l 2,8,9
 1382.02929688 185.999672232 1382.02929688 185.999672232 1382.02929688 109.239257812 c 2,10,-1
 1382.02929688 87.23046875 l 2,11,12
 1382 0 1382 0 1358.51953125 0 c 2,13,-1
 1337.59960938 0 l 2,14,15
 880.705130761 -1.24487087305e-11 880.705130761 -1.24487087305e-11 879.676757812 400.669921875 c 2,16,-1
 879.6640625 405.616210938 l 1,17,18
 292 256 292 256 290.69921875 -133.299804688 c 0,19,20
 290 -492 290 -492 816.392578125 -492.64453125 c 0,21,22
 1010 -493 1010 -493 1193.40722656 -430.958007812 c 1,23,-1
 1228.99511719 -607.452148438 l 1,24,25
 1034 -674 1034 -674 811.98828125 -673.477539062 c 0,26,27
 114 -672 114 -672 117.524414062 -130.905273438 c 0,28,29
 120 386 120 386 774 554.037109375 c 1,30,31
 752 560 752 560 728.823242188 565.602539062 c 0,32,33
 497 622 497 622 409.278320312 610.802734375 c 0,34,35
 335.102574527 602.012156122 335.102574527 602.012156122 264.125976562 510.58984375 c 2,36,-1
 235.493164062 473.708984375 l 1,37,-1
 90.302734375 559.48828125 l 1,38,-1
 108.502929688 589.541992188 l 2,39,40
 228 787 228 787 387.71484375 800.12109375 c 0,41,42
 500 809 500 809 777.991210938 726.280273438 c 0,43,44
 1056 643 1056 643 1227.28710938 631.7109375 c 1,0,1
EndSplineSet
EndChar

StartChar: uniFEA3
Encoding: 65187 65187 174
GlifName: uniF_E_A_3
Width: 1346
VWidth: 2762
GlyphClass: 2
Flags: W
AnchorPoint: "Anchor-10" 600.676 1343.86 basechar 0
AnchorPoint: "Anchor-7" 556.478 -233.116 basechar 0
LayerCount: 2
Fore
SplineSet
-6.478515625 0 m 2,0,1
 -83.9228515625 0 -83.9228515625 0 -83.9228515625 87.224609375 c 2,2,-1
 -83.9228515625 104.836914062 l 2,3,4
 -84.0002497014 186.262695312 -84.0002497014 186.262695312 -6.478515625 186.262695312 c 2,5,-1
 69.9990234375 186.262695312 l 2,6,7
 446.151415789 186.000591296 446.151415789 186.000591296 691.756835938 344.940429688 c 2,8,-1
 973.416015625 527.211914062 l 1,9,10
 887 542 887 542 718.823242188 585.602539062 c 0,11,12
 513 639 513 639 439.278320312 630.802734375 c 0,13,14
 365.857736106 622.984851626 365.857736106 622.984851626 294.125976562 530.58984375 c 2,15,-1
 265.493164062 493.708984375 l 1,16,-1
 120.302734375 579.48828125 l 1,17,-1
 138.502929688 609.541992188 l 2,18,19
 258 807 258 807 417.71484375 820.12109375 c 0,20,21
 530 829 530 829 807.991210938 746.280273438 c 0,22,23
 1086 663 1086 663 1257.28710938 651.7109375 c 1,24,-1
 1255.48730469 497.797851562 l 1,25,26
 1207 495 1207 495 891.284179688 263.458984375 c 0,27,28
 533 0 533 0 77.677734375 0 c 2,29,-1
 -6.478515625 0 l 2,0,1
EndSplineSet
EndChar

StartChar: uniFEA4
Encoding: 65188 65188 175
GlifName: uniF_E_A_4
Width: 1388
VWidth: 2762
GlyphClass: 2
Flags: W
AnchorPoint: "Anchor-7" 556.478 -233.116 basechar 0
AnchorPoint: "Anchor-10" 600.676 1343.86 basechar 0
LayerCount: 2
Fore
SplineSet
1047 372.547851562 m 1,0,1
 1049.99577542 186.262695312 1049.99577542 186.262695312 1382.43847656 186.262695312 c 6,2,-1
 1395.33984375 186.262695312 l 6,3,4
 1418.84863281 186.001680608 1418.84863281 186.001680608 1418.84863281 109.239257812 c 6,5,-1
 1418.84863281 87.23046875 l 6,6,7
 1419 0 1419 0 1395.33984375 0 c 6,8,-1
 1377.29003906 0 l 6,9,10
 952 0 952 0 921 282 c 1,11,12
 537 0 537 0 77.677734375 0 c 2,13,-1
 -6.478515625 0 l 2,14,15
 -83.9228515625 0 -83.9228515625 0 -83.9228515625 87.224609375 c 2,16,-1
 -83.9228515625 104.836914062 l 2,17,18
 -84.0002497014 186.262695312 -84.0002497014 186.262695312 -6.478515625 186.262695312 c 2,19,-1
 69.9990234375 186.262695312 l 2,20,21
 446.151415788 186.000591296 446.151415788 186.000591296 691.756835938 344.940429688 c 2,22,-1
 973.416015625 527.211914062 l 1,23,24
 887 542 887 542 718.823242188 585.602539062 c 0,25,26
 513 639 513 639 439.278320312 630.802734375 c 0,27,28
 365.857736106 622.984851626 365.857736106 622.984851626 294.125976562 530.58984375 c 2,29,-1
 265.493164062 493.708984375 l 1,30,-1
 120.302734375 579.48828125 l 1,31,-1
 138.502929688 609.541992188 l 2,32,33
 258 807 258 807 417.71484375 820.12109375 c 0,34,35
 530 829 530 829 807.991210938 746.280273438 c 0,36,37
 1086 663 1086 663 1257.28710938 651.7109375 c 1,38,-1
 1255.48730469 497.797851562 l 1,39,40
 1221 496 1221 496 1047 372.547851562 c 1,0,1
EndSplineSet
EndChar

StartChar: uniFEAA
Encoding: 65194 65194 181
GlifName: uniF_E_A_A_
Width: 1095
VWidth: 2762
GlyphClass: 2
Flags: W
AnchorPoint: "Anchor-7" 440.033 -231.02 basechar 0
AnchorPoint: "Anchor-10" 519.35 1343.94 basechar 0
LayerCount: 2
Fore
SplineSet
1092.05078125 0 m 2,0,1
 916 0 916 0 814.922851562 159.70703125 c 1,2,3
 686 2 686 2 378.229492188 0.7861328125 c 0,4,5
 248 0 248 0 99.9140625 28.4052734375 c 1,6,-1
 99.9140625 215.360351562 l 1,7,8
 233 187 233 187 387.91796875 186.76171875 c 0,9,10
 518 187 518 187 615.482421875 231.599609375 c 0,11,12
 712 276 712 276 673.342773438 390.82421875 c 0,13,14
 646.886492374 470.341158269 646.886492374 470.341158269 599.701171875 570.84375 c 2,15,-1
 440 911 l 5,16,-1
 609.794921875 995.530273438 l 5,17,-1
 836.875 479.040039062 l 2,18,19
 966.001721248 185.99609375 966.001721248 185.99609375 1083.03808594 185.99609375 c 2,20,-1
 1101.375 185.99609375 l 2,21,22
 1124.88574219 185.999981108 1124.88574219 185.999981108 1124.88574219 104.836914062 c 2,23,-1
 1124.88574219 87.23046875 l 2,24,25
 1125 0 1125 0 1101.375 0 c 2,26,-1
 1092.05078125 0 l 2,0,1
EndSplineSet
EndChar

StartChar: uniFEAE
Encoding: 65198 65198 185
GlifName: uniF_E_A_E_
Width: 908
VWidth: 2762
GlyphClass: 2
Flags: W
AnchorPoint: "Anchor-7" 353.872 -727.41 basechar 0
AnchorPoint: "Anchor-10" 500.58 1302.55 basechar 0
LayerCount: 2
Fore
SplineSet
709.53125 335.83203125 m 0,0,1
 776 186 776 186 890.30078125 185.99609375 c 2,2,-1
 914.967773438 185.99609375 l 2,3,4
 938.478515625 186.000081156 938.478515625 186.000081156 938.478515625 109.239257812 c 2,5,-1
 938.478515625 87.23046875 l 2,6,7
 938 0 938 0 914.967773438 0 c 2,8,-1
 899.397460938 0 l 2,9,10
 775 0 775 0 725.005859375 60.341796875 c 1,11,12
 707 -111 707 -111 621.641601562 -238.590820312 c 0,13,14
 466 -473 466 -473 33 -515.091796875 c 1,15,-1
 0.9208984375 -337.087890625 l 1,16,17
 353 -303 353 -303 479.879882812 -122.063476562 c 0,18,19
 550 -23 550 -23 549.606445312 102.358398438 c 0,20,21
 549 296 549 296 436 490.30078125 c 1,22,-1
 605 569 l 1,23,24
 608.128441311 564.411458428 608.128441311 564.411458428 709.53125 335.83203125 c 0,0,1
EndSplineSet
PairPos2: "'kern' Horizontal Kerning lookup 15-2" uniFBFE dx=57 dy=0 dh=57 dv=0 dx=0 dy=0 dh=0 dv=0
PairPos2: "'kern' Horizontal Kerning lookup 15-1" uniFEE7 dx=-170 dy=0 dh=-170 dv=0 dx=0 dy=0 dh=0 dv=0
PairPos2: "'kern' Horizontal Kerning lookup 15-2" uniFB90 dx=-216 dy=0 dh=-216 dv=0 dx=0 dy=0 dh=0 dv=0
PairPos2: "'kern' Horizontal Kerning lookup 15-2" uniFB8E dx=-216 dy=0 dh=-216 dv=0 dx=0 dy=0 dh=0 dv=0
PairPos2: "'kern' Horizontal Kerning lookup 15-2" uni06A9 dx=-216 dy=0 dh=-216 dv=0 dx=0 dy=0 dh=0 dv=0
PairPos2: "'kern' Horizontal Kerning lookup 15-2" uni064A dx=-57 dy=0 dh=-57 dv=0 dx=0 dy=0 dh=0 dv=0
PairPos2: "'kern' Horizontal Kerning lookup 15-2" afii57414 dx=-57 dy=0 dh=-57 dv=0 dx=0 dy=0 dh=0 dv=0
PairPos2: "'kern' Horizontal Kerning lookup 15-2" uni0649 dx=-57 dy=0 dh=-57 dv=0 dx=0 dy=0 dh=0 dv=0
PairPos2: "'kern' Horizontal Kerning lookup 15-2" uniFEEB dx=-170 dy=0 dh=-170 dv=0 dx=0 dy=0 dh=0 dv=0
PairPos2: "'kern' Horizontal Kerning lookup 15-2" uni0647 dx=-170 dy=0 dh=-170 dv=0 dx=0 dy=0 dh=0 dv=0
PairPos2: "'kern' Horizontal Kerning lookup 15-2" uni0646 dx=-57 dy=0 dh=-57 dv=0 dx=0 dy=0 dh=0 dv=0
PairPos2: "'kern' Horizontal Kerning lookup 15-2" uniFEE3 dx=-170 dy=0 dh=-170 dv=0 dx=0 dy=0 dh=0 dv=0
PairPos2: "'kern' Horizontal Kerning lookup 15-2" uni0645 dx=-170 dy=0 dh=-170 dv=0 dx=0 dy=0 dh=0 dv=0
PairPos2: "'kern' Horizontal Kerning lookup 15-2" uniFEFB dx=-136 dy=0 dh=-136 dv=0 dx=0 dy=0 dh=0 dv=0
PairPos2: "'kern' Horizontal Kerning lookup 15-2" uniFEDF dx=-136 dy=0 dh=-136 dv=0 dx=0 dy=0 dh=0 dv=0
PairPos2: "'kern' Horizontal Kerning lookup 15-2" uni0644 dx=-57 dy=0 dh=-57 dv=0 dx=0 dy=0 dh=0 dv=0
PairPos2: "'kern' Horizontal Kerning lookup 15-2" uniFEDB dx=-216 dy=0 dh=-216 dv=0 dx=0 dy=0 dh=0 dv=0
PairPos2: "'kern' Horizontal Kerning lookup 15-2" uni0643 dx=-136 dy=0 dh=-136 dv=0 dx=0 dy=0 dh=0 dv=0
PairPos2: "'kern' Horizontal Kerning lookup 15-2" uniFED7 dx=-170 dy=0 dh=-170 dv=0 dx=0 dy=0 dh=0 dv=0
PairPos2: "'kern' Horizontal Kerning lookup 15-2" uni0642 dx=-57 dy=0 dh=-57 dv=0 dx=0 dy=0 dh=0 dv=0
PairPos2: "'kern' Horizontal Kerning lookup 15-2" uniFED3 dx=-170 dy=0 dh=-170 dv=0 dx=0 dy=0 dh=0 dv=0
PairPos2: "'kern' Horizontal Kerning lookup 15-2" uni0641 dx=-170 dy=0 dh=-170 dv=0 dx=0 dy=0 dh=0 dv=0
PairPos2: "'kern' Horizontal Kerning lookup 15-2" uniFECF dx=-170 dy=0 dh=-170 dv=0 dx=0 dy=0 dh=0 dv=0
PairPos2: "'kern' Horizontal Kerning lookup 15-2" uniFECB dx=-170 dy=0 dh=-170 dv=0 dx=0 dy=0 dh=0 dv=0
PairPos2: "'kern' Horizontal Kerning lookup 15-2" uniFEC7 dx=-170 dy=0 dh=-170 dv=0 dx=0 dy=0 dh=0 dv=0
PairPos2: "'kern' Horizontal Kerning lookup 15-2" uni0638 dx=-170 dy=0 dh=-170 dv=0 dx=0 dy=0 dh=0 dv=0
PairPos2: "'kern' Horizontal Kerning lookup 15-2" uniFEC3 dx=-170 dy=0 dh=-170 dv=0 dx=0 dy=0 dh=0 dv=0
PairPos2: "'kern' Horizontal Kerning lookup 15-2" uni0637 dx=-170 dy=0 dh=-170 dv=0 dx=0 dy=0 dh=0 dv=0
PairPos2: "'kern' Horizontal Kerning lookup 15-2" uniFEBF dx=-170 dy=0 dh=-170 dv=0 dx=0 dy=0 dh=0 dv=0
PairPos2: "'kern' Horizontal Kerning lookup 15-2" uni0636 dx=-170 dy=0 dh=-170 dv=0 dx=0 dy=0 dh=0 dv=0
PairPos2: "'kern' Horizontal Kerning lookup 15-2" uniFEBB dx=-170 dy=0 dh=-170 dv=0 dx=0 dy=0 dh=0 dv=0
PairPos2: "'kern' Horizontal Kerning lookup 15-2" uni0635 dx=-170 dy=0 dh=-170 dv=0 dx=0 dy=0 dh=0 dv=0
PairPos2: "'kern' Horizontal Kerning lookup 15-2" uniFEB7 dx=-170 dy=0 dh=-170 dv=0 dx=0 dy=0 dh=0 dv=0
PairPos2: "'kern' Horizontal Kerning lookup 15-2" uni0634 dx=-170 dy=0 dh=-170 dv=0 dx=0 dy=0 dh=0 dv=0
PairPos2: "'kern' Horizontal Kerning lookup 15-2" uniFEB3 dx=-170 dy=0 dh=-170 dv=0 dx=0 dy=0 dh=0 dv=0
PairPos2: "'kern' Horizontal Kerning lookup 15-2" uni0633 dx=-170 dy=0 dh=-170 dv=0 dx=0 dy=0 dh=0 dv=0
PairPos2: "'kern' Horizontal Kerning lookup 15-2" uni0630 dx=-170 dy=0 dh=-170 dv=0 dx=0 dy=0 dh=0 dv=0
PairPos2: "'kern' Horizontal Kerning lookup 15-2" uni062F dx=-170 dy=0 dh=-170 dv=0 dx=0 dy=0 dh=0 dv=0
PairPos2: "'kern' Horizontal Kerning lookup 15-2" uniFEA7 dx=-170 dy=0 dh=-170 dv=0 dx=0 dy=0 dh=0 dv=0
PairPos2: "'kern' Horizontal Kerning lookup 15-2" uniFEA3 dx=-170 dy=0 dh=-170 dv=0 dx=0 dy=0 dh=0 dv=0
PairPos2: "'kern' Horizontal Kerning lookup 15-2" uniFE9F dx=-170 dy=0 dh=-170 dv=0 dx=0 dy=0 dh=0 dv=0
PairPos2: "'kern' Horizontal Kerning lookup 15-2" uniFE9B dx=-170 dy=0 dh=-170 dv=0 dx=0 dy=0 dh=0 dv=0
PairPos2: "'kern' Horizontal Kerning lookup 15-2" uni062B dx=-170 dy=0 dh=-170 dv=0 dx=0 dy=0 dh=0 dv=0
PairPos2: "'kern' Horizontal Kerning lookup 15-2" uniFE97 dx=-170 dy=0 dh=-170 dv=0 dx=0 dy=0 dh=0 dv=0
PairPos2: "'kern' Horizontal Kerning lookup 15-2" uni062A dx=-170 dy=0 dh=-170 dv=0 dx=0 dy=0 dh=0 dv=0
PairPos2: "'kern' Horizontal Kerning lookup 15-2" uni0629 dx=-170 dy=0 dh=-170 dv=0 dx=0 dy=0 dh=0 dv=0
PairPos2: "'kern' Horizontal Kerning lookup 15-2" uni0628 dx=-170 dy=0 dh=-170 dv=0 dx=0 dy=0 dh=0 dv=0
PairPos2: "'kern' Horizontal Kerning lookup 15-2" uni0627 dx=-136 dy=0 dh=-136 dv=0 dx=0 dy=0 dh=0 dv=0
PairPos2: "'kern' Horizontal Kerning lookup 15-2" uni0623 dx=-136 dy=0 dh=-136 dv=0 dx=0 dy=0 dh=0 dv=0
PairPos2: "'kern' Horizontal Kerning lookup 15-2" uni0622 dx=-136 dy=0 dh=-136 dv=0 dx=0 dy=0 dh=0 dv=0
PairPos2: "'kern' Horizontal Kerning lookup 15-2" uni0621 dx=-170 dy=0 dh=-170 dv=0 dx=0 dy=0 dh=0 dv=0
PairPos2: "'kern' Horizontal Kerning lookup 15-2" uniFB94 dx=-216 dy=0 dh=-216 dv=0 dx=0 dy=0 dh=0 dv=0
PairPos2: "'kern' Horizontal Kerning lookup 15-2" uniFB92 dx=-216 dy=0 dh=-216 dv=0 dx=0 dy=0 dh=0 dv=0
PairPos2: "'kern' Horizontal Kerning lookup 15-2" uni06AF dx=-216 dy=0 dh=-216 dv=0 dx=0 dy=0 dh=0 dv=0
PairPos2: "'kern' Horizontal Kerning lookup 15-2" afii57506 dx=-170 dy=0 dh=-170 dv=0 dx=0 dy=0 dh=0 dv=0
PairPos2: "'kern' Horizontal Kerning lookup 15-2" afii57440 dx=-170 dy=0 dh=-170 dv=0 dx=0 dy=0 dh=0 dv=0
PairPos2: "'kern' Horizontal Kerning lookup 15-2" uniFE8B dx=-170 dy=0 dh=-170 dv=0 dx=0 dy=0 dh=0 dv=0
EndChar

StartChar: uniFEB2
Encoding: 65202 65202 189
GlifName: uniF_E_B_2
Width: 2550
VWidth: 2762
GlyphClass: 2
Flags: W
AnchorPoint: "Anchor-7" 543.969 -773.127 basechar 0
AnchorPoint: "Anchor-10" 720.104 1125.38 basechar 0
LayerCount: 2
Fore
SplineSet
2029.23046875 0.986328125 m 0,0,1
 1873 0 1873 0 1787.17089844 151.263671875 c 1,2,3
 1703 -2 1703 -2 1534.66992188 0 c 0,4,5
 1419 1 1419 1 1345.2421875 75.4814453125 c 1,6,7
 1345 -90 1345 -90 1280.31347656 -224.483398438 c 0,8,9
 1141 -516 1141 -516 728.239257812 -516.422851562 c 0,10,11
 117 -517 117 -517 115.329101562 45.630859375 c 0,12,13
 115 263 115 263 225.908203125 497.967773438 c 1,14,-1
 386.430664062 433.432617188 l 1,15,16
 297 209 297 209 297.462890625 53.1259765625 c 0,17,18
 300 -329 300 -329 737.030273438 -330.336914062 c 0,19,20
 1169 -332 1169 -332 1165.44726562 98.251953125 c 0,21,22
 1164 280 1164 280 1083.02441406 508.853515625 c 1,23,-1
 1253.52734375 568.422851562 l 1,24,-1
 1319.90527344 355.416992188 l 2,25,26
 1372 188 1372 188 1528.0390625 186.145507812 c 16,27,28
 1657.29817535 184.997351429 1657.29817535 184.997351429 1674.82617188 345.454101562 c 2,29,-1
 1699.81738281 574.231445312 l 1,30,-1
 1852.99902344 574.231445312 l 1,31,-1
 1877.84667969 344.56640625 l 2,32,33
 1895 185 1895 185 2025.40820312 186.659179688 c 0,34,35
 2132.97066733 187.999634453 2132.97066733 187.999634453 2148.72460938 345.454101562 c 2,36,-1
 2173.71582031 595.231445312 l 1,37,-1
 2326.89648438 595.231445312 l 1,38,-1
 2351.74511719 344.56640625 l 2,39,40
 2366.99716361 187.029296875 2366.99716361 187.029296875 2540.17285156 187.029296875 c 2,41,-1
 2557.0703125 187.029296875 l 2,42,43
 2580.58007812 187.000514106 2580.58007812 187.000514106 2580.58007812 104.836914062 c 2,44,-1
 2580.58007812 87.23046875 l 2,45,46
 2581 0 2581 0 2557.0703125 0 c 2,47,-1
 2541.82519531 0 l 2,48,49
 2344 0 2344 0 2255.06347656 145.265625 c 1,50,51
 2188 2 2188 2 2029.23046875 0.986328125 c 0,0,1
EndSplineSet
EndChar

StartChar: uniFEB3
Encoding: 65203 65203 190
GlifName: uniF_E_B_3
Width: 1592
VWidth: 2762
GlyphClass: 2
Flags: W
AnchorPoint: "Anchor-10" 820.723 1322.01 basechar 0
AnchorPoint: "Anchor-7" 737.248 -216.521 basechar 0
LayerCount: 2
Fore
SplineSet
659.463867188 186.145507812 m 0,0,1
 799.165496449 185.999827421 799.165496449 185.999827421 816.583984375 345.454101562 c 2,2,-1
 841.575195312 574.231445312 l 1,3,-1
 994.755859375 574.231445312 l 1,4,-1
 1019.60449219 344.56640625 l 2,5,6
 1037 185 1037 185 1176.73339844 186.3203125 c 0,7,8
 1310 188 1310 188 1309.46582031 411.15234375 c 0,9,10
 1309 564 1309 564 1268.54492188 691.844726562 c 1,11,-1
 1442.70507812 722.809570312 l 1,12,13
 1487 582 1487 582 1486.12304688 418.848632812 c 0,14,15
 1485 0 1485 0 1177.35058594 0 c 0,16,17
 1012 0 1012 0 925.928710938 151.263671875 c 1,18,19
 841 -0 841 -0 659 0.5 c 0,20,21
 471 1 471 1 387.66796875 151.26171875 c 1,22,23
 302 0 302 0 46.06640625 0 c 2,24,-1
 -6.478515625 0 l 2,25,26
 -83.9228515625 0 -83.9228515625 0 -83.9228515625 87.224609375 c 2,27,-1
 -83.9228515625 104.836914062 l 2,28,29
 -84.0000275088 187.029296875 -84.0000275088 187.029296875 -6.478515625 187.029296875 c 2,30,-1
 46.2705078125 187.029296875 l 2,31,32
 268.787497149 187.000027952 268.787497149 187.000027952 287.69921875 343.783203125 c 2,33,-1
 315.384765625 573.303710938 l 1,34,-1
 467.219726562 573.303710938 l 1,35,-1
 491.140625 346.4140625 l 2,36,37
 508 186 508 186 659.463867188 186.145507812 c 0,0,1
EndSplineSet
EndChar

StartChar: uniFEB4
Encoding: 65204 65204 191
GlifName: uniF_E_B_4
Width: 1692
VWidth: 2755
GlyphClass: 2
Flags: W
AnchorPoint: "Anchor-7" 737.248 -216.521 basechar 0
AnchorPoint: "Anchor-10" 820.723 1322.01 basechar 0
LayerCount: 2
Fore
SplineSet
1290.48242188 345.454101562 m 2,0,1
 1315.47363281 595.231445312 l 1,2,-1
 1468.65429688 595.231445312 l 1,3,-1
 1493.50292969 344.56640625 l 2,4,5
 1508.99711858 187.029296875 1508.99711858 187.029296875 1681.93066406 187.029296875 c 2,6,-1
 1698.828125 187.029296875 l 2,7,8
 1722.33789062 186.999572795 1722.33789062 186.999572795 1722.33789062 104.836914062 c 2,9,-1
 1722.33789062 87.23046875 l 2,10,11
 1722 0 1722 0 1698.828125 0 c 2,12,-1
 1683.58300781 0 l 2,13,14
 1488 0 1488 0 1398.82128906 145.265625 c 1,15,16
 1332 2 1332 2 1170.98828125 0.986328125 c 0,17,18
 1013 -0 1013 -0 926.928710938 151.263671875 c 1,19,20
 842 -1 842 -1 656.09375 0 c 0,21,22
 471 1 471 1 387.66796875 151.26171875 c 1,23,24
 302 0 302 0 46.06640625 0 c 2,25,-1
 -6.478515625 0 l 2,26,27
 -83.9228515625 0 -83.9228515625 0 -83.9228515625 87.224609375 c 2,28,-1
 -83.9228515625 104.836914062 l 2,29,30
 -84.0000275088 187.029296875 -84.0000275088 187.029296875 -6.478515625 187.029296875 c 2,31,-1
 46.2705078125 187.029296875 l 2,32,33
 268.787497149 187.000027952 268.787497149 187.000027952 287.69921875 343.783203125 c 2,34,-1
 315.384765625 573.303710938 l 1,35,-1
 467.219726562 573.303710938 l 1,36,-1
 491.140625 346.4140625 l 2,37,38
 508 186 508 186 659.463867188 186.145507812 c 0,39,40
 799.165496449 185.999827421 799.165496449 185.999827421 816.583984375 345.454101562 c 2,41,-1
 841.575195312 574.231445312 l 1,42,-1
 994.755859375 574.231445312 l 1,43,-1
 1019.60449219 344.56640625 l 2,44,45
 1037 185 1037 185 1167.16601562 186.659179688 c 0,46,47
 1275 188 1275 188 1290.48242188 345.454101562 c 2,0,1
EndSplineSet
EndChar

StartChar: uniFEBA
Encoding: 65210 65210 197
GlifName: uniF_E_B_A_
Width: 2601
VWidth: 2762
GlyphClass: 2
Flags: W
AnchorPoint: "Anchor-10" 720.104 1125.38 basechar 0
AnchorPoint: "Anchor-7" 543.969 -773.127 basechar 0
LayerCount: 2
Fore
SplineSet
1584.19921875 186.391601562 m 1,0,-1
 1719.45507812 186.391601562 l 2,1,2
 2018.66503906 186.002929688 2018.66503906 186.002929688 2138.68164062 257.458007812 c 0,3,4
 2279 341 2279 341 2278.609375 462.627929688 c 0,5,6
 2278 538 2278 538 2225.24121094 586.038085938 c 0,7,8
 2171 635 2171 635 2074.05175781 634.525390625 c 0,9,10
 1865 632 1865 632 1584.19921875 186.391601562 c 1,0,-1
1617.82910156 0 m 2,11,12
 1438 0 1438 0 1345.23535156 73.998046875 c 1,13,14
 1345 -90 1345 -90 1280.31835938 -224.471679688 c 0,15,16
 1141 -516 1141 -516 728.239257812 -516.422851562 c 0,17,18
 117 -517 117 -517 115.329101562 45.630859375 c 0,19,20
 115 263 115 263 225.908203125 497.967773438 c 1,21,-1
 386.430664062 433.432617188 l 1,22,23
 297 209 297 209 297.462890625 53.1259765625 c 0,24,25
 300 -329 300 -329 737.030273438 -330.336914062 c 0,26,27
 1174 -332 1174 -332 1165.44726562 98.251953125 c 0,28,29
 1162 285 1162 285 1083.02441406 508.853515625 c 1,30,-1
 1253.52734375 568.422851562 l 1,31,-1
 1319.90234375 355.42578125 l 2,32,33
 1357 237 1357 237 1414.24023438 232.921875 c 1,34,-1
 1415.0234375 234.362304688 l 1,35,36
 1756 829 1756 829 2095.27929688 823.201171875 c 0,37,38
 2300 820 2300 820 2401.00683594 672.3046875 c 0,39,40
 2458 589 2458 589 2458.01367188 481.360351562 c 0,41,42
 2458 333 2458 333 2388.04882812 227.848632812 c 1,43,44
 2414.79083508 194.262695312 2414.79083508 194.262695312 2590.47167969 194.262695312 c 2,45,-1
 2607.91015625 194.262695312 l 2,46,47
 2631.41992188 193.995222509 2631.41992188 193.995222509 2631.41992188 104.836914062 c 2,48,-1
 2631.41992188 87.224609375 l 2,49,50
 2631 0 2631 0 2607.91015625 0 c 2,51,-1
 2585.32519531 0 l 2,52,53
 2346 0 2346 0 2265.56542969 106.125 c 1,54,55
 2109 0 2109 0 1714.22265625 0 c 2,56,-1
 1617.82910156 0 l 2,11,12
EndSplineSet
EndChar

StartChar: uniFEBB
Encoding: 65211 65211 198
GlifName: uniF_E_B_B_
Width: 1681
VWidth: 2762
GlyphClass: 2
Flags: W
AnchorPoint: "Anchor-10" 930.896 1322.8 basechar 0
AnchorPoint: "Anchor-7" 690.255 -219.672 basechar 0
LayerCount: 2
Fore
SplineSet
457.83984375 344.56640625 m 2,0,1
 466.812143461 254.056724102 466.812143461 254.056724102 536.805664062 232.921875 c 1,2,-1
 537.588867188 234.362304688 l 1,3,4
 880 829 880 829 1217.84472656 823.201171875 c 0,5,6
 1423 820 1423 820 1523.57226562 672.3046875 c 0,7,8
 1581 589 1581 589 1580.57910156 481.360351562 c 0,9,10
 1581 0 1581 0 836.788085938 0 c 2,11,-1
 740.39453125 0 l 2,12,13
 452 0 452 0 362.321289062 150.516601562 c 1,14,15
 256 0 256 0 9.3232421875 0 c 2,16,-1
 -6.478515625 0 l 2,17,18
 -83.9228515625 0 -83.9228515625 0 -83.9228515625 87.224609375 c 2,19,-1
 -83.9228515625 104.836914062 l 2,20,21
 -83.9999642862 184.962890625 -83.9999642862 184.962890625 -6.478515625 184.962890625 c 2,22,-1
 8.5068359375 184.962890625 l 2,23,24
 238.765264812 184.999962208 238.765264812 184.999962208 254.819335938 345.454101562 c 2,25,-1
 279.810546875 595.231445312 l 1,26,-1
 432.991210938 595.231445312 l 1,27,-1
 457.83984375 344.56640625 l 2,0,1
706.764648438 186.391601562 m 1,28,-1
 842.020507812 186.391601562 l 2,29,30
 1131.59724093 186.00322257 1131.59724093 186.00322257 1267.44726562 263.658203125 c 0,31,32
 1401 340 1401 340 1401.17480469 462.627929688 c 0,33,34
 1401 538 1401 538 1347.80664062 586.038085938 c 0,35,36
 1293 635 1293 635 1196.6171875 634.525390625 c 0,37,38
 987 632 987 632 706.764648438 186.391601562 c 1,28,-1
EndSplineSet
EndChar

StartChar: uniFEBC
Encoding: 65212 65212 199
GlifName: uniF_E_B_C_
Width: 1724
VWidth: 2762
GlyphClass: 2
Flags: W
AnchorPoint: "Anchor-7" 690.255 -219.672 basechar 0
AnchorPoint: "Anchor-10" 930.896 1322.8 basechar 0
LayerCount: 2
Fore
SplineSet
706.764648438 186.391601562 m 1,0,-1
 842.020507812 186.391601562 l 2,1,2
 1140 186 1140 186 1266.4140625 263.658203125 c 0,3,4
 1401 345 1401 345 1401.17480469 462.627929688 c 0,5,6
 1401 538 1401 538 1347.80664062 586.038085938 c 0,7,8
 1293 635 1293 635 1196.6171875 634.525390625 c 0,9,10
 987 632 987 632 706.764648438 186.391601562 c 1,0,-1
1510.61425781 227.848632812 m 1,11,12
 1537.78746243 194.262695312 1537.78746243 194.262695312 1713.03710938 194.262695312 c 2,13,-1
 1730.47558594 194.262695312 l 2,14,15
 1753.98535156 194.000163578 1753.98535156 194.000163578 1753.98535156 104.836914062 c 2,16,-1
 1753.98535156 87.224609375 l 2,17,18
 1754 0 1754 0 1730.47558594 0 c 2,19,-1
 1707.890625 0 l 2,20,21
 1469 0 1469 0 1388.13085938 106.125 c 1,22,23
 1225 0 1225 0 836.788085938 0 c 2,24,-1
 740.39453125 0 l 2,25,26
 454 0 454 0 362.321289062 148.516601562 c 1,27,28
 255 0 255 0 9.3232421875 0 c 2,29,-1
 -6.478515625 0 l 2,30,31
 -83.9228515625 0 -83.9228515625 0 -83.9228515625 87.224609375 c 2,32,-1
 -83.9228515625 104.836914062 l 2,33,34
 -83.9999642862 184.962890625 -83.9999642862 184.962890625 -6.478515625 184.962890625 c 2,35,-1
 8.5068359375 184.962890625 l 2,36,37
 238.765264812 184.999962208 238.765264812 184.999962208 254.819335938 345.454101562 c 2,38,-1
 279.810546875 595.231445312 l 1,39,-1
 432.991210938 595.231445312 l 1,40,-1
 457.83984375 344.56640625 l 2,41,42
 467 254 467 254 536.805664062 232.921875 c 1,43,-1
 537.588867188 234.362304688 l 1,44,45
 880 829 880 829 1217.84472656 823.201171875 c 0,46,47
 1423 820 1423 820 1523.57226562 672.3046875 c 0,48,49
 1581 589 1581 589 1580.57910156 481.360351562 c 0,50,51
 1581 333 1581 333 1510.61425781 227.848632812 c 1,11,12
EndSplineSet
EndChar

StartChar: uniFEC2
Encoding: 65218 65218 205
GlifName: uniF_E_C_2
Width: 1529
VWidth: 2762
GlyphClass: 2
Flags: W
AnchorPoint: "Anchor-7" 646.253 -221.983 basechar 0
AnchorPoint: "Anchor-10" 463.007 1637.04 basechar 0
LayerCount: 2
Fore
SplineSet
503.7421875 188.458984375 m 1,0,-1
 638.997070312 188.458984375 l 2,1,2
 952 188 952 188 1063.44628906 254.348632812 c 0,3,4
 1198 333 1198 333 1198.15136719 462.627929688 c 0,5,6
 1198 536 1198 536 1144.78515625 586.038085938 c 0,7,8
 1091 635 1091 635 993.594726562 634.525390625 c 0,9,10
 782 632 782 632 503.7421875 188.458984375 c 1,0,-1
1186.9296875 105.76171875 m 1,11,12
 1152 83 1152 83 1103.22949219 63.087890625 c 0,13,14
 952 0 952 0 633.765625 0 c 2,15,-1
 108.961914062 0 l 1,16,-1
 108.961914062 186.206054688 l 1,17,-1
 308.737304688 186.352539062 l 1,18,19
 330 222 330 222 378.198242188 288.044921875 c 5,20,-1
 378.198242188 1476.96484375 l 5,21,-1
 555.155273438 1476.96484375 l 1,22,-1
 555.155273438 559.151367188 l 1,23,24
 766 823 766 823 1011.78808594 823.201171875 c 0,25,26
 1215 823 1215 823 1320.55761719 672.29296875 c 0,27,28
 1378 590 1378 590 1379.00292969 488.3984375 c 0,29,30
 1380 344 1380 344 1311.390625 232.021484375 c 1,31,32
 1341.7885159 194.262695312 1341.7885159 194.262695312 1517.56152344 194.262695312 c 2,33,-1
 1534.99902344 194.262695312 l 2,34,35
 1558.50976562 194.00536571 1558.50976562 194.00536571 1558.50976562 104.836914062 c 2,36,-1
 1558.50976562 87.23046875 l 2,37,38
 1559 0 1559 0 1534.99902344 0 c 2,39,-1
 1512.41503906 0 l 2,40,41
 1277 0 1277 0 1186.9296875 105.76171875 c 1,11,12
EndSplineSet
EndChar

StartChar: uniFEC3
Encoding: 65219 65219 206
GlifName: uniF_E_C_3
Width: 1347
VWidth: 2762
GlyphClass: 2
Flags: W
AnchorPoint: "Anchor-7" 506.253 -221.983 basechar 0
AnchorPoint: "Anchor-10" 323.007 1637.04 basechar 0
LayerCount: 2
Fore
SplineSet
501.006835938 0 m 2,0,-1
 -6.478515625 0 l 2,1,2
 -83.9228515625 0 -83.9228515625 0 -83.9228515625 87.224609375 c 2,3,-1
 -83.9228515625 104.836914062 l 2,4,5
 -83.9998523723 185.844690005 -83.9998523723 185.844690005 -6.4931640625 185.99609375 c 2,6,-1
 175.978515625 186.352539062 l 1,7,8
 198 223 198 223 245.440429688 288.044921875 c 5,9,-1
 245.440429688 1476.96484375 l 5,10,-1
 422.396484375 1476.96484375 l 1,11,-1
 422.396484375 559.151367188 l 1,12,13
 633 823 633 823 882.063476562 823.201171875 c 8,14,15
 1085 823 1085 823 1187.79101562 672.3046875 c 0,16,17
 1245 589 1245 589 1244.79785156 481.360351562 c 0,18,19
 1245 0 1245 0 501.006835938 0 c 2,0,-1
370.983398438 188.458984375 m 1,20,-1
 506.239257812 188.458984375 l 2,21,22
 799.617891585 188.00369674 799.617891585 188.00369674 930.6875 264.348632812 c 0,23,24
 1064 342 1064 342 1065.39355469 462.627929688 c 0,25,26
 1066 536 1066 536 1012.02636719 586.038085938 c 0,27,28
 958 635 958 635 860.8359375 634.525390625 c 0,29,30
 650 632 650 632 370.983398438 188.458984375 c 1,20,-1
EndSplineSet
EndChar

StartChar: uniFEC4
Encoding: 65220 65220 207
GlifName: uniF_E_C_4
Width: 1396
VWidth: 2762
GlyphClass: 2
Flags: W
AnchorPoint: "Anchor-10" 323.007 1637.04 basechar 0
AnchorPoint: "Anchor-7" 506.253 -221.983 basechar 0
LayerCount: 2
Fore
SplineSet
370.983398438 188.458984375 m 1,0,-1
 506.239257812 188.458984375 l 2,1,2
 818 188 818 188 930.6875 254.348632812 c 0,3,4
 1064 332 1064 332 1065.39355469 462.627929688 c 0,5,6
 1066 536 1066 536 1012.02636719 586.038085938 c 0,7,8
 958 635 958 635 860.8359375 634.525390625 c 0,9,10
 650 632 650 632 370.983398438 188.458984375 c 1,0,-1
501.006835938 0 m 2,11,-1
 -6.478515625 0 l 2,12,13
 -83.9228515625 0 -83.9228515625 0 -83.9228515625 87.224609375 c 2,14,-1
 -83.9228515625 104.836914062 l 2,15,16
 -83.9998523723 185.844690005 -83.9998523723 185.844690005 -6.4931640625 185.99609375 c 2,17,-1
 175.978515625 186.352539062 l 1,18,19
 191 211 191 211 245.440429688 288.044921875 c 5,20,-1
 245.440429688 1476.96484375 l 5,21,-1
 422.396484375 1476.96484375 l 1,22,-1
 422.396484375 559.151367188 l 1,23,24
 634 823 634 823 879.029296875 823.201171875 c 0,25,26
 1081 823 1081 823 1187.79882812 672.29296875 c 0,27,28
 1246 590 1246 590 1246.24414062 488.3984375 c 0,29,30
 1248 344 1248 344 1178.63183594 232.021484375 c 1,31,32
 1209.78327333 194.262695312 1209.78327333 194.262695312 1384.80273438 194.262695312 c 2,33,-1
 1402.24023438 194.262695312 l 2,34,35
 1425.75097656 194.00275328 1425.75097656 194.00275328 1425.75097656 104.836914062 c 2,36,-1
 1425.75097656 87.23046875 l 2,37,38
 1426 0 1426 0 1402.24023438 0 c 2,39,-1
 1379.65625 0 l 2,40,41
 1144 0 1144 0 1054.17089844 105.76171875 c 1,42,43
 895 0 895 0 501.006835938 0 c 2,11,-1
EndSplineSet
EndChar

StartChar: uniFECA
Encoding: 65226 65226 213
GlifName: uniF_E_C_A_
Width: 1187
VWidth: 2762
GlyphClass: 2
Flags: W
AnchorPoint: "Anchor-10" 580.171 1324.4 basechar 0
AnchorPoint: "Anchor-7" 503.391 -897.848 basechar 0
LayerCount: 2
Fore
SplineSet
280.366210938 -195.299804688 m 4,0,1
 279 -492 279 -492 753.392578125 -492.64453125 c 4,2,3
 926 -493 926 -493 1078.74121094 -441.291015625 c 5,4,-1
 1114.32910156 -617.78515625 l 5,5,6
 949 -674 949 -674 748.989257812 -673.477539062 c 4,7,8
 105 -675 105 -675 107.19140625 -194.905273438 c 4,9,10
 108 103 108 103 421.26953125 302.025390625 c 5,11,12
 148 461 148 461 147.178710938 612.59765625 c 4,13,14
 147 723 147 723 320.19140625 800.370117188 c 4,15,16
 442 855 442 855 589.330078125 853.100585938 c 4,17,18
 753 852 753 852 868.68359375 802.158203125 c 4,19,20
 1027 735 1027 735 1030.71289062 619.692382812 c 4,21,22
 1035 482 1035 482 729.651367188 291.642578125 c 5,23,24
 908.517578125 194.262695312 908.517578125 194.262695312 1127.01074219 194.262695312 c 6,25,-1
 1192.23925781 194.262695312 l 6,26,27
 1215.75 194.002929688 1215.75 194.002929688 1215.75 104.836914062 c 6,28,-1
 1215.75 87.23046875 l 6,29,30
 1216 0 1216 0 1192.23925781 0 c 6,31,-1
 1126.72753906 0 l 6,32,33
 841 0 841 0 585.450195312 191.198242188 c 5,34,35
 281 22 281 22 280.366210938 -195.299804688 c 4,0,1
586.578125 407.479492188 m 5,36,37
 851 550 851 550 850.215820312 603.37109375 c 4,38,39
 850 666 850 666 586.604492188 666.024414062 c 4,40,41
 334 666 334 666 333.274414062 592.391601562 c 4,42,43
 333 545 333 545 586.578125 407.479492188 c 5,36,37
EndSplineSet
EndChar

StartChar: uniFECB
Encoding: 65227 65227 214
GlifName: uniF_E_C_B_
Width: 1067
VWidth: 2762
GlyphClass: 2
Flags: W
AnchorPoint: "Anchor-10" 494.85 1341.98 basechar 0
AnchorPoint: "Anchor-7" 485.528 -236.347 basechar 0
LayerCount: 2
Fore
SplineSet
-6.478515625 0 m 2,0,1
 -83.9228515625 0.0137356721566 -83.9228515625 0.0137356721566 -83.9228515625 87.224609375 c 2,2,-1
 -83.9228515625 104.836914062 l 2,3,4
 -84.0002265672 194.261851487 -84.0002265672 194.261851487 -6.4853515625 194.262695312 c 2,5,-1
 262.639648438 194.265625 l 1,6,7
 161.999098938 274.12570983 161.999098938 274.12570983 160.827148438 437.627929688 c 0,8,9
 159 577 159 577 239.581054688 688.647460938 c 0,10,11
 358 854 358 854 591.596679688 852.333007812 c 0,12,13
 788 851 788 851 913.109375 718.842773438 c 1,14,-1
 846.712890625 569.453125 l 1,15,16
 722 661 722 661 614.984375 667.564453125 c 0,17,18
 547 672 547 672 493.96484375 654.12109375 c 0,19,20
 440 637 440 637 400.509765625 598.139648438 c 0,21,22
 337 535 337 535 334.461914062 445.248046875 c 0,23,24
 330 318 330 318 497.318359375 232.15625 c 0,25,26
 525.008690918 217.995555509 525.008690918 217.995555509 548.208007812 223.627929688 c 2,27,-1
 960.920898438 323.827148438 l 1,28,-1
 960.920898438 129.965820312 l 1,29,30
 545.687344578 -0.0979331689014 545.687344578 -0.0979331689014 109.1484375 -0.0205078125 c 2,31,-1
 -6.478515625 0 l 2,0,1
EndSplineSet
EndChar

StartChar: uniFECC
Encoding: 65228 65228 215
GlifName: uniF_E_C_C_
Width: 1122
VWidth: 2762
GlyphClass: 2
Flags: W
AnchorPoint: "Anchor-10" 553.83 1321.28 basechar 0
AnchorPoint: "Anchor-7" 547.686 -225.347 basechar 0
LayerCount: 2
Fore
SplineSet
716.326171875 263.1328125 m 1,0,1
 846.006567093 185.99609375 846.006567093 185.99609375 1106.33984375 185.99609375 c 2,2,-1
 1128.35351562 185.99609375 l 2,3,4
 1151.86425781 185.999977576 1151.86425781 185.999977576 1151.86425781 104.836914062 c 2,5,-1
 1151.86425781 87.23046875 l 2,6,7
 1152 0 1152 0 1128.35351562 0 c 2,8,-1
 1106.70019531 0 l 2,9,10
 772 0 772 0 576.349609375 150.970703125 c 1,11,12
 400 0 400 0 15.919921875 0 c 2,13,-1
 -6.478515625 0 l 2,14,15
 -83.9228515625 0 -83.9228515625 0 -83.9228515625 87.224609375 c 2,16,-1
 -83.9228515625 104.836914062 l 2,17,18
 -83.999996287 185.99609375 -83.999996287 185.99609375 -6.478515625 185.99609375 c 2,19,-1
 19.0595703125 185.99609375 l 2,20,21
 309 186 309 186 425.389648438 263.243164062 c 1,22,23
 134 428 134 428 133.624023438 583.952148438 c 0,24,25
 133 694 133 694 306.637695312 771.720703125 c 0,26,27
 428 826 428 826 583.314453125 824.59765625 c 0,28,29
 736 824 736 824 855.127929688 773.5078125 c 0,30,31
 1016 706 1016 706 1017.15722656 591.046875 c 0,32,33
 1019 453 1019 453 716.326171875 263.1328125 c 1,0,1
573.022460938 378.828125 m 1,34,35
 827 516 827 516 826.327148438 574.719726562 c 0,36,37
 826 637 826 637 573.048828125 637.374023438 c 0,38,39
 321 638 321 638 319.71875 563.741210938 c 0,40,41
 319 516 319 516 573.022460938 378.828125 c 1,34,35
EndSplineSet
EndChar

StartChar: uniFEDA
Encoding: 65242 65242 229
GlifName: uniF_E_D_A_
Width: 1991
VWidth: 2762
GlyphClass: 2
Flags: W
AnchorPoint: "Anchor-10" 682.425 1712.25 basechar 0
AnchorPoint: "Anchor-7" 598.535 -274.335 basechar 0
LayerCount: 2
Fore
SplineSet
720 787 m 1,0,1
 1071 747 1071 747 1071.64941406 856.05078125 c 0,2,3
 1072 932 1072 932 962.100585938 948.255859375 c 0,4,5
 758 979 758 979 761.80859375 1152.01953125 c 0,6,7
 766.989701992 1350.60528954 766.989701992 1350.60528954 1124.76171875 1375.57226562 c 2,8,-1
 1138 1376.49609375 l 1,9,-1
 1138 1247 l 1,10,11
 895 1225 895 1225 895.711914062 1144.40332031 c 0,12,13
 896 1079 896 1079 1021.27441406 1059.73242188 c 0,14,15
 1205 1031 1205 1031 1205.03808594 886.8984375 c 0,16,17
 1205 746 1205 746 1087.19140625 679.7890625 c 0,18,19
 978 619 978 619 720 658.38671875 c 1,20,-1
 720 787 l 1,0,1
1638 211 m 1,21,22
 1595 118 1595 118 1395.15332031 54.5029296875 c 0,23,24
 1226 1 1226 1 897.32421875 0.384765625 c 0,25,26
 107 -2 107 -2 106.961914062 516.837890625 c 0,27,28
 107 649 107 649 146.125 762.041015625 c 1,29,-1
 300.875 721.403320312 l 1,30,31
 277 602 277 602 277.845703125 518.591796875 c 0,32,33
 282 187 282 187 901.221679688 186.162109375 c 0,34,35
 1012 186 1012 186 1129.1953125 196.078125 c 0,36,37
 1576 235 1576 235 1570.36230469 538.80078125 c 1,38,-1
 1570.36230469 1472.49121094 l 1,39,-1
 1750.65039062 1472.49121094 l 1,40,-1
 1750.65039062 521.0625 l 2,41,42
 1750.9997259 186.262695312 1750.9997259 186.262695312 1975.57519531 186.262695312 c 2,43,-1
 1997.23144531 186.262695312 l 2,44,45
 2020.7421875 186.002849401 2020.7421875 186.002849401 2020.7421875 109.239257812 c 2,46,-1
 2020.7421875 87.23046875 l 2,47,48
 2021 0 2021 0 1997.23144531 0 c 2,49,-1
 1968.37109375 0 l 2,50,51
 1706 0 1706 0 1638 211 c 1,21,22
EndSplineSet
EndChar

StartChar: uniFEDB
Encoding: 65243 65243 230
GlifName: uniF_E_D_B_
Width: 934
VWidth: 2762
GlyphClass: 2
Flags: W
AnchorPoint: "Anchor-7" 353.893 -232.533 basechar 0
AnchorPoint: "Anchor-10" 318.464 1572.17 basechar 0
LayerCount: 2
Fore
SplineSet
230.924804688 1023.26855469 m 5,0,1
 429 819 429 819 575.297851562 648.6640625 c 4,2,3
 704.989466664 495.813764414 704.989466664 495.813764414 704.321289062 357.130859375 c 0,4,5
 702 0 702 0 154.192382812 0 c 2,6,-1
 -6.478515625 0 l 2,7,8
 -83.9228515625 0 -83.9228515625 0 -83.9228515625 87.224609375 c 2,9,-1
 -83.9228515625 104.836914062 l 2,10,11
 -83.999996287 185.99609375 -83.999996287 185.99609375 -6.478515625 185.99609375 c 2,12,-1
 153.41796875 185.99609375 l 2,13,14
 525 186 525 186 525.850585938 355.032226562 c 0,15,16
 526 427 526 427 430.42578125 539 c 0,17,18
 272 726 272 726 160.086914062 834.56640625 c 4,19,20
 68 925 68 925 68.001953125 1018.66601562 c 4,21,22
 68.0000043132 1146.71659163 68.0000043132 1146.71659163 201.372070312 1199.4453125 c 6,23,-1
 874 1465.36914062 l 5,24,-1
 874 1273.27636719 l 5,25,-1
 230.924804688 1023.26855469 l 5,0,1
EndSplineSet
EndChar

StartChar: uniFEDC
Encoding: 65244 65244 231
GlifName: uniF_E_D_C_
Width: 995
VWidth: 2762
GlyphClass: 2
Flags: W
AnchorPoint: "Anchor-10" 318.464 1572.17 basechar 0
AnchorPoint: "Anchor-7" 353.893 -232.533 basechar 0
LayerCount: 2
Fore
SplineSet
767.59765625 339.201171875 m 6,0,1
 887.646760412 185.99609375 887.646760412 185.99609375 976.7109375 185.99609375 c 6,2,-1
 1001.29785156 185.99609375 l 6,3,4
 1024.80664062 185.999968133 1024.80664062 185.999968133 1024.80664062 104.836914062 c 6,5,-1
 1024.80664062 87.23046875 l 6,6,7
 1025 0 1025 0 1001.29785156 0 c 6,8,-1
 985.948242188 0 l 6,9,10
 799 0 799 0 643 209 c 5,11,12
 575 0 575 0 154.192382812 0 c 6,13,-1
 -6.478515625 0 l 2,14,15
 -83.9228515625 0 -83.9228515625 0 -83.9228515625 87.224609375 c 2,16,-1
 -83.9228515625 104.836914062 l 2,17,18
 -83.999996287 185.99609375 -83.999996287 185.99609375 -6.478515625 185.99609375 c 2,19,-1
 153.41796875 185.99609375 l 6,20,21
 360 186 360 186 435.482421875 231.599609375 c 4,22,23
 496 268 496 268 498.276367188 328 c 4,24,25
 500 375 500 375 475.5 413 c 4,26,27
 431 479 431 479 402 516 c 6,28,-1
 143 847 l 6,29,30
 73 936 73 936 70 1015 c 4,31,32
 66 1148 66 1148 202.849609375 1201.44628906 c 6,33,-1
 875.477539062 1465.37011719 l 5,34,-1
 875.477539062 1273.27734375 l 5,35,-1
 231 1024 l 5,36,-1
 767.59765625 339.201171875 l 6,0,1
EndSplineSet
EndChar

StartChar: uniFEDE
Encoding: 65246 65246 233
GlifName: uniF_E_D_E_
Width: 1485
VWidth: 2762
GlyphClass: 2
Flags: W
AnchorPoint: "Anchor-10" 575.06 1221.58 basechar 0
AnchorPoint: "Anchor-7" 543.969 -773.127 basechar 0
LayerCount: 2
Fore
SplineSet
697.030273438 -330.336914062 m 24,0,1
 1076.09964547 -326.999122599 1076.09964547 -326.999122599 1077.05761719 97.96484375 c 6,2,-1
 1080.16210938 1475.14257812 l 5,3,-1
 1255.85546875 1475.14257812 l 1,4,-1
 1255.30664062 498.891601562 l 2,5,6
 1255 347 1255 347 1309.58886719 270.918945312 c 0,7,8
 1368.81621267 186.262695312 1368.81621267 186.262695312 1472.6796875 186.262695312 c 2,9,-1
 1491.47070312 186.262695312 l 2,10,11
 1514.98046875 186.000218059 1514.98046875 186.000218059 1514.98046875 109.239257812 c 2,12,-1
 1514.98046875 87.23046875 l 2,13,14
 1515 0 1515 0 1491.47070312 0 c 2,15,-1
 1468.61621094 0 l 2,16,17
 1333.82100569 2.84217094304e-14 1333.82100569 2.84217094304e-14 1256.28710938 77.25390625 c 2,18,-1
 1249.796875 83.720703125 l 1,19,20
 1248 46 1248 46 1239.05859375 -32.2880859375 c 0,21,22
 1185 -513 1185 -513 688.239257812 -516.422851562 c 24,23,24
 107 -521 107 -521 105.329101562 25.630859375 c 0,25,26
 105 245 105 245 195.908203125 437.967773438 c 1,27,-1
 356.430664062 373.432617188 l 1,28,29
 287 199 287 199 287.462890625 33.1259765625 c 0,30,31
 290 -334 290 -334 697.030273438 -330.336914062 c 24,0,1
EndSplineSet
EndChar

StartChar: uniFEDF
Encoding: 65247 65247 234
GlifName: uniF_E_D_F_
Width: 584
VWidth: 2762
GlyphClass: 2
Flags: W
AnchorPoint: "Anchor-10" 332.192 1638.96 basechar 0
AnchorPoint: "Anchor-7" 270.619 -225.169 basechar 0
LayerCount: 2
Fore
SplineSet
-6.478515625 0 m 6,0,1
 -83.9228515625 0 -83.9228515625 0 -83.9228515625 87.224609375 c 6,2,-1
 -83.9228515625 104.836914062 l 6,3,4
 -83.999996287 185.99609375 -83.999996287 185.99609375 -6.478515625 185.99609375 c 6,5,-1
 19.1572265625 185.99609375 l 6,6,7
 257.955078125 185.999999265 257.955078125 185.999999265 257.955078125 414.372070312 c 6,8,-1
 257.955078125 1476.30957031 l 5,9,-1
 434.913085938 1476.30957031 l 5,10,-1
 434.913085938 409.05078125 l 6,11,12
 435 0 435 0 14.3037109375 0 c 6,13,-1
 -6.478515625 0 l 6,0,1
EndSplineSet
EndChar

StartChar: uniFEE0
Encoding: 65248 65248 235
GlifName: uniF_E_E_0
Width: 678
VWidth: 2762
GlyphClass: 2
Flags: W
AnchorPoint: "Anchor-7" 270.619 -225.169 basechar 0
AnchorPoint: "Anchor-10" 332.192 1638.96 basechar 0
LayerCount: 2
Fore
SplineSet
346.765625 148.415039062 m 1,0,1
 245 0 245 0 20.1923828125 0 c 2,2,-1
 -6.478515625 0 l 2,3,4
 -83.9228515625 0 -83.9228515625 0 -83.9228515625 87.224609375 c 2,5,-1
 -83.9228515625 104.836914062 l 2,6,7
 -83.999996287 185.99609375 -83.999996287 185.99609375 -6.478515625 185.99609375 c 2,8,-1
 22.54296875 185.99609375 l 2,9,10
 262.2265625 186.000003696 262.2265625 186.000003696 262.2265625 411.12109375 c 6,11,-1
 262.2265625 1476.22070312 l 5,12,-1
 442.487304688 1476.22070312 l 1,13,-1
 442.487304688 411.130859375 l 2,14,15
 441.999991545 185.99609375 441.999991545 185.99609375 665.22265625 185.99609375 c 2,16,-1
 674.662109375 185.99609375 l 2,17,18
 708.505859375 185.999943787 708.505859375 185.999943787 708.505859375 104.836914062 c 2,19,-1
 708.505859375 87.23046875 l 2,20,21
 709 0 709 0 674.662109375 0 c 2,22,-1
 667.576171875 0 l 2,23,24
 452 0 452 0 346.765625 148.415039062 c 1,0,1
EndSplineSet
EndChar

StartChar: uniFEE2
Encoding: 65250 65250 237
GlifName: uniF_E_E_2
Width: 1315
VWidth: 2454
GlyphClass: 2
Flags: W
AnchorPoint: "Anchor-10" 723.558 1319.64 basechar 0
AnchorPoint: "Anchor-7" 753.994 -315.441 basechar 0
LayerCount: 2
Fore
SplineSet
856.708984375 -20.7646484375 m 24,0,1
 736 -22 736 -22 593.131835938 56.0126953125 c 0,2,3
 553 78 553 78 512.3515625 100.84765625 c 0,4,5
 456 132 456 132 417.395507812 131.426757812 c 0,6,7
 289.904296875 129.998928179 289.904296875 129.998928179 289.904296875 -192.80859375 c 2,8,-1
 289.904296875 -676.813476562 l 1,9,-1
 108.961914062 -676.813476562 l 1,10,-1
 108.961914062 -187.211914062 l 2,11,12
 109 281 109 281 383.358398438 323.453125 c 1,13,14
 442 477 442 477 531.387695312 584.806640625 c 0,15,16
 637 713 637 713 784.919921875 712.663085938 c 0,17,18
 945 713 945 713 1033.87109375 583.616210938 c 0,19,20
 1083 512 1083 512 1118.37109375 385.765625 c 0,21,22
 1147 283 1147 283 1168.01367188 244.796875 c 0,23,24
 1199.98378633 187.029296875 1199.98378633 187.029296875 1307.14453125 187.029296875 c 2,25,-1
 1321.51660156 187.029296875 l 2,26,27
 1345.02734375 186.999965887 1345.02734375 186.999965887 1345.02734375 104.836914062 c 2,28,-1
 1345.02734375 87.23046875 l 2,29,30
 1345 0 1345 0 1321.51660156 0 c 2,31,-1
 1306.86328125 0 l 2,32,33
 1156 0 1156 0 1084.1328125 110 c 1,34,35
 1072 91 1072 91 1057.58691406 73.3662109375 c 0,36,37
 982 -19 982 -19 856.708984375 -20.7646484375 c 24,0,1
568.228515625 297.315429688 m 1,38,39
 670 209 670 209 758.955078125 180.086914062 c 0,40,41
 978 107 978 107 964.150390625 296.606445312 c 0,42,43
 958 380 958 380 907.85546875 453.51953125 c 24,44,45
 859 526 859 526 786.631835938 526.309570312 c 0,46,47
 651 528 651 528 568.228515625 297.315429688 c 1,38,39
EndSplineSet
EndChar

StartChar: uniFEE3
Encoding: 65251 65251 238
GlifName: uniF_E_E_3
Width: 1067
VWidth: 2762
GlyphClass: 2
Flags: W
AnchorPoint: "Anchor-10" 569.558 1321.57 basechar 0
AnchorPoint: "Anchor-7" 508.529 -224.075 basechar 0
LayerCount: 2
Fore
SplineSet
311.698242188 130.96875 m 1,0,1
 226 0 226 0 11.8779296875 0 c 2,2,-1
 -7.5791015625 0 l 2,3,4
 -83.9228515625 0 -83.9228515625 0 -83.9228515625 87.224609375 c 2,5,-1
 -83.9228515625 104.836914062 l 2,6,7
 -83.999996287 185.99609375 -83.999996287 185.99609375 -7.5791015625 185.99609375 c 2,8,-1
 7.7744140625 185.99609375 l 2,9,10
 163 186 163 186 260.388671875 406.997070312 c 0,11,12
 309 518 309 518 360.397460938 584.806640625 c 0,13,14
 459 713 459 713 613.9296875 712.663085938 c 0,15,16
 774 713 774 713 862.880859375 583.616210938 c 0,17,18
 956 447 956 447 956.163085938 304.131835938 c 0,19,20
 956 153 956 153 886.596679688 70.3662109375 c 0,21,22
 810 -22 810 -22 685.71875 -20.7646484375 c 0,23,24
 484 -20 484 -20 311.698242188 130.96875 c 1,0,1
397.23828125 297.315429688 m 1,25,26
 499 209 499 209 587.96484375 180.086914062 c 0,27,28
 805.569149534 107.211502802 805.569149534 107.211502802 793.16015625 296.606445312 c 0,29,30
 787 380 787 380 736.865234375 453.51953125 c 24,31,32
 688 526 688 526 615.641601562 526.309570312 c 0,33,34
 480 528 480 528 397.23828125 297.315429688 c 1,25,26
EndSplineSet
EndChar

StartChar: uniFEE4
Encoding: 65252 65252 239
GlifName: uniF_E_E_4
Width: 1144
VWidth: 2762
GlyphClass: 2
Flags: W
AnchorPoint: "Anchor-7" 508.529 -224.075 basechar 0
AnchorPoint: "Anchor-10" 552.558 1324.57 basechar 0
LayerCount: 2
Fore
SplineSet
913.142578125 110 m 1,0,1
 901 91 901 91 886.596679688 73.3662109375 c 0,2,3
 809 -22 809 -22 685.71875 -20.7646484375 c 0,4,5
 483 -19 483 -19 311.698242188 130.96875 c 1,6,7
 226 0 226 0 11.8779296875 0 c 2,8,-1
 -7.5791015625 0 l 2,9,10
 -83.9228515625 0 -83.9228515625 0 -83.9228515625 87.224609375 c 2,11,-1
 -83.9228515625 104.836914062 l 2,12,13
 -83.999996287 185.99609375 -83.999996287 185.99609375 -7.5791015625 185.99609375 c 2,14,-1
 7.7744140625 185.99609375 l 2,15,16
 163 186 163 186 260.388671875 406.997070312 c 0,17,18
 309 518 309 518 360.397460938 584.806640625 c 0,19,20
 459 713 459 713 613.9296875 712.663085938 c 0,21,22
 774 713 774 713 862.880859375 583.616210938 c 0,23,24
 912 512 912 512 947.380859375 385.765625 c 0,25,26
 976 283 976 283 997.0234375 244.796875 c 0,27,28
 1028.98379128 187.029296875 1028.98379128 187.029296875 1136.15429688 187.029296875 c 2,29,-1
 1150.52636719 187.029296875 l 2,30,31
 1174.03710938 186.999953685 1174.03710938 186.999953685 1174.03710938 104.836914062 c 2,32,-1
 1174.03710938 87.23046875 l 2,33,34
 1174 0 1174 0 1150.52636719 0 c 2,35,-1
 1135.87304688 0 l 2,36,37
 985 0 985 0 913.142578125 110 c 1,0,1
397.23828125 297.315429688 m 1,38,39
 499 209 499 209 587.96484375 180.086914062 c 0,40,41
 805.569149534 107.211502802 805.569149534 107.211502802 793.16015625 296.606445312 c 0,42,43
 787 380 787 380 736.865234375 453.51953125 c 24,44,45
 688 526 688 526 615.641601562 526.309570312 c 0,46,47
 480 528 480 528 397.23828125 297.315429688 c 1,38,39
EndSplineSet
EndChar

StartChar: uniFEEA
Encoding: 65258 65258 245
GlifName: uniF_E_E_A_
Width: 1080
VWidth: 2762
GlyphClass: 2
Flags: W
AnchorPoint: "Anchor-10" 725.646 1275.97 basechar 0
AnchorPoint: "Anchor-7" 490.56 -213.828 basechar 0
LayerCount: 2
Fore
SplineSet
112.572265625 433.999023438 m 0,0,1
 113 778 113 778 649.15625 868.068359375 c 1,2,-1
 644.018554688 920.87890625 l 1,3,-1
 812.837890625 943.552734375 l 1,4,-1
 890.186523438 371.640625 l 2,5,6
 914.996084061 186.029296875 914.996084061 186.029296875 1077.29394531 186.029296875 c 2,7,-1
 1086.359375 186.029296875 l 2,8,9
 1109.87011719 186.000160959 1109.87011719 186.000160959 1109.87011719 109.239257812 c 2,10,-1
 1109.87011719 87.23046875 l 2,11,12
 1110 0 1110 0 1086.359375 0 c 2,13,-1
 1074.34863281 0 l 2,14,15
 817 0 817 0 745 246 c 1,16,17
 634 149 634 149 463.155273438 148.450195312 c 0,18,19
 285 148 285 148 192.879882812 237.158203125 c 0,20,21
 113 314 113 314 112.572265625 433.999023438 c 0,0,1
673.490234375 694.048828125 m 1,22,23
 294 632 294 632 293.58984375 452.920898438 c 0,24,25
 293 325 293 325 463.96484375 324.03125 c 0,26,27
 568 324 568 324 623 358 c 0,28,29
 719 417 719 417 699 540 c 2,30,-1
 673.490234375 694.048828125 l 1,22,23
EndSplineSet
EndChar

StartChar: uniFEEB
Encoding: 65259 65259 246
GlifName: uniF_E_E_B_
Width: 1333
VWidth: 2762
GlyphClass: 2
Flags: W
AnchorPoint: "Anchor-10" 557.59 1393.09 basechar 0
AnchorPoint: "Anchor-7" 495.696 -217.436 basechar 0
LayerCount: 2
Fore
SplineSet
-6.478515625 0 m 2,0,1
 -83.9228515625 0 -83.9228515625 0 -83.9228515625 87.224609375 c 2,2,-1
 -83.9228515625 104.836914062 l 2,3,4
 -83.999996287 185.99609375 -83.999996287 185.99609375 -6.478515625 185.99609375 c 2,5,-1
 272.57421875 185.99609375 l 1,6,7
 134 288 134 288 135.443359375 443.774414062 c 0,8,9
 136 558 136 558 219.149414062 653.670898438 c 0,10,11
 326 778 326 778 481.0390625 778.275390625 c 0,12,13
 628 778 628 778 741.948242188 671.530273438 c 0,14,15
 835 584 835 584 835.783203125 476.154296875 c 0,16,17
 835.999787833 297.175328436 835.999787833 297.175328436 687.924804688 206.390625 c 2,18,-1
 678.45703125 200.5859375 l 1,19,-1
 689.416015625 198.788085938 l 2,20,21
 792 182 792 182 866.336914062 182.12890625 c 0,22,23
 943 182 943 182 977.288085938 196.040039062 c 0,24,25
 1047 224 1047 224 1054.77148438 337.106445312 c 0,26,27
 1060 423 1060 423 961.87890625 532.705078125 c 0,28,29
 732 790 732 790 442.868164062 907.421875 c 1,30,-1
 530.909179688 1068.96679688 l 1,31,32
 1092 764 1092 764 1207.81933594 477.630859375 c 0,33,34
 1246 383 1246 383 1226.87109375 282.818359375 c 0,35,36
 1206 169 1206 169 1145.96972656 104.21484375 c 0,37,38
 1053 1 1053 1 849.3359375 0.494140625 c 0,39,40
 693 0 693 0 481.690429688 67.015625 c 1,41,42
 256 0 256 0 89.125 0 c 2,43,-1
 -6.478515625 0 l 2,0,1
667.243164062 460.807617188 m 0,44,45
 666 524 666 524 633.74609375 558.493164062 c 0,46,47
 581 615 581 615 489.958007812 617.297851562 c 0,48,49
 397 620 397 620 339.34765625 528.447265625 c 0,50,51
 315 490 315 490 314.646484375 436.471679688 c 0,52,53
 314 373 314 373 377.84765625 316.84765625 c 0,54,55
 436 266 436 266 482.78125 253.053710938 c 1,56,57
 562.700839644 289.29533971 562.700839644 289.29533971 606 329.284917754 c 0,58,59
 666.3123718 384.987298108 666.3123718 384.987298108 667.243164062 460.807617188 c 0,44,45
EndSplineSet
EndChar

StartChar: uniFEEC
Encoding: 65260 65260 247
GlifName: uniF_E_E_C_
Width: 955
VWidth: 2762
GlyphClass: 2
Flags: W
AnchorPoint: "Anchor-7" 429.717 -773.639 basechar 0
AnchorPoint: "Anchor-10" 447.915 1335.43 basechar 0
LayerCount: 2
Fore
SplineSet
596.440429688 -532.893554688 m 1,0,1
 226 -370 226 -370 167.536132812 0 c 1,2,-1
 -6.478515625 0 l 2,3,4
 -83.9228515625 0 -83.9228515625 0 -83.9228515625 87.224609375 c 2,5,-1
 -83.9228515625 104.836914062 l 2,6,7
 -83.9997885881 186.774846316 -83.9997885881 186.774846316 -6.46875 187.029296875 c 2,8,-1
 155.10546875 187.559570312 l 1,9,10
 159 328 159 328 191.095703125 453.631835938 c 0,11,12
 252 691 252 691 348.8984375 780.962890625 c 0,13,14
 431 857 431 857 542.443359375 856.84375 c 0,15,16
 666 857 666 857 734.331054688 773.930664062 c 0,17,18
 803 691 803 691 801.30859375 537.297851562 c 0,19,20
 799 339 799 339 666.314453125 185.31640625 c 0,21,22
 514 8 514 8 329.540039062 -0.9140625 c 1,23,24
 361 -194 361 -194 559.973632812 -309.315429688 c 1,25,-1
 559.96875 -302.129882812 l 2,26,27
 560.000001872 187.029296875 560.000001872 187.029296875 941.157226562 187.029296875 c 2,28,-1
 961.654296875 187.029296875 l 2,29,30
 985.1640625 186.999794115 985.1640625 186.999794115 985.1640625 104.836914062 c 2,31,-1
 985.1640625 87.23046875 l 2,32,33
 985 0 985 0 961.654296875 0 c 2,34,-1
 938.935546875 0 l 2,35,36
 676 0 676 0 714.955078125 -418.530273438 c 1,37,-1
 596.440429688 -532.893554688 l 1,0,1
320.513671875 186.048828125 m 1,38,39
 453 189 453 189 556.264648438 302.599609375 c 0,40,41
 640 395 640 395 640.135742188 553.060546875 c 0,42,43
 640 667 640 667 541.390625 671.963867188 c 0,44,45
 476 675 476 675 423.19140625 599.297851562 c 0,46,47
 378 536 378 536 343.478515625 373.032226562 c 0,48,49
 325 288 325 288 320.513671875 186.048828125 c 1,38,39
EndSplineSet
EndChar

StartChar: uniFEEE
Encoding: 65262 65262 249
GlifName: uniF_E_E_E_
Width: 897
VWidth: 2762
GlyphClass: 2
Flags: W
AnchorPoint: "Anchor-7" 433.872 -727.41 basechar 0
AnchorPoint: "Anchor-10" 422.58 1284.55 basechar 0
LayerCount: 2
Fore
SplineSet
432.134765625 736.736328125 m 0,0,1
 772 754 772 754 808.875 185.99609375 c 1,2,-1
 903.95703125 185.99609375 l 2,3,4
 927.465820312 186.000078966 927.465820312 186.000078966 927.465820312 95.5361328125 c 2,5,-1
 927.465820312 87.23046875 l 2,6,7
 926.99928609 -0.133688233358 926.99928609 -0.133688233358 903.96484375 0 c 2,8,-1
 792.239257812 0.6484375 l 1,9,10
 744 -231 744 -231 586.766601562 -358.588867188 c 0,11,12
 436 -482 436 -482 117 -515.091796875 c 1,13,-1
 84.37890625 -335.654296875 l 1,14,15
 539 -298 539 -298 623.499023438 1.28515625 c 1,16,-1
 480.012695312 1.4794921875 l 2,17,18
 247 2 247 2 159.999023438 121.083007812 c 4,19,20
 113 186 113 186 109.444335938 271.794921875 c 0,21,22
 103 404 103 404 171.709960938 544.006835938 c 0,23,24
 263 728 263 728 432.134765625 736.736328125 c 0,0,1
489.283203125 189.90234375 m 0,25,26
 630.91015625 188.504882812 l 1,27,28
 611 558 611 558 441.818359375 546.03125 c 0,29,30
 359 540 359 540 317.116210938 443.961914062 c 0,31,32
 281 362 281 362 284.470703125 298.126953125 c 24,33,34
 291 190 291 190 489.283203125 189.90234375 c 0,25,26
EndSplineSet
EndChar

StartChar: uniFEF0
Encoding: 65264 65264 251
GlifName: uniF_E_F_0
Width: 1529
VWidth: 2762
GlyphClass: 2
Flags: W
AnchorPoint: "Anchor-10" 716.013 1244.08 basechar 0
AnchorPoint: "Anchor-7" 543.969 -773.127 basechar 0
LayerCount: 2
Fore
SplineSet
737.030273438 -330.336914062 m 16,0,1
 1012.66308594 -328.598632812 1012.66308594 -328.598632812 1192.46289062 -197.810546875 c 0,2,3
 1266.86230469 -143.6328125 1266.86230469 -143.6328125 1267.16015625 -85.0517578125 c 0,4,5
 1266.86230469 -16.533203125 1266.86230469 -16.533203125 1196.29394531 0.623046875 c 1,6,-1
 984.984375 0.8759765625 l 1,7,8
 926.897460938 7.2333984375 926.897460938 7.2333984375 904.748046875 96.650390625 c 0,9,10
 884.530273438 179.799804688 884.530273438 179.799804688 911.338867188 187.029296875 c 1,11,-1
 1534.87304688 187.029296875 l 2,12,13
 1558.38378906 187.033203125 1558.38378906 187.033203125 1558.38378906 104.836914062 c 2,14,-1
 1558.38378906 87.23046875 l 2,15,16
 1558.26171875 0 1558.26171875 0 1534.88964844 0 c 2,17,-1
 1392.92871094 0 l 1,18,19
 1436.32910156 -33.06640625 1436.32910156 -33.06640625 1436.93945312 -113.114257812 c 0,20,21
 1437.36230469 -225.265625 1437.36230469 -225.265625 1326.15234375 -319.592773438 c 0,22,23
 1093.26269531 -514.598632812 1093.26269531 -514.598632812 728.239257812 -516.422851562 c 24,24,25
 117.799804688 -519.764648438 117.799804688 -519.764648438 115.329101562 45.630859375 c 0,26,27
 114.69921875 263.499023438 114.69921875 263.499023438 225.908203125 497.967773438 c 1,28,-1
 386.430664062 433.432617188 l 1,29,30
 296.565429688 208.732421875 296.565429688 208.732421875 297.462890625 53.1259765625 c 0,31,32
 299.666015625 -332.732421875 299.666015625 -332.732421875 737.030273438 -330.336914062 c 16,0,1
EndSplineSet
EndChar

StartChar: uniFEFB
Encoding: 65275 65275 262
GlifName: uniF_E_F_B_
Width: 1215
VWidth: 2762
GlyphClass: 3
Flags: W
AnchorPoint: "Anchor-9" 204.162 1566.09 baselig 1
AnchorPoint: "Anchor-6" 306.298 -230.864 baselig 1
AnchorPoint: "Anchor-6" 901.167 -227.33 baselig 0
AnchorPoint: "Anchor-9" 979.96 1645.16 baselig 0
LayerCount: 2
Fore
SplineSet
245.45703125 1402.74316406 m 5,0,1
 472 826 472 826 622.421875 217.408203125 c 5,2,3
 890.2988623 303.095598851 890.2988623 303.095598851 890.383789062 602.356445312 c 2,4,-1
 890.631835938 1476.41210938 l 1,5,-1
 1067.32421875 1476.41210938 l 1,6,-1
 1067.32421875 610.462890625 l 2,7,8
 1067 8 1067 8 413.889648438 1.1005859375 c 0,9,10
 315 0 315 0 119.100585938 20.8359375 c 1,11,-1
 119.100585938 213.2109375 l 1,12,13
 301 179 301 179 455.584960938 183.426757812 c 5,14,15
 319 725 319 725 77 1340 c 5,16,-1
 245.45703125 1402.74316406 l 5,0,1
EndSplineSet
LCarets2: 1 0
Ligature2: "'rlig' Required Ligatures in Arabic lookup 16 subtable" uniFEDF uniFE8E
EndChar

StartChar: uniFEFC
Encoding: 65276 65276 263
GlifName: uniF_E_F_C_
Width: 1294
VWidth: 2762
GlyphClass: 3
Flags: W
AnchorPoint: "Anchor-9" 979.96 1645.16 baselig 0
AnchorPoint: "Anchor-6" 901.167 -227.33 baselig 0
AnchorPoint: "Anchor-6" 306.298 -230.864 baselig 1
AnchorPoint: "Anchor-9" 204.162 1566.09 baselig 1
LayerCount: 2
Fore
SplineSet
622.421875 217.408203125 m 5,0,1
 890.298862299 303.095598851 890.298862299 303.095598851 890.383789062 602.356445312 c 2,2,-1
 890.631835938 1476.41210938 l 1,3,-1
 1067.32421875 1476.41210938 l 1,4,-1
 1067.32421875 520.462890625 l 2,5,6
 1067.00002848 187.029296875 1067.00002848 187.029296875 1277.46679688 187.029296875 c 2,7,-1
 1301.26464844 187.029296875 l 2,8,9
 1324.77441406 187.000278444 1324.77441406 187.000278444 1324.77441406 104.836914062 c 2,10,-1
 1324.77441406 87.23046875 l 2,11,12
 1325 0 1325 0 1301.26464844 0 c 2,13,-1
 1264.83496094 0 l 2,14,15
 1015 0 1015 0 947 235 c 1,16,17
 815 5 815 5 413.889648438 1.1005859375 c 0,18,19
 315 0 315 0 119.100585938 20.8359375 c 1,20,-1
 119.100585938 213.2109375 l 1,21,22
 303 179 303 179 455.584960938 183.426757812 c 5,23,24
 319 725 319 725 77 1340 c 5,25,-1
 245.45703125 1402.74316406 l 5,26,27
 472 826 472 826 622.421875 217.408203125 c 5,0,1
EndSplineSet
LCarets2: 1 0
Ligature2: "'rlig' Required Ligatures in Arabic lookup 16 subtable" uniFEE0 uniFE8E
EndChar

StartChar: arabic_dot
Encoding: 65536 -1 264
GlifName: arabic_dot
Width: 189
VWidth: 2591
GlyphClass: 2
Flags: W
LayerCount: 2
Fore
SplineSet
-49.0133650486 100.79590314 m 1,0,-1
 94.2880953407 244.097363528 l 1,1,-1
 238.332691558 100.054682822 l 1,2,-1
 95.0302734613 -43.2467776148 l 1,3,-1
 -49.0133650486 100.79590314 l 1,0,-1
EndSplineSet
EndChar

StartChar: arabic_2dots
Encoding: 65537 -1 265
GlifName: arabic_2dots
Width: 504
VWidth: 2591
GlyphClass: 2
Flags: W
LayerCount: 2
Fore
SplineSet
272.659472075 100.795898463 m 1,0,-1
 411.291020506 239.428403932 l 1,1,-1
 550.664736937 100.0546875 l 1,2,-1
 412.032231418 -38.5778180192 l 1,3,-1
 272.659472075 100.795898463 l 1,0,-1
-44.3424859316 100.795903345 m 1,4,-1
 94.2880957005 239.42839905 l 1,5,-1
 233.661812132 100.054682619 l 1,6,-1
 95.0302734121 -38.5778131377 l 1,7,-1
 -44.3424859316 100.795903345 l 1,4,-1
EndSplineSet
EndChar

StartChar: arabic_3dots
Encoding: 65538 -1 266
GlifName: arabic_3dots
Width: 504
VWidth: 2591
GlyphClass: 2
Flags: W
LayerCount: 2
Fore
SplineSet
115.069643027 357.25977059 m 1,0,-1
 250.588857259 492.778984821 l 1,1,-1
 386.848335625 356.517593046 l 1,2,-1
 251.330078152 221.000292169 l 1,3,-1
 115.069643027 357.25977059 l 1,0,-1
275.772763063 82.083984375 m 1,4,-1
 411.29102059 217.602241902 l 1,5,-1
 547.551445731 81.3427734641 l 1,6,-1
 412.032231553 -54.1754841166 l 1,7,-1
 275.772763063 82.083984375 l 1,4,-1
-41.2301616605 82.0839893397 m 1,8,-1
 94.2880958669 217.602246867 l 1,9,-1
 230.549487642 81.3427684994 l 1,10,-1
 95.0302734641 -54.1754890812 l 1,11,-1
 -41.2301616605 82.0839893397 l 1,8,-1
EndSplineSet
EndChar

StartChar: arabic_3dots_a
Encoding: 65539 -1 267
GlifName: arabic_3dots_a
Width: 504
VWidth: 2591
GlyphClass: 2
Flags: W
LayerCount: 2
Fore
SplineSet
115.069643027 -160.811528403 m 1,0,-1
 251.33007316 -24.5520549725 l 1,1,-1
 386.848335652 -160.070317465 l 1,2,-1
 250.588862223 -296.330747599 l 1,3,-1
 115.069643027 -160.811528403 l 1,0,-1
275.772753107 114.363281223 m 1,4,-1
 412.032236518 250.62372134 l 1,5,-1
 547.551455661 115.105458794 l 1,6,-1
 411.291015652 -21.1559379192 l 1,7,-1
 275.772753107 114.363281223 l 1,4,-1
-41.2301716166 114.363276259 m 1,8,-1
 95.0302784288 250.623726305 l 1,9,-1
 230.549497572 115.105463759 l 1,10,-1
 94.2880909288 -21.1559428839 l 1,11,-1
 -41.2301716166 114.363276259 l 1,8,-1
EndSplineSet
EndChar

StartChar: uni066E.fina
Encoding: 65540 -1 268
GlifName: uni066E_.fina
Width: 1916
VWidth: 2762
GlyphClass: 2
Flags: W
AnchorPoint: "Anchor-10" 873.556 1337.81 basechar 0
AnchorPoint: "Anchor-7" 829.527 -235.465 basechar 0
LayerCount: 2
Fore
SplineSet
889.080078125 0 m 14,0,1
 887.004882812 0 l 6,2,3
 441 0 441 0 284 114 c 4,4,5
 107 243 107 243 106.961914062 516.837890625 c 4,6,7
 107 649 107 649 146.125 762.041015625 c 5,8,-1
 300.875 721.403320312 l 5,9,10
 278 613 278 613 277.844726562 518.616210938 c 4,11,12
 278 340 278 340 395 265 c 4,13,14
 519 186 519 186 887.467773438 186.204101562 c 4,15,16
 1486.56507426 186.999422622 1486.56507426 186.999422622 1532.99316406 465.049804688 c 6,17,-1
 1554.78125 595.53515625 l 5,18,-1
 1687.29589844 595.53515625 l 5,19,-1
 1712.14355469 344.870117188 l 6,20,21
 1727.99705743 187.029296875 1727.99705743 187.029296875 1910.4296875 187.029296875 c 6,22,-1
 1922.70117188 187.029296875 l 6,23,24
 1946.21191406 186.999733531 1946.21191406 186.999733531 1946.21191406 104.836914062 c 6,25,-1
 1946.21191406 87.23046875 l 6,26,27
 1946 0 1946 0 1922.70117188 0 c 6,28,-1
 1910.52734375 0 l 6,29,30
 1624 0 1624 0 1575.640625 193.702148438 c 5,31,32
 1415 0 1415 0 889.080078125 0 c 14,0,1
EndSplineSet
EndChar

StartChar: uni06A1.fina
Encoding: 65543 -1 269
GlifName: uni06A_1.fina
Width: 1996
VWidth: 2762
GlyphClass: 2
Flags: W
AnchorPoint: "Anchor-10" 706.697 1473.62 basechar 0
AnchorPoint: "Anchor-7" 591.194 -284.33 basechar 0
LayerCount: 2
Fore
SplineSet
887.467773438 186.204101562 m 0,0,1
 1156 186 1156 186 1306.34765625 233.412109375 c 1,2,3
 1142 358 1142 358 1141.38964844 529.194335938 c 0,4,5
 1141 686 1141 686 1259.47753906 790.009765625 c 128,-1,6
 1378 894 1378 894 1495.44042969 894.146484375 c 0,7,8
 1610 894 1610 894 1728.13867188 790.010742188 c 0,9,10
 1846 686 1846 686 1846.22753906 529.194335938 c 0,11,12
 1846 358 1846 358 1682.26953125 233.412109375 c 1,13,14
 1814.01085318 185.99609375 1814.01085318 185.99609375 1972.39648438 185.99609375 c 2,15,-1
 2002.78417969 185.99609375 l 2,16,17
 2026.29296875 186.000049294 2026.29296875 186.000049294 2026.29296875 104.836914062 c 2,18,-1
 2026.29296875 87.23046875 l 2,19,20
 2026 0 2026 0 2002.78417969 0 c 2,21,-1
 1974.44628906 0 l 2,22,23
 1682 0 1682 0 1489.9921875 147.03125 c 1,24,25
 1284 0 1284 0 889.080078125 0 c 10,26,-1
 887.004882812 0 l 2,27,28
 441 0 441 0 284 114 c 0,29,30
 107 243 107 243 106.961914062 516.837890625 c 4,31,32
 107 649 107 649 146.125 762.041015625 c 5,33,-1
 300.875 721.403320312 l 5,34,35
 278 613 278 613 277.844726562 518.616210938 c 4,36,37
 278 340 278 340 395 265 c 0,38,39
 517 187 517 187 887.467773438 186.204101562 c 0,0,1
1493.33300781 711.862304688 m 0,40,41
 1443.26757812 712 1443.26757812 712 1374.44335938 644.4609375 c 0,42,43
 1315.26757812 585 1315.26757812 585 1315.58007812 512.59375 c 0,44,45
 1316.26757812 469 1316.26757812 469 1387.41210938 386.177734375 c 0,46,47
 1450.26757812 313 1450.26757812 313 1493.80859375 313.303710938 c 0,48,49
 1537.26757812 313 1537.26757812 313 1600.20410156 386.177734375 c 0,50,51
 1672.26757812 469 1672.26757812 469 1672.03710938 512.59375 c 0,52,53
 1672.26757812 586 1672.26757812 586 1613.17382812 644.4609375 c 0,54,55
 1545.26757812 712 1545.26757812 712 1493.33300781 711.862304688 c 0,40,41
EndSplineSet
EndChar

StartChar: uni06A1.init
Encoding: 65544 -1 270
GlifName: uni06A_1.init
Width: 894
VWidth: 2762
GlyphClass: 2
Flags: W
AnchorPoint: "Anchor-10" 417.812 1533.79 basechar 0
AnchorPoint: "Anchor-7" 343.523 -224.039 basechar 0
LayerCount: 2
Fore
SplineSet
774.780273438 573.217773438 m 4,0,1
 813 242 813 242 634.388671875 111.026367188 c 4,2,3
 484 0 484 0 100.485351562 0 c 6,4,-1
 -6.478515625 0 l 2,5,6
 -83.9228515625 0 -83.9228515625 0 -83.9228515625 87.224609375 c 2,7,-1
 -83.9228515625 104.836914062 l 2,8,9
 -84.0002497014 186.262695312 -84.0002497014 186.262695312 -6.478515625 186.262695312 c 2,10,-1
 101.098632812 186.262695312 l 6,11,12
 616 186 616 186 616.293945312 392.234375 c 5,13,-1
 552.223632812 378.33984375 l 6,14,15
 482 363 482 363 428.307617188 358.803710938 c 4,16,17
 89 334 89 334 89.7421875 622 c 4,18,19
 90 710 90 710 119.510742188 808.51953125 c 4,20,21
 190.547342983 1044.49631673 190.547342983 1044.49631673 398.30859375 1055.74511719 c 4,22,23
 717 1073 717 1073 774.780273438 573.217773438 c 4,0,1
527.963867188 555.41015625 m 6,24,-1
 600.86328125 571.68359375 l 5,25,26
 563 882 563 882 396.188476562 865.963867188 c 4,27,28
 308 857 308 857 269.301757812 725.810546875 c 4,29,30
 231 592 231 592 304.908203125 557.084960938 c 4,31,32
 351 535 351 535 434.158203125 540.013671875 c 4,33,34
 468 542 468 542 527.963867188 555.41015625 c 6,24,-1
EndSplineSet
EndChar

StartChar: uni06A1.medi
Encoding: 65545 -1 271
GlifName: uni06A_1.medi
Width: 1021
VWidth: 2762
GlyphClass: 2
Flags: W
AnchorPoint: "Anchor-10" 514.597 1300.9 basechar 0
AnchorPoint: "Anchor-7" 492.582 -224.039 basechar 0
LayerCount: 2
Fore
SplineSet
518.065429688 711.862304688 m 4,0,1
 468 712 468 712 399.17578125 644.4609375 c 4,2,3
 340 585 340 585 340.3125 512.59375 c 4,4,5
 341 469 341 469 412.14453125 386.177734375 c 4,6,7
 475 313 475 313 518.541015625 313.303710938 c 4,8,9
 562 313 562 313 624.936523438 386.177734375 c 4,10,11
 697 469 697 469 696.76953125 512.59375 c 4,12,13
 697 586 697 586 637.90625 644.4609375 c 4,14,15
 570 712 570 712 518.065429688 711.862304688 c 4,0,1
520.172851562 894.146484375 m 4,16,17
 635 894 635 894 752.87109375 790.010742188 c 4,18,19
 871 686 871 686 870.959960938 529.194335938 c 4,20,21
 871 358 871 358 707.001953125 233.412109375 c 5,22,23
 839.010875225 185.99609375 839.010875225 185.99609375 997.12890625 185.99609375 c 6,24,-1
 1027.51660156 185.99609375 l 6,25,26
 1051.02539062 186.000004223 1051.02539062 186.000004223 1051.02539062 104.836914062 c 6,27,-1
 1051.02539062 87.23046875 l 6,28,29
 1051 0 1051 0 1027.51660156 0 c 6,30,-1
 999.178710938 0 l 6,31,32
 707 0 707 0 514.724609375 147.03125 c 5,33,34
 320 0 320 0 31.9443359375 0 c 6,35,-1
 -6.478515625 0 l 6,36,37
 -83.9228515625 0 -83.9228515625 0 -83.9228515625 87.224609375 c 6,38,-1
 -83.9228515625 104.836914062 l 6,39,40
 -83.9996763769 185.659536206 -83.9996763769 185.659536206 -6.47265625 185.99609375 c 6,41,-1
 31.76953125 186.162109375 l 6,42,43
 197 187 197 187 330.080078125 233.412109375 c 5,44,45
 167 358 167 358 166.122070312 529.194335938 c 4,46,47
 166 686 166 686 284.209960938 790.009765625 c 4,48,49
 403 894 403 894 520.172851562 894.146484375 c 4,16,17
EndSplineSet
EndChar

StartChar: uni066F.fina
Encoding: 65546 -1 272
GlifName: uni066F_.fina
Width: 1503
VWidth: 2762
GlyphClass: 2
Flags: W
AnchorPoint: "Anchor-10" 406.65 1134.08 basechar 0
AnchorPoint: "Anchor-7" 533.128 -791.2 basechar 0
LayerCount: 2
Fore
SplineSet
1403.10742188 185.859375 m 1,0,-1
 1509.62402344 186.262695312 l 2,1,2
 1533.13378906 185.998496501 1533.13378906 185.998496501 1533.13378906 104.836914062 c 2,3,-1
 1533.13378906 87.23046875 l 2,4,5
 1532.99980403 -0.127772544557 1532.99980403 -0.127772544557 1509.64160156 0 c 2,6,-1
 1390.74316406 0.650390625 l 1,7,8
 1332 -555 1332 -555 728.239257812 -550.522460938 c 24,9,10
 117 -547 117 -547 115.329101562 11.53125 c 0,11,12
 115 229 115 229 225.908203125 463.868164062 c 1,13,-1
 386.430664062 399.333007812 l 1,14,15
 297 175 297 175 297.462890625 19.025390625 c 0,16,17
 300 -360 300 -360 737.030273438 -364.436523438 c 24,18,19
 1188 -370 1188 -370 1217.73144531 1.1484375 c 1,20,-1
 1064.24511719 1.3427734375 l 2,21,22
 845 2 845 2 757.231445312 118.946289062 c 4,23,24
 707 187 707 187 703.676757812 271.658203125 c 0,25,26
 697 404 697 404 765.942382812 543.870117188 c 0,27,28
 856 728 856 728 1016.3671875 736.599609375 c 0,29,30
 1366 755 1366 755 1403.10742188 185.859375 c 1,0,-1
1073.515625 190.765625 m 0,31,32
 1225.14257812 188.368164062 l 1,33,34
 1205 558 1205 558 1026.05078125 545.89453125 c 0,35,36
 954 541 954 541 911.348632812 443.825195312 c 0,37,38
 876 364 876 364 878.703125 297.990234375 c 24,39,40
 883 191 883 191 1073.515625 190.765625 c 0,31,32
EndSplineSet
EndChar

StartChar: arabic_gaf_bar
Encoding: 65550 -1 273
GlifName: arabic_gaf_bar
Width: 702
VWidth: 2587
GlyphClass: 2
Flags: W
LayerCount: 2
Fore
SplineSet
708.864257812 1865.06054688 m 5,0,-1
 3.791015625 1578.36328125 l 5,1,-1
 3.791015625 1684.6015625 l 5,2,-1
 708.864257812 1971.29589844 l 5,3,-1
 708.864257812 1865.06054688 l 5,0,-1
EndSplineSet
EndChar

StartChar: guillemotleft
Encoding: 171 171 283
GlifName: guillemotleft
Width: 1313
VWidth: -9
Flags: W
LayerCount: 2
Fore
SplineSet
1165.10839844 1027.52929688 m 1,0,-1
 1165.10839844 807.123046875 l 1,1,-1
 928.654296875 637.916015625 l 2,2,3
 910.462890625 624.8984375 910.462890625 624.8984375 896.626953125 611.791992188 c 128,-1,4
 882.791015625 598.686523438 882.791015625 598.686523438 873.290039062 585.423828125 c 0,5,6
 811.565429688 499.25390625 811.565429688 499.25390625 933.740234375 412.263671875 c 2,7,-1
 1165.10839844 247.57421875 l 1,8,-1
 1165.10839844 27.177734375 l 1,9,-1
 824.603515625 286.962890625 l 2,10,11
 758.631835938 337.296875 758.631835938 337.296875 720.254882812 387.595703125 c 0,12,13
 575.061523438 577.896484375 575.061523438 577.896484375 827.288085938 770.01171875 c 2,14,-1
 1165.10839844 1027.52929688 l 1,0,-1
634.752929688 1027.69921875 m 1,15,-1
 634.752929688 807.205078125 l 1,16,-1
 387.759765625 637.978515625 l 2,17,18
 345.939453125 609.325195312 345.939453125 609.325195312 326.163085938 580.28125 c 0,19,20
 269.077148438 496.4453125 269.077148438 496.4453125 392.848632812 412.198242188 c 2,21,-1
 634.752929688 247.490234375 l 1,22,-1
 634.752929688 27.01171875 l 1,23,-1
 286.995117188 286.971679688 l 2,24,25
 216.354492188 339.778320312 216.354492188 339.778320312 176.724609375 392.55859375 c 0,26,27
 35.787109375 580.259765625 35.787109375 580.259765625 289.529296875 769.9921875 c 2,28,-1
 634.752929688 1027.69921875 l 1,15,-1
EndSplineSet
EndChar

StartChar: guillemotright
Encoding: 187 187 284
GlifName: guillemotright
Width: 1313
VWidth: -9
Flags: W
LayerCount: 2
Fore
SplineSet
148.865234375 1027.52929688 m 1,0,-1
 486.686523438 770.010742188 l 2,1,2
 520.399414062 744.33203125 520.399414062 744.33203125 547.016601562 718.704101562 c 128,-1,3
 573.635742188 693.077148438 573.635742188 693.077148438 593.145507812 667.541015625 c 0,4,5
 738.623046875 477.129882812 738.623046875 477.129882812 489.369140625 286.962890625 c 2,6,-1
 148.865234375 27.177734375 l 1,7,-1
 148.865234375 247.57421875 l 1,8,-1
 380.235351562 412.263671875 l 2,9,10
 419.654296875 440.331054688 419.654296875 440.331054688 439.85546875 468.366210938 c 0,11,12
 501.911132812 554.482421875 501.911132812 554.482421875 385.3203125 637.916015625 c 2,13,-1
 148.865234375 807.123046875 l 1,14,-1
 148.865234375 1027.52929688 l 1,0,-1
679.219726562 1027.69921875 m 1,15,-1
 1024.44140625 769.994140625 l 2,16,17
 1060.4921875 743.038085938 1060.4921875 743.038085938 1088.58203125 716.140625 c 128,-1,18
 1116.67285156 689.244140625 1116.67285156 689.244140625 1136.78613281 662.456054688 c 0,19,20
 1277.88769531 474.533203125 1277.88769531 474.533203125 1026.97851562 286.971679688 c 2,21,-1
 679.219726562 27.01171875 l 1,22,-1
 679.219726562 247.490234375 l 1,23,-1
 921.125 412.198242188 l 2,24,25
 966.059570312 442.784179688 966.059570312 442.784179688 987.07421875 473.369140625 c 0,26,27
 1044.49511719 556.938476562 1044.49511719 556.938476562 926.213867188 637.978515625 c 2,28,-1
 679.219726562 807.205078125 l 1,29,-1
 679.219726562 1027.69921875 l 1,15,-1
EndSplineSet
EndChar

StartChar: NameMe.302
Encoding: 65562 -1 293
GlifName: N_ameM_e.302
Width: 678
VWidth: 2762
Flags: W
LayerCount: 2
Fore
SplineSet
346.765625 148.415039062 m 1,0,1
 245 0 245 0 20.1923828125 0 c 2,2,-1
 -6.478515625 0 l 2,3,4
 -83.9228515625 0 -83.9228515625 0 -83.9228515625 87.224609375 c 2,5,-1
 -83.9228515625 104.836914062 l 2,6,7
 -83.999996287 185.99609375 -83.999996287 185.99609375 -6.478515625 185.99609375 c 2,8,-1
 22.54296875 185.99609375 l 2,9,10
 262.2265625 186.000003696 262.2265625 186.000003696 262.2265625 411.12109375 c 6,11,-1
 262.2265625 1256.22070312 l 5,12,-1
 442.487304688 1256.22070312 l 1,13,-1
 442.487304688 411.130859375 l 2,14,15
 441.999991545 185.99609375 441.999991545 185.99609375 665.22265625 185.99609375 c 2,16,-1
 674.662109375 185.99609375 l 2,17,18
 708.505859375 185.999943787 708.505859375 185.999943787 708.505859375 104.836914062 c 2,19,-1
 708.505859375 87.23046875 l 2,20,21
 709 0 709 0 674.662109375 0 c 2,22,-1
 667.576171875 0 l 2,23,24
 452 0 452 0 346.765625 148.415039062 c 1,0,1
EndSplineSet
EndChar

StartChar: NameMe.303
Encoding: 65563 -1 294
GlifName: N_ameM_e.303
Width: 584
VWidth: 2762
Flags: W
LayerCount: 2
Fore
SplineSet
-6.478515625 0 m 2,0,1
 -83.9228515625 0 -83.9228515625 0 -83.9228515625 87.224609375 c 2,2,-1
 -83.9228515625 104.836914062 l 2,3,4
 -83.999996287 185.99609375 -83.999996287 185.99609375 -6.478515625 185.99609375 c 2,5,-1
 19.1572265625 185.99609375 l 2,6,7
 257.955078125 185.999999265 257.955078125 185.999999265 257.955078125 414.372070312 c 6,8,-1
 257.955078125 1446.30957031 l 1,9,-1
 434.913085938 1446.30957031 l 1,10,-1
 434.913085938 409.05078125 l 6,11,12
 435 0 435 0 14.3037109375 0 c 2,13,-1
 -6.478515625 0 l 2,0,1
EndSplineSet
EndChar

StartChar: NameMe.65564
Encoding: 65564 -1 297
GlifName: N_ameM_e.65564
Width: 579
VWidth: 2762
Flags: W
AnchorPoint: "Anchor-10" 259.58 1444.91 basechar 0
AnchorPoint: "Anchor-7" 299.62 -318.601 basechar 0
LayerCount: 2
Fore
SplineSet
585.286132812 0 m 2,0,-1
 565.791015625 0 l 2,1,2
 164.790039062 0 164.790039062 0 164.790039062 414.123046875 c 6,3,-1
 164.790039062 1328.30957031 l 5,4,-1
 341.749023438 1328.30957031 l 1,5,-1
 341.749023438 416.041992188 l 2,6,7
 342.000004262 185.99609375 342.000004262 185.99609375 568.642578125 185.99609375 c 2,8,-1
 585.286132812 185.99609375 l 2,9,10
 608.796875 185.99996654 608.796875 185.99996654 608.796875 104.836914062 c 2,11,-1
 608.796875 87.23046875 l 2,12,13
 609 0 609 0 585.286132812 0 c 2,0,-1
EndSplineSet
EndChar

StartChar: NameMe.65565
Encoding: 65565 -1 298
GlifName: N_ameM_e.65565
Width: 675
VWidth: 2762
Flags: W
LayerCount: 2
Fore
SplineSet
119.821289062 -257.861328125 m 2,0,1
 154.55078125 -265.485351562 154.55078125 -265.485351562 197.896484375 -265.337890625 c 0,2,3
 287.440429688 -265.010742188 287.440429688 -265.010742188 345.908203125 -240.907226562 c 0,4,5
 365.100585938 -233.014648438 365.100585938 -233.014648438 381.317382812 -223.723632812 c 128,-1,6
 397.532226562 -214.431640625 397.532226562 -214.431640625 410.772460938 -203.720703125 c 0,7,8
 437.153320312 -182.379882812 437.153320312 -182.379882812 452.081054688 -155.537109375 c 0,9,10
 453.9921875 -151.900390625 453.9921875 -151.900390625 455.534179688 -148.494140625 c 128,-1,11
 457.075195312 -145.086914062 457.075195312 -145.086914062 458.287109375 -141.810546875 c 128,-1,12
 459.499023438 -138.534179688 459.499023438 -138.534179688 460.362304688 -135.396484375 c 128,-1,13
 461.2265625 -132.258789062 461.2265625 -132.258789062 461.751953125 -129.228515625 c 0,14,15
 463.186523438 -119.967773438 463.186523438 -119.967773438 461.3671875 -114.899414062 c 0,16,17
 459.634765625 -110.076171875 459.634765625 -110.076171875 452.989257812 -107.31640625 c 0,18,19
 450.741210938 -106.3828125 450.741210938 -106.3828125 447.65625 -105.698242188 c 128,-1,20
 444.700195312 -105.041992188 444.700195312 -105.041992188 440.706054688 -104.612304688 c 128,-1,21
 436.771484375 -104.188476562 436.771484375 -104.188476562 432.1953125 -104.072265625 c 2,22,-1
 338.93359375 -101.716796875 l 2,23,24
 329.622070312 -101.4609375 329.622070312 -101.4609375 321.045898438 -100.385742188 c 128,-1,25
 312.469726562 -99.3095703125 312.469726562 -99.3095703125 304.62890625 -97.4189453125 c 128,-1,26
 296.819335938 -95.53515625 296.819335938 -95.53515625 289.70703125 -92.814453125 c 128,-1,27
 282.595703125 -90.0927734375 282.595703125 -90.0927734375 276.166992188 -86.533203125 c 128,-1,28
 269.7578125 -82.984375 269.7578125 -82.984375 264.114257812 -78.62109375 c 128,-1,29
 258.470703125 -74.2578125 258.470703125 -74.2578125 253.5703125 -69.064453125 c 0,30,31
 224.212890625 -37.955078125 224.212890625 -37.955078125 224.971679688 18.79296875 c 0,32,33
 225.864257812 90.6259765625 225.864257812 90.6259765625 273.712890625 159.4609375 c 0,34,35
 275.573242188 162.158203125 275.573242188 162.158203125 277.5 164.796875 c 128,-1,36
 279.424804688 167.434570312 279.424804688 167.434570312 281.416992188 170.012695312 c 128,-1,37
 283.408203125 172.591796875 283.408203125 172.591796875 285.46484375 175.111328125 c 128,-1,38
 287.522460938 177.630859375 287.522460938 177.630859375 289.64453125 180.08984375 c 128,-1,39
 291.766601562 182.548828125 291.766601562 182.548828125 293.955078125 184.950195312 c 0,40,41
 304.899414062 196.953125 304.899414062 196.953125 317.465820312 207.45703125 c 128,-1,42
 330.0390625 217.965820312 330.0390625 217.965820312 344.233398438 226.971679688 c 0,43,44
 386.801757812 253.98046875 386.801757812 253.98046875 442.68359375 267.383789062 c 0,45,46
 470.56640625 274.071289062 470.56640625 274.071289062 501.91015625 277.524414062 c 128,-1,47
 533.252929688 280.977539062 533.252929688 280.977539062 568.044921875 281.185546875 c 2,48,-1
 582.665039062 281.2734375 l 1,49,-1
 573.083007812 154.215820312 l 1,50,-1
 560.892578125 153.916992188 l 2,51,52
 546.002929688 153.55078125 546.002929688 153.55078125 532.19921875 152.5625 c 128,-1,53
 518.39453125 151.57421875 518.39453125 151.57421875 505.598632812 149.953125 c 128,-1,54
 492.802734375 148.330078125 492.802734375 148.330078125 481.0859375 146.076171875 c 128,-1,55
 469.369140625 143.821289062 469.369140625 143.821289062 458.672851562 140.919921875 c 128,-1,56
 447.974609375 138.018554688 447.974609375 138.018554688 438.349609375 134.474609375 c 128,-1,57
 428.723632812 130.930664062 428.723632812 130.930664062 420.130859375 126.725585938 c 128,-1,58
 411.536132812 122.520507812 411.536132812 122.520507812 404.005859375 117.663085938 c 0,59,60
 379.163085938 101.635742188 379.163085938 101.635742188 365.083984375 78.8935546875 c 128,-1,61
 351.024414062 56.1787109375 351.024414062 56.1787109375 347.282226562 26.69140625 c 2,62,-1
 346.708984375 22.1748046875 l 1,63,-1
 445.30859375 19.2275390625 l 2,64,65
 504.98046875 17.41796875 504.98046875 17.41796875 537.510742188 -7.642578125 c 0,66,67
 550.364257812 -17.6181640625 550.364257812 -17.6181640625 559.91015625 -33.1259765625 c 128,-1,68
 569.456054688 -48.634765625 569.456054688 -48.634765625 575.666992188 -69.8701171875 c 0,69,70
 581.294921875 -88.4892578125 581.294921875 -88.4892578125 581.294921875 -110.624023438 c 0,71,72
 581.294921875 -113.45703125 581.294921875 -113.45703125 581.194335938 -116.319335938 c 128,-1,73
 581.095703125 -119.180664062 581.095703125 -119.180664062 580.895507812 -122.075195312 c 128,-1,74
 580.696289062 -124.96875 580.696289062 -124.96875 580.396484375 -127.891601562 c 0,75,76
 579.497070312 -136.670898438 579.497070312 -136.670898438 577.702148438 -145.706054688 c 0,77,78
 574.852539062 -160.044921875 574.852539062 -160.044921875 570.478515625 -173.7578125 c 128,-1,79
 566.10546875 -187.471679688 566.10546875 -187.471679688 560.202148438 -200.57421875 c 128,-1,80
 554.298828125 -213.676757812 554.298828125 -213.676757812 546.86328125 -226.166992188 c 128,-1,81
 539.4296875 -238.659179688 539.4296875 -238.659179688 530.458007812 -250.548828125 c 128,-1,82
 521.518554688 -262.397460938 521.518554688 -262.397460938 511.10546875 -273.612304688 c 128,-1,83
 500.692382812 -284.827148438 500.692382812 -284.827148438 488.797851562 -295.415039062 c 128,-1,84
 476.90234375 -306.002929688 476.90234375 -306.002929688 463.516601562 -315.961914062 c 128,-1,85
 450.129882812 -325.919921875 450.129882812 -325.919921875 435.272460938 -335.232421875 c 0,86,87
 346.529296875 -390.4140625 346.529296875 -390.4140625 193.54296875 -391.088867188 c 0,88,89
 142.770507812 -391.3359375 142.770507812 -391.3359375 99.603515625 -384.048828125 c 2,90,-1
 86.5380859375 -381.84375 l 1,91,-1
 105.758789062 -254.775390625 l 1,92,-1
 119.821289062 -257.861328125 l 2,0,1
EndSplineSet
EndChar
